<?xml version="1.0" encoding="utf-8"?>
<svg width="319.5px" height="343px" viewBox="0 0 319.5 343" version="1.1" xmlns:xlink="http://www.w3.org/1999/xlink" xmlns="http://www.w3.org/2000/svg">
  <defs>
    <path d="M10.3688 5.11588L10.3702 5.11476Q10.5253 4.98888 10.687 4.87151Q10.8486 4.75413 11.0163 4.6456Q11.1841 4.53707 11.3574 4.43769Q11.5307 4.33832 11.7091 4.24838Q11.8874 4.15845 12.0704 4.07822Q12.2533 3.99798 12.4403 3.92768Q12.6273 3.85738 12.8178 3.79722Q13.0083 3.73705 13.2018 3.68719Q13.3952 3.63733 13.5911 3.59792Q13.7869 3.55852 13.9846 3.52967Q14.1823 3.50083 14.3812 3.48264Q14.5802 3.46444 14.7798 3.45695Q14.9794 3.44946 15.1792 3.45269Q15.3789 3.45591 15.5782 3.46986Q15.7775 3.4838 15.9757 3.50841Q16.174 3.53302 16.3706 3.56824Q16.5673 3.60346 16.7618 3.64917Q16.9562 3.69489 17.148 3.75097Q17.3397 3.80706 17.5282 3.87335Q17.7166 3.93964 17.9012 4.01595Q18.0859 4.09226 18.2661 4.17836Q18.4464 4.26446 18.6218 4.36011Q18.7972 4.45577 18.9672 4.56069Q19.1372 4.66561 19.3013 4.77951Q19.4654 4.8934 19.6232 5.01594Q19.781 5.13848 19.9319 5.2693Q20.0829 5.40013 20.2267 5.53887Q20.3704 5.67761 20.5065 5.82386Q20.6426 5.97011 20.7706 6.12345Q20.8987 6.27679 21.0183 6.43678Q21.1379 6.59677 21.2488 6.76295Q21.3597 6.92913 21.4615 7.10102L24.6393 12.4668Q24.768 12.6841 24.8836 12.9085Q24.9992 13.133 25.1014 13.3639Q25.2035 13.5948 25.2919 13.8313Q25.3802 14.0678 25.4545 14.3091Q25.5287 14.5504 25.5886 14.7957Q25.6485 15.041 25.6938 15.2894Q25.7391 15.5378 25.7696 15.7884Q25.8002 16.039 25.8159 16.291Q25.8316 16.543 25.8324 16.7955Q25.8332 17.048 25.8191 17.3001Q25.805 17.5522 25.7761 17.803Q25.7471 18.0538 25.7034 18.3025Q25.6597 18.5512 25.6014 18.7968Q25.5431 19.0425 25.4704 19.2843Q25.3977 19.5261 25.3109 19.7631Q25.224 20.0002 25.1234 20.2318Q25.0227 20.4633 24.9085 20.6885Q24.7943 20.9137 24.6671 21.1318Q24.5398 21.3498 24.3999 21.56Q24.26 21.7702 24.1079 21.9717Q23.9558 22.1733 23.7921 22.3655Q23.6284 22.5577 23.4536 22.7399Q23.2789 22.9221 23.0937 23.0937Q22.9084 23.2653 22.7134 23.4257Q22.5184 23.586 22.3143 23.7346Q22.1101 23.8832 21.8976 24.0195Q21.685 24.1557 21.4648 24.2792Q21.2445 24.4027 21.0174 24.5129Q20.7903 24.6232 20.557 24.7199Q20.3238 24.8166 20.0852 24.8993Q19.8467 24.982 19.6037 25.0505Q19.3607 25.119 19.114 25.1731L16.1503 25.8226Q15.9389 25.8689 15.7255 25.9049Q15.512 25.9408 15.2971 25.9663Q15.0822 25.9918 14.8662 26.0068Q14.6503 26.0217 14.4339 26.0261Q14.2175 26.0305 14.0012 26.0243Q13.7848 26.0181 13.569 26.0014Q13.3532 25.9846 13.1385 25.9574Q12.9238 25.9301 12.7107 25.8924Q12.4975 25.8547 12.2865 25.8066Q12.0755 25.7585 11.8671 25.7002Q11.6586 25.6418 11.4533 25.5734Q11.248 25.5049 11.0462 25.4266Q10.8445 25.3482 10.6468 25.26Q10.4491 25.1719 10.256 25.0741Q10.0628 24.9764 9.87472 24.8694Q9.68659 24.7624 9.50391 24.6463Q9.32123 24.5302 9.14444 24.4054Q8.96765 24.2805 8.79717 24.1472Q8.62669 24.0138 8.46293 23.8723Q8.29916 23.7308 8.14251 23.5814Q7.98585 23.4321 7.83668 23.2752Q7.68751 23.1184 7.54617 22.9545Q7.40483 22.7906 7.27167 22.6199Q7.13851 22.4493 7.01385 22.2724Q6.88918 22.0954 6.7733 21.9126Q6.65743 21.7298 6.55062 21.5416Q6.44381 21.3533 6.34633 21.1601Q6.24884 20.9668 6.16091 20.7691Q6.07298 20.5713 5.99481 20.3694Q5.91665 20.1676 5.84843 19.9622Q5.78022 19.7568 5.72212 19.5483Q5.66402 19.3398 5.61617 19.1287L5.57829 18.9616Q5.47162 18.491 5.3979 18.0142Q5.32417 17.5373 5.28373 17.0565Q5.2433 16.5757 5.23635 16.0932Q5.2294 15.6108 5.25598 15.129Q5.28255 14.6472 5.34251 14.1685Q5.40248 13.6897 5.49555 13.2162Q5.58862 12.7428 5.71434 12.277Q5.84006 11.8111 5.99783 11.3551Q6.15559 10.8992 6.34465 10.4552Q6.5337 10.0113 6.75312 9.58157Q6.97255 9.15184 7.22128 8.73839Q7.47002 8.32493 7.74687 7.92975Q8.02372 7.53457 8.32734 7.15957Q8.63096 6.78457 8.9599 6.43156Q9.28883 6.07855 9.64148 5.74923Q9.99413 5.41991 10.3688 5.11588Z" id="path_1" />
    <path d="M-80 175C-18.6964 175 31 125.304 31 64C31 2.69639 -18.6964 -47 -80 -47C-141.304 -47 -191 2.69639 -191 64C-191 125.304 -141.304 175 -80 175Z" id="path_2" />
    <path d="M4.65688 5.10759L5.87008 4.11484Q5.97232 4.03117 6.0786 3.95269Q6.18488 3.87421 6.29494 3.80111Q6.40499 3.72801 6.51853 3.66046Q6.63208 3.59292 6.74885 3.53111Q6.86561 3.4693 6.98531 3.41336Q7.105 3.35743 7.22733 3.30752Q7.34966 3.25761 7.47431 3.21384Q7.59897 3.17007 7.72565 3.13255Q7.85233 3.09503 7.98071 3.06385Q8.1091 3.03268 8.23888 3.00792Q8.36866 2.98317 8.4995 2.96489Q8.63035 2.94662 8.76195 2.93488Q8.89354 2.92313 9.02556 2.91794Q9.15757 2.91275 9.28968 2.91413Q9.42179 2.91551 9.55367 2.92345Q9.68555 2.9314 9.81687 2.94589Q9.94819 2.96038 10.0786 2.98138Q10.2091 3.00238 10.3383 3.02984Q10.4675 3.0573 10.5952 3.09115Q10.7229 3.125 10.8488 3.16516Q10.9747 3.20532 11.0984 3.25168Q11.2221 3.29804 11.3434 3.3505Q11.4646 3.40296 11.5831 3.46138Q11.7016 3.5198 11.8171 3.58403Q11.9325 3.64827 12.0446 3.71817Q12.1568 3.78807 12.2653 3.86345Q12.3738 3.93883 12.4784 4.01952Q12.583 4.1002 12.6835 4.18599Q12.7839 4.27178 12.88 4.36245Q12.9761 4.45312 13.0676 4.54846Q13.1591 4.6438 13.2457 4.74357Q13.3323 4.84334 13.4138 4.94729L14.367 6.16239Q14.4521 6.2709 14.5302 6.38457Q14.6083 6.49824 14.6791 6.61662Q14.7499 6.73499 14.813 6.8576Q14.8762 6.9802 14.9314 7.10655Q14.9867 7.2329 15.0339 7.36249Q15.0811 7.49208 15.12 7.62439Q15.1589 7.7567 15.1894 7.8912Q15.2199 8.0257 15.2418 8.16186Q15.2637 8.29802 15.277 8.43529Q15.2903 8.57257 15.2949 8.7104Q15.2995 8.84824 15.2954 8.98609Q15.2912 9.12394 15.2784 9.26126Q15.2656 9.39858 15.2441 9.53481Q15.2227 9.67104 15.1926 9.80565Q15.1626 9.94025 15.1241 10.0727Q15.0857 10.2051 15.0389 10.3349Q14.9922 10.4646 14.9373 10.5912Q14.8825 10.7177 14.8197 10.8405Q14.757 10.9633 14.6866 11.0819Q14.6163 11.2006 14.5385 11.3145Q14.4608 11.4284 14.3761 11.5372Q14.2913 11.646 14.1999 11.7492Q14.1084 11.8525 14.0106 11.9497Q13.9128 12.047 13.8091 12.1378Q13.7053 12.2287 13.5961 12.3128Q13.4868 12.397 13.3724 12.4741Q13.2581 12.5511 13.1391 12.6208Q13.0201 12.6905 12.8969 12.7526Q12.7737 12.8146 12.6469 12.8688Q12.52 12.9229 12.39 12.9689Q12.26 13.015 12.1274 13.0527Q11.9947 13.0904 11.8599 13.1197L8.3294 13.8865Q8.13355 13.929 7.93473 13.9543Q7.73591 13.9795 7.53565 13.9873Q7.33539 13.9951 7.13521 13.9853Q6.93503 13.9755 6.73648 13.9483Q6.53793 13.921 6.34252 13.8765Q6.14711 13.832 5.95634 13.7706Q5.76557 13.7092 5.5809 13.6313Q5.39623 13.5534 5.21908 13.4597Q5.04193 13.366 4.87366 13.2571Q4.70538 13.1483 4.54727 13.0251Q4.38915 12.902 4.24242 12.7655Q4.09568 12.629 3.96144 12.4801Q3.82721 12.3313 3.7065 12.1713Q3.58579 12.0114 3.47953 11.8414Q3.37327 11.6715 3.28228 11.4929Q3.1913 11.3144 3.11627 11.1285L3.11568 11.1271Q3.03784 10.9342 2.97551 10.7359Q2.91318 10.5375 2.86677 10.3348Q2.82035 10.1321 2.79014 9.92633Q2.75992 9.72059 2.7461 9.5131Q2.73228 9.30561 2.73493 9.09768Q2.73759 8.88975 2.7567 8.68269Q2.77582 8.47562 2.81128 8.27072Q2.84674 8.06582 2.89832 7.86437Q2.9499 7.66293 3.01727 7.4662Q3.08464 7.26947 3.16739 7.07869Q3.25013 6.88792 3.34773 6.70429Q3.44532 6.52067 3.55715 6.34536Q3.66899 6.17005 3.79436 6.00414Q3.91973 5.83824 4.05784 5.68278Q4.19596 5.52733 4.34595 5.38331Q4.49595 5.23928 4.65688 5.10759L4.65688 5.10759Z" id="path_3" />
    <path d="M-96 149C-34.6964 149 15 99.3036 15 38C15 -23.3036 -34.6964 -73 -96 -73C-157.304 -73 -207 -23.3036 -207 38C-207 99.3036 -157.304 149 -96 149Z" id="path_4" />
    <path d="M158 68.3766L158 82.751Q158 84.7087 157.904 86.6641Q157.808 88.6194 157.616 90.5678Q157.424 92.5161 157.137 94.4526Q156.85 96.3891 156.468 98.3092Q156.086 100.229 155.61 102.128Q155.134 104.027 154.566 105.901Q153.998 107.774 153.338 109.618Q152.679 111.461 151.929 113.27Q151.18 115.078 150.343 116.848Q149.506 118.618 148.583 120.344Q147.66 122.071 146.654 123.75Q145.647 125.429 144.56 127.057Q143.472 128.685 142.306 130.257Q141.14 131.83 139.898 133.343Q138.656 134.857 137.341 136.307Q136.026 137.758 134.642 139.142Q133.258 140.526 131.807 141.841Q130.357 143.156 128.843 144.398Q127.33 145.64 125.757 146.806Q124.185 147.972 122.557 149.06Q120.929 150.147 119.25 151.154Q117.571 152.16 115.844 153.083Q114.118 154.006 112.348 154.843Q110.578 155.68 108.77 156.429Q106.961 157.179 105.118 157.838Q103.274 158.498 101.401 159.066Q99.5275 159.634 97.6284 160.11Q95.7293 160.586 93.8092 160.968Q91.8891 161.35 89.9526 161.637Q88.0161 161.924 86.0678 162.116Q84.1195 162.308 82.1641 162.404Q80.2087 162.5 78.251 162.5L73.0856 162.5Q71.2749 162.5 69.4665 162.409Q67.6581 162.319 65.8565 162.138Q64.0548 161.957 62.2645 161.686Q60.4742 161.416 58.6996 161.056Q56.9251 160.696 55.1707 160.247Q53.4164 159.799 51.6867 159.264Q49.957 158.728 48.2562 158.107Q46.5554 157.486 44.8878 156.78Q43.2203 156.075 41.59 155.287Q39.9598 154.499 38.3711 153.63Q36.7823 152.762 35.239 151.815Q33.6956 150.868 32.2016 149.845Q30.7075 148.822 29.2665 147.726Q27.8255 146.629 26.4411 145.462Q25.0567 144.295 23.7324 143.06Q22.4081 141.825 21.1472 140.526Q19.8863 139.226 18.692 137.865Q17.4977 136.505 16.3729 135.086Q15.2481 133.667 14.1957 132.193Q13.1433 130.72 12.1659 129.195Q11.1885 127.671 10.2886 126.1Q9.38863 124.529 8.56838 122.915Q7.74813 121.3 7.00964 119.647Q6.27114 117.994 5.61625 116.306Q4.96136 114.618 4.39171 112.899Q3.82206 111.18 3.33907 109.435Q2.85609 107.69 2.46098 105.923Q2.06586 104.156 1.75962 102.371Q1.45337 100.587 1.23675 98.789Q1.02014 96.9913 0.893691 95.1851Q0.767246 93.3788 0.731289 91.5685Q0.695333 89.7582 0.749954 87.9483L0.935822 81.7895Q0.989586 80.0081 1.1207 78.2306Q1.25182 76.4532 1.46004 74.6832Q1.66826 72.9131 1.95319 71.1538Q2.23812 69.3945 2.59923 67.6492Q2.96033 65.9039 3.39693 64.176Q3.83352 62.448 4.34479 60.7407Q4.85605 59.0333 5.44101 57.3498Q6.02597 55.6663 6.68353 54.0098Q7.34109 52.3533 8.07 50.7269Q8.79891 49.1005 9.5978 47.5073Q10.3967 45.9142 11.264 44.3572Q12.1314 42.8002 13.0656 41.2824Q13.9998 39.7646 14.999 38.2889Q15.9983 36.8131 17.0607 35.3821Q18.1231 33.9512 19.2468 32.5677Q20.3704 31.1843 21.553 29.8509Q22.7357 28.5176 23.9751 27.2369Q25.2146 25.9562 26.5085 24.7306Q27.8025 23.505 29.1484 22.3368Q30.4944 21.1685 31.8899 20.0599Q33.2853 18.9512 34.7276 17.9043Q36.17 16.8573 37.6564 15.874Q39.1428 14.8907 40.6706 13.9728Q42.1984 13.055 43.7646 12.2045Q45.3308 11.3539 46.9324 10.5722Q48.5341 9.79053 50.1682 9.07916Q51.8024 8.36779 53.4659 7.72809Q55.1294 7.08839 56.8191 6.52157Q58.5088 5.95476 60.2215 5.4619Q61.9343 4.96903 63.6668 4.55105Q65.3994 4.13307 67.1484 3.79077Q68.8975 3.44846 70.6598 3.18247L80.5012 1.69709Q82.2942 1.42646 84.0992 1.25258Q85.9043 1.07871 87.716 1.00209Q89.5278 0.92547 91.341 0.946331Q93.1543 0.967192 94.9638 1.08547Q96.7733 1.20375 98.5739 1.41911Q100.374 1.63447 102.161 1.94628Q103.947 2.25809 105.714 2.66546Q107.481 3.07283 109.224 3.57457Q110.966 4.07631 112.679 4.67098Q114.393 5.26565 116.071 5.95152Q117.75 6.6374 119.389 7.4125Q121.029 8.1876 122.624 9.04968Q124.219 9.91177 125.766 10.8583Q127.313 11.8049 128.806 12.8333Q130.3 13.8616 131.736 14.9687Q133.172 16.0758 134.547 17.2585Q135.922 18.4412 137.231 19.6961Q138.54 20.951 139.779 22.2744Q141.019 23.5978 142.186 24.9859Q143.353 26.374 144.443 27.8229Q145.534 29.2717 146.545 30.777Q147.556 32.2824 148.485 33.8399Q149.413 35.3974 150.257 37.0025Q151.101 38.6077 151.857 40.2559Q152.613 41.904 153.28 43.5905Q153.946 45.2769 154.521 46.9968Q155.096 48.7166 155.578 50.4648Q156.059 52.213 156.446 53.9846Q156.833 55.7562 157.125 57.5461Q157.416 59.3359 157.61 61.1388Q157.805 62.9417 157.903 64.7525Q158 66.5632 158 68.3766L158 68.3766Z" id="path_5" />
    <path d="M-29 133C32.3036 133 82 83.3036 82 22C82 -39.3036 32.3036 -89 -29 -89C-90.3036 -89 -140 -39.3036 -140 22C-140 83.3036 -90.3036 133 -29 133Z" id="path_6" />
    <path d="M23.5 0.113284L102.136 4.09484Q104.045 4.19151 105.948 4.37703Q107.85 4.56256 109.742 4.83654Q111.634 5.11052 113.511 5.47236Q115.388 5.8342 117.246 6.28312Q119.104 6.73204 120.939 7.26705Q122.774 7.80207 124.583 8.42202Q126.391 9.04198 128.168 9.74552Q129.946 10.4491 131.688 11.2347Q133.431 12.0203 135.135 12.8862Q136.84 13.7522 138.502 14.6966Q140.164 15.6411 141.78 16.6619Q143.396 17.6828 144.963 18.7778Q146.53 19.8729 148.044 21.0398Q149.558 22.2066 151.016 23.4428Q152.474 24.679 153.873 25.9818Q155.272 27.2845 156.608 28.6511Q157.945 30.0176 159.217 31.445Q160.488 32.8723 161.692 34.3574Q162.896 35.8424 164.029 37.382Q165.162 38.9215 166.222 40.5121Q167.282 42.1028 168.267 43.7411Q169.252 45.3795 170.159 47.0619Q171.067 48.7444 171.895 50.4673Q172.723 52.1902 173.47 53.9498Q174.217 55.7094 174.881 57.502Q175.545 59.2945 176.125 61.116Q176.705 62.9375 177.199 64.7841Q177.693 66.6306 178.101 68.4982Q178.509 70.3658 178.829 72.2504Q179.149 74.1349 179.382 76.0324Q179.614 77.9298 179.757 79.836Q179.901 81.7422 179.955 83.653L180.728 110.783Q180.783 112.72 180.742 114.657Q180.7 116.593 180.562 118.526Q180.423 120.458 180.189 122.381Q179.954 124.304 179.624 126.213Q179.293 128.122 178.868 130.012Q178.442 131.902 177.923 133.768Q177.404 135.634 176.792 137.473Q176.18 139.311 175.477 141.116Q174.774 142.921 173.982 144.689Q173.19 146.457 172.31 148.183Q171.43 149.909 170.466 151.589Q169.501 153.269 168.454 154.899Q167.406 156.528 166.279 158.103Q165.151 159.679 163.946 161.196Q162.741 162.713 161.462 164.168Q160.183 165.623 158.833 167.012Q157.483 168.401 156.065 169.721Q154.647 171.041 153.165 172.289Q151.683 173.536 150.14 174.708Q148.598 175.88 146.999 176.974Q145.399 178.067 143.748 179.079Q142.096 180.091 140.395 181.02Q138.695 181.948 136.951 182.791Q135.206 183.633 133.422 184.387Q131.637 185.141 129.817 185.805Q127.997 186.469 126.146 187.041Q124.296 187.613 122.419 188.093Q120.542 188.572 118.643 188.956Q116.744 189.341 114.829 189.63Q112.913 189.92 110.986 190.113Q109.058 190.306 107.123 190.403Q105.188 190.5 103.251 190.5L90.9505 190.5Q89.1863 190.5 87.4238 190.424Q85.6613 190.348 83.9036 190.197Q82.146 190.045 80.3965 189.818Q78.647 189.591 76.9089 189.289Q75.1708 188.987 73.4473 188.61Q71.7238 188.234 70.0181 187.783Q68.3124 187.333 66.6276 186.81Q64.9428 186.286 63.2821 185.691Q61.6214 185.096 59.9879 184.43Q58.3543 183.763 56.7509 183.028Q55.1475 182.292 53.5772 181.488Q52.0069 180.684 50.4727 179.813Q48.9385 178.942 47.4431 178.006Q45.9477 177.07 44.494 176.07Q43.0403 175.071 41.6309 174.01Q40.2215 172.949 38.8591 171.828Q37.4966 170.707 36.1836 169.529Q34.8707 168.351 33.6096 167.117Q32.3485 165.883 31.1416 164.597Q29.9347 163.31 28.7843 161.973Q27.6339 160.635 26.5421 159.249Q25.4503 157.864 24.419 156.432Q23.3878 155.001 22.4191 153.526Q21.4504 152.052 20.546 150.537Q19.6417 149.023 18.8032 147.47Q17.9648 145.918 17.194 144.331Q16.4231 142.744 15.7212 141.126Q15.0193 139.507 14.3876 137.86Q13.756 136.213 13.1958 134.54Q12.6356 132.867 12.1478 131.172Q11.66 129.477 11.2457 127.762Q10.8313 126.047 10.491 124.316L-10.3134 18.4717Q-10.3953 18.0552 -10.454 17.6348Q-10.5128 17.2143 -10.5484 16.7913Q-10.5839 16.3683 -10.596 15.944Q-10.6082 15.5196 -10.5969 15.0953Q-10.5857 14.6709 -10.551 14.2478Q-10.5164 13.8247 -10.4585 13.4042Q-10.4006 12.9836 -10.3196 12.5669Q-10.2386 12.1502 -10.1347 11.7386Q-10.0309 11.327 -9.90451 10.9217Q-9.77813 10.5164 -9.6296 10.1188Q-9.48107 9.72109 -9.31085 9.3322Q-9.14063 8.94331 -8.94923 8.5644Q-8.75782 8.18549 -8.54583 7.8177Q-8.33383 7.44992 -8.10188 7.09438Q-7.86993 6.73884 -7.61873 6.39662Q-7.36754 6.05441 -7.09786 5.72656Q-6.82818 5.39872 -6.54084 5.08624Q-6.2535 4.77375 -5.94937 4.47759Q-5.64524 4.18142 -5.32524 3.90247Q-5.00525 3.62352 -4.67037 3.36263Q-4.33549 3.10174 -3.98673 2.85971Q-3.63797 2.61768 -3.27641 2.39524Q-2.91484 2.1728 -2.54156 1.97063Q-2.16828 1.76846 -1.78443 1.58718Q-1.40057 1.4059 -1.0073 1.24605Q-0.614038 1.0862 -0.212558 0.948271Q0.188921 0.810344 0.597393 0.694758Q1.00587 0.579172 1.42009 0.486278Q1.83431 0.393384 2.25302 0.323466Q2.67174 0.253548 3.09367 0.206817Q3.5156 0.160086 3.93946 0.136685Q4.36333 0.113284 4.78784 0.113284L23.5 0.113284Z" id="path_7" />
    <path d="M142 126C203.304 126 253 76.3036 253 15C253 -46.3036 203.304 -96 142 -96C80.6964 -96 31 -46.3036 31 15C31 76.3036 80.6964 126 142 126Z" id="path_8" />
    <path d="M53.999 0L78.001 0Q79.3266 0 80.6506 0.0650441Q81.9746 0.130088 83.2938 0.26002Q84.613 0.389951 85.9243 0.584457Q87.2355 0.778964 88.5357 1.03758Q89.8358 1.29619 91.1217 1.61828Q92.4075 1.94038 93.6761 2.32518Q94.9446 2.70998 96.1927 3.15656Q97.4408 3.60314 98.6655 4.11043Q99.8902 4.61771 101.089 5.18448Q102.287 5.75125 103.456 6.37613Q104.625 7.00102 105.762 7.68251Q106.899 8.36401 108.001 9.10047Q109.103 9.83694 110.168 10.6266Q111.233 11.4163 112.258 12.2572Q113.282 13.0982 114.265 13.9884Q115.247 14.8786 116.184 15.8159Q117.121 16.7533 118.012 17.7355Q118.902 18.7177 119.743 19.7424Q120.584 20.7671 121.373 21.8318Q122.163 22.8966 122.9 23.9988Q123.636 25.101 124.317 26.238Q124.999 27.375 125.624 28.544Q126.249 29.7131 126.816 30.9114Q127.382 32.1098 127.89 33.3345Q128.397 34.5592 128.843 35.8073Q129.29 37.0554 129.675 38.3239Q130.06 39.5924 130.382 40.8783Q130.704 42.1642 130.962 43.4643Q131.221 44.7644 131.416 46.0757Q131.61 47.387 131.74 48.7062Q131.87 50.0254 131.935 51.3494Q132 52.6734 132 53.999L132 54.001Q132 55.3266 131.935 56.6506Q131.87 57.9746 131.74 59.2938Q131.61 60.613 131.416 61.9243Q131.221 63.2355 130.962 64.5357Q130.704 65.8358 130.382 67.1217Q130.06 68.4076 129.675 69.6761Q129.29 70.9446 128.843 72.1927Q128.397 73.4408 127.89 74.6655Q127.382 75.8902 126.816 77.0885Q126.249 78.2869 125.624 79.4559Q124.999 80.625 124.317 81.762Q123.636 82.899 122.9 84.0012Q122.163 85.1034 121.373 86.1682Q120.584 87.2329 119.743 88.2576Q118.902 89.2823 118.012 90.2645Q117.121 91.2467 116.184 92.1841Q115.247 93.1214 114.265 94.0116Q113.282 94.9018 112.258 95.7428Q111.233 96.5837 110.168 97.3734Q109.103 98.163 108.001 98.8995Q106.899 99.636 105.762 100.317Q104.625 100.999 103.456 101.624Q102.287 102.249 101.089 102.816Q99.8902 103.382 98.6655 103.89Q97.4408 104.397 96.1927 104.843Q94.9446 105.29 93.6761 105.675Q92.4075 106.06 91.1217 106.382Q89.8358 106.704 88.5357 106.962Q87.2355 107.221 85.9243 107.416Q84.613 107.61 83.2938 107.74Q81.9746 107.87 80.6506 107.935Q79.3266 108 78.001 108L53.999 108Q52.6734 108 51.3494 107.935Q50.0254 107.87 48.7062 107.74Q47.387 107.61 46.0757 107.416Q44.7644 107.221 43.4643 106.962Q42.1642 106.704 40.8783 106.382Q39.5924 106.06 38.3239 105.675Q37.0554 105.29 35.8073 104.843Q34.5592 104.397 33.3345 103.89Q32.1098 103.382 30.9114 102.816Q29.7131 102.249 28.544 101.624Q27.375 100.999 26.238 100.317Q25.101 99.636 23.9988 98.8995Q22.8966 98.163 21.8318 97.3734Q20.7671 96.5837 19.7424 95.7428Q18.7177 94.9018 17.7355 94.0116Q16.7533 93.1214 15.8159 92.1841Q14.8786 91.2467 13.9884 90.2645Q13.0982 89.2823 12.2572 88.2576Q11.4163 87.2329 10.6266 86.1682Q9.83694 85.1034 9.10047 84.0012Q8.36401 82.899 7.68251 81.762Q7.00102 80.625 6.37613 79.4559Q5.75125 78.2869 5.18448 77.0885Q4.61771 75.8902 4.11043 74.6655Q3.60314 73.4408 3.15656 72.1927Q2.70998 70.9446 2.32518 69.6761Q1.94038 68.4076 1.61828 67.1217Q1.29619 65.8358 1.03758 64.5357Q0.778964 63.2355 0.584457 61.9243Q0.389951 60.613 0.26002 59.2938Q0.130088 57.9746 0.0650441 56.6506Q0 55.3266 0 54.001L0 53.999Q0 52.6734 0.0650441 51.3494Q0.130088 50.0254 0.26002 48.7062Q0.389951 47.387 0.584457 46.0757Q0.778964 44.7644 1.03758 43.4643Q1.29619 42.1642 1.61828 40.8783Q1.94038 39.5924 2.32518 38.3239Q2.70998 37.0554 3.15656 35.8073Q3.60314 34.5592 4.11043 33.3345Q4.61771 32.1098 5.18448 30.9114Q5.75125 29.7131 6.37613 28.544Q7.00102 27.375 7.68251 26.238Q8.36401 25.101 9.10047 23.9988Q9.83694 22.8966 10.6266 21.8318Q11.4163 20.7671 12.2572 19.7424Q13.0982 18.7177 13.9884 17.7355Q14.8786 16.7533 15.8159 15.8159Q16.7533 14.8786 17.7355 13.9884Q18.7177 13.0982 19.7424 12.2572Q20.7671 11.4163 21.8318 10.6266Q22.8966 9.83694 23.9988 9.10047Q25.101 8.36401 26.238 7.68251Q27.375 7.00102 28.544 6.37613Q29.7131 5.75125 30.9114 5.18448Q32.1098 4.61771 33.3345 4.11043Q34.5592 3.60314 35.8073 3.15656Q37.0554 2.70998 38.3239 2.32518Q39.5924 1.94038 40.8783 1.61828Q42.1642 1.29619 43.4643 1.03758Q44.7644 0.778964 46.0757 0.584457Q47.387 0.389951 48.7062 0.26002Q50.0254 0.130088 51.3494 0.0650441Q52.6734 0 53.999 0Z" id="path_9" />
    <path d="M21 278C82.3036 278 132 228.304 132 167C132 105.696 82.3036 56 21 56C-40.3036 56 -90 105.696 -90 167C-90 228.304 -40.3036 278 21 278Z" id="path_10" />
    <path d="M117 258C181.065 258 233 206.065 233 142C233 77.935 212 5 101.926 0.996093C-8.14844 -3.00781 1 77.935 1 142C1 206.065 52.935 258 117 258Z" id="path_11" />
    <path d="M-9.9476e-14 5L60.7741 0.965704L59.687 128.947L-9.9476e-14 128L-9.9476e-14 5Z" id="path_12" />
    <path d="M121 257C185.125 257 225 206.065 225 142C225 77.935 212 5 101.926 0.996093C-8.14844 -3.00781 1 77.935 1 142C1 206.065 56.875 257 121 257Z" id="path_13" />
    <path d="M1.13687e-13 0L71.6007 0L71.6007 209.226L1.13687e-13 209.226L1.13687e-13 0Z" id="path_14" />
    <path d="M113 258C177.065 258 229 206.065 229 142C229 77.935 217.074 4.875 107 0.871094C-3.07422 -3.13281 0.984375 82.767 0.984375 146.832C0.984375 210.897 48.935 258 113 258Z" id="path_15" />
    <path d="M1.42109e-14 -2.84217e-14L86.9231 -2.84217e-14L86.9231 254L1.42109e-14 254L1.42109e-14 -2.84217e-14Z" id="path_16" />
    <clipPath id="clip_1">
      <use xlink:href="#path_2" />
    </clipPath>
    <clipPath id="clip_2">
      <use xlink:href="#path_4" />
    </clipPath>
    <clipPath id="clip_3">
      <use xlink:href="#path_6" />
    </clipPath>
    <clipPath id="clip_4">
      <use xlink:href="#path_8" />
    </clipPath>
    <clipPath id="clip_5">
      <use xlink:href="#path_10" />
    </clipPath>
    <clipPath id="mask_1">
      <use xlink:href="#path_1" />
    </clipPath>
    <clipPath id="mask_2">
      <use xlink:href="#path_3" />
    </clipPath>
    <clipPath id="mask_3">
      <use xlink:href="#path_5" />
    </clipPath>
    <clipPath id="mask_4">
      <use xlink:href="#path_7" />
    </clipPath>
    <clipPath id="mask_5">
      <use xlink:href="#path_9" />
    </clipPath>
    <clipPath id="mask_6">
      <use xlink:href="#path_11" />
    </clipPath>
    <clipPath id="mask_7">
      <use xlink:href="#path_12" />
    </clipPath>
    <clipPath id="mask_8">
      <use xlink:href="#path_13" />
    </clipPath>
    <clipPath id="mask_9">
      <use xlink:href="#path_14" />
    </clipPath>
    <clipPath id="mask_10">
      <use xlink:href="#path_15" />
    </clipPath>
    <clipPath id="mask_11">
      <use xlink:href="#path_16" />
    </clipPath>
  </defs>
  <g id="illustration" transform="translate(1.5 1.5)">
    <g id="stroke">
      <path d="M141 272C200.094 272 248 224.094 248 165C248 105.906 200.094 58 141 58C81.9055 58 34 105.906 34 165C34 224.094 81.9055 272 141 272Z" id="fill" fill="#FAFAFA" fill-rule="evenodd" stroke="none" />
      <g id="top-right-2" transform="translate(219 101)">
        <path d="M10.3688 5.11588L10.3702 5.11476Q10.5253 4.98888 10.687 4.87151Q10.8486 4.75413 11.0163 4.6456Q11.1841 4.53707 11.3574 4.43769Q11.5307 4.33832 11.7091 4.24838Q11.8874 4.15845 12.0704 4.07822Q12.2533 3.99798 12.4403 3.92768Q12.6273 3.85738 12.8178 3.79722Q13.0083 3.73705 13.2018 3.68719Q13.3952 3.63733 13.5911 3.59792Q13.7869 3.55852 13.9846 3.52967Q14.1823 3.50083 14.3812 3.48264Q14.5802 3.46444 14.7798 3.45695Q14.9794 3.44946 15.1792 3.45269Q15.3789 3.45591 15.5782 3.46986Q15.7775 3.4838 15.9757 3.50841Q16.174 3.53302 16.3706 3.56824Q16.5673 3.60346 16.7618 3.64917Q16.9562 3.69489 17.148 3.75097Q17.3397 3.80706 17.5282 3.87335Q17.7166 3.93964 17.9012 4.01595Q18.0859 4.09226 18.2661 4.17836Q18.4464 4.26446 18.6218 4.36011Q18.7972 4.45577 18.9672 4.56069Q19.1372 4.66561 19.3013 4.77951Q19.4654 4.8934 19.6232 5.01594Q19.781 5.13848 19.9319 5.2693Q20.0829 5.40013 20.2267 5.53887Q20.3704 5.67761 20.5065 5.82386Q20.6426 5.97011 20.7706 6.12345Q20.8987 6.27679 21.0183 6.43678Q21.1379 6.59677 21.2488 6.76295Q21.3597 6.92913 21.4615 7.10102L24.6393 12.4668Q24.768 12.6841 24.8836 12.9085Q24.9992 13.133 25.1014 13.3639Q25.2035 13.5948 25.2919 13.8313Q25.3802 14.0678 25.4545 14.3091Q25.5287 14.5504 25.5886 14.7957Q25.6485 15.041 25.6938 15.2894Q25.7391 15.5378 25.7696 15.7884Q25.8002 16.039 25.8159 16.291Q25.8316 16.543 25.8324 16.7955Q25.8332 17.048 25.8191 17.3001Q25.805 17.5522 25.7761 17.803Q25.7471 18.0538 25.7034 18.3025Q25.6597 18.5512 25.6014 18.7968Q25.5431 19.0425 25.4704 19.2843Q25.3977 19.5261 25.3109 19.7631Q25.224 20.0002 25.1234 20.2318Q25.0227 20.4633 24.9085 20.6885Q24.7943 20.9137 24.6671 21.1318Q24.5398 21.3498 24.3999 21.56Q24.26 21.7702 24.1079 21.9717Q23.9558 22.1733 23.7921 22.3655Q23.6284 22.5577 23.4536 22.7399Q23.2789 22.9221 23.0937 23.0937Q22.9084 23.2653 22.7134 23.4257Q22.5184 23.586 22.3143 23.7346Q22.1101 23.8832 21.8976 24.0195Q21.685 24.1557 21.4648 24.2792Q21.2445 24.4027 21.0174 24.5129Q20.7903 24.6232 20.557 24.7199Q20.3238 24.8166 20.0852 24.8993Q19.8467 24.982 19.6037 25.0505Q19.3607 25.119 19.114 25.1731L16.1503 25.8226Q15.9389 25.8689 15.7255 25.9049Q15.512 25.9408 15.2971 25.9663Q15.0822 25.9918 14.8662 26.0068Q14.6503 26.0217 14.4339 26.0261Q14.2175 26.0305 14.0012 26.0243Q13.7848 26.0181 13.569 26.0014Q13.3532 25.9846 13.1385 25.9574Q12.9238 25.9301 12.7107 25.8924Q12.4975 25.8547 12.2865 25.8066Q12.0755 25.7585 11.8671 25.7002Q11.6586 25.6418 11.4533 25.5734Q11.248 25.5049 11.0462 25.4266Q10.8445 25.3482 10.6468 25.26Q10.4491 25.1719 10.256 25.0741Q10.0628 24.9764 9.87472 24.8694Q9.68659 24.7624 9.50391 24.6463Q9.32123 24.5302 9.14444 24.4054Q8.96765 24.2805 8.79717 24.1472Q8.62669 24.0138 8.46293 23.8723Q8.29916 23.7308 8.14251 23.5814Q7.98585 23.4321 7.83668 23.2752Q7.68751 23.1184 7.54617 22.9545Q7.40483 22.7906 7.27167 22.6199Q7.13851 22.4493 7.01385 22.2724Q6.88918 22.0954 6.7733 21.9126Q6.65743 21.7298 6.55062 21.5416Q6.44381 21.3533 6.34633 21.1601Q6.24884 20.9668 6.16091 20.7691Q6.07298 20.5713 5.99481 20.3694Q5.91665 20.1676 5.84843 19.9622Q5.78022 19.7568 5.72212 19.5483Q5.66402 19.3398 5.61617 19.1287L5.57829 18.9616Q5.47162 18.491 5.3979 18.0142Q5.32417 17.5373 5.28373 17.0565Q5.2433 16.5757 5.23635 16.0932Q5.2294 15.6108 5.25598 15.129Q5.28255 14.6472 5.34251 14.1685Q5.40248 13.6897 5.49555 13.2162Q5.58862 12.7428 5.71434 12.277Q5.84006 11.8111 5.99783 11.3551Q6.15559 10.8992 6.34465 10.4552Q6.5337 10.0113 6.75312 9.58157Q6.97255 9.15184 7.22128 8.73839Q7.47002 8.32493 7.74687 7.92975Q8.02372 7.53457 8.32734 7.15957Q8.63096 6.78457 8.9599 6.43156Q9.28883 6.07855 9.64148 5.74923Q9.99413 5.41991 10.3688 5.11588Z" id="Rectangle-74" fill="none" fill-rule="evenodd" stroke="none" />
        <g clip-path="url(#mask_1)">
          <g id="stroke">
            <g clip-path="url(#clip_1)">
              <use xlink:href="#path_2" fill="none" stroke="#3D3F58" stroke-width="8" />
            </g>
          </g>
        </g>
      </g>
      <g id="top-right-1" transform="translate(235 127)">
        <path d="M4.65688 5.10759L5.87008 4.11484Q5.97232 4.03117 6.0786 3.95269Q6.18488 3.87421 6.29494 3.80111Q6.40499 3.72801 6.51853 3.66046Q6.63208 3.59292 6.74885 3.53111Q6.86561 3.4693 6.98531 3.41336Q7.105 3.35743 7.22733 3.30752Q7.34966 3.25761 7.47431 3.21384Q7.59897 3.17007 7.72565 3.13255Q7.85233 3.09503 7.98071 3.06385Q8.1091 3.03268 8.23888 3.00792Q8.36866 2.98317 8.4995 2.96489Q8.63035 2.94662 8.76195 2.93488Q8.89354 2.92313 9.02556 2.91794Q9.15757 2.91275 9.28968 2.91413Q9.42179 2.91551 9.55367 2.92345Q9.68555 2.9314 9.81687 2.94589Q9.94819 2.96038 10.0786 2.98138Q10.2091 3.00238 10.3383 3.02984Q10.4675 3.0573 10.5952 3.09115Q10.7229 3.125 10.8488 3.16516Q10.9747 3.20532 11.0984 3.25168Q11.2221 3.29804 11.3434 3.3505Q11.4646 3.40296 11.5831 3.46138Q11.7016 3.5198 11.8171 3.58403Q11.9325 3.64827 12.0446 3.71817Q12.1568 3.78807 12.2653 3.86345Q12.3738 3.93883 12.4784 4.01952Q12.583 4.1002 12.6835 4.18599Q12.7839 4.27178 12.88 4.36245Q12.9761 4.45312 13.0676 4.54846Q13.1591 4.6438 13.2457 4.74357Q13.3323 4.84334 13.4138 4.94729L14.367 6.16239Q14.4521 6.2709 14.5302 6.38457Q14.6083 6.49824 14.6791 6.61662Q14.7499 6.73499 14.813 6.8576Q14.8762 6.9802 14.9314 7.10655Q14.9867 7.2329 15.0339 7.36249Q15.0811 7.49208 15.12 7.62439Q15.1589 7.7567 15.1894 7.8912Q15.2199 8.0257 15.2418 8.16186Q15.2637 8.29802 15.277 8.43529Q15.2903 8.57257 15.2949 8.7104Q15.2995 8.84824 15.2954 8.98609Q15.2912 9.12394 15.2784 9.26126Q15.2656 9.39858 15.2441 9.53481Q15.2227 9.67104 15.1926 9.80565Q15.1626 9.94025 15.1241 10.0727Q15.0857 10.2051 15.0389 10.3349Q14.9922 10.4646 14.9373 10.5912Q14.8825 10.7177 14.8197 10.8405Q14.757 10.9633 14.6866 11.0819Q14.6163 11.2006 14.5385 11.3145Q14.4608 11.4284 14.3761 11.5372Q14.2913 11.646 14.1999 11.7492Q14.1084 11.8525 14.0106 11.9497Q13.9128 12.047 13.8091 12.1378Q13.7053 12.2287 13.5961 12.3128Q13.4868 12.397 13.3724 12.4741Q13.2581 12.5511 13.1391 12.6208Q13.0201 12.6905 12.8969 12.7526Q12.7737 12.8146 12.6469 12.8688Q12.52 12.9229 12.39 12.9689Q12.26 13.015 12.1274 13.0527Q11.9947 13.0904 11.8599 13.1197L8.3294 13.8865Q8.13355 13.929 7.93473 13.9543Q7.73591 13.9795 7.53565 13.9873Q7.33539 13.9951 7.13521 13.9853Q6.93503 13.9755 6.73648 13.9483Q6.53793 13.921 6.34252 13.8765Q6.14711 13.832 5.95634 13.7706Q5.76557 13.7092 5.5809 13.6313Q5.39623 13.5534 5.21908 13.4597Q5.04193 13.366 4.87366 13.2571Q4.70538 13.1483 4.54727 13.0251Q4.38915 12.902 4.24242 12.7655Q4.09568 12.629 3.96144 12.4801Q3.82721 12.3313 3.7065 12.1713Q3.58579 12.0114 3.47953 11.8414Q3.37327 11.6715 3.28228 11.4929Q3.1913 11.3144 3.11627 11.1285L3.11568 11.1271Q3.03784 10.9342 2.97551 10.7359Q2.91318 10.5375 2.86677 10.3348Q2.82035 10.1321 2.79014 9.92633Q2.75992 9.72059 2.7461 9.5131Q2.73228 9.30561 2.73493 9.09768Q2.73759 8.88975 2.7567 8.68269Q2.77582 8.47562 2.81128 8.27072Q2.84674 8.06582 2.89832 7.86437Q2.9499 7.66293 3.01727 7.4662Q3.08464 7.26947 3.16739 7.07869Q3.25013 6.88792 3.34773 6.70429Q3.44532 6.52067 3.55715 6.34536Q3.66899 6.17005 3.79436 6.00414Q3.91973 5.83824 4.05784 5.68278Q4.19596 5.52733 4.34595 5.38331Q4.49595 5.23928 4.65688 5.10759L4.65688 5.10759Z" id="Rectangle-74" fill="none" fill-rule="evenodd" stroke="none" />
        <g clip-path="url(#mask_2)">
          <g id="stroke">
            <g clip-path="url(#clip_2)">
              <use xlink:href="#path_4" fill="none" stroke="#3D3F58" stroke-width="8" />
            </g>
          </g>
        </g>
      </g>
      <g id="mid-right" transform="translate(168 143)">
        <path d="M158 68.3766L158 82.751Q158 84.7087 157.904 86.6641Q157.808 88.6194 157.616 90.5678Q157.424 92.5161 157.137 94.4526Q156.85 96.3891 156.468 98.3092Q156.086 100.229 155.61 102.128Q155.134 104.027 154.566 105.901Q153.998 107.774 153.338 109.618Q152.679 111.461 151.929 113.27Q151.18 115.078 150.343 116.848Q149.506 118.618 148.583 120.344Q147.66 122.071 146.654 123.75Q145.647 125.429 144.56 127.057Q143.472 128.685 142.306 130.257Q141.14 131.83 139.898 133.343Q138.656 134.857 137.341 136.307Q136.026 137.758 134.642 139.142Q133.258 140.526 131.807 141.841Q130.357 143.156 128.843 144.398Q127.33 145.64 125.757 146.806Q124.185 147.972 122.557 149.06Q120.929 150.147 119.25 151.154Q117.571 152.16 115.844 153.083Q114.118 154.006 112.348 154.843Q110.578 155.68 108.77 156.429Q106.961 157.179 105.118 157.838Q103.274 158.498 101.401 159.066Q99.5275 159.634 97.6284 160.11Q95.7293 160.586 93.8092 160.968Q91.8891 161.35 89.9526 161.637Q88.0161 161.924 86.0678 162.116Q84.1195 162.308 82.1641 162.404Q80.2087 162.5 78.251 162.5L73.0856 162.5Q71.2749 162.5 69.4665 162.409Q67.6581 162.319 65.8565 162.138Q64.0548 161.957 62.2645 161.686Q60.4742 161.416 58.6996 161.056Q56.9251 160.696 55.1707 160.247Q53.4164 159.799 51.6867 159.264Q49.957 158.728 48.2562 158.107Q46.5554 157.486 44.8878 156.78Q43.2203 156.075 41.59 155.287Q39.9598 154.499 38.3711 153.63Q36.7823 152.762 35.239 151.815Q33.6956 150.868 32.2016 149.845Q30.7075 148.822 29.2665 147.726Q27.8255 146.629 26.4411 145.462Q25.0567 144.295 23.7324 143.06Q22.4081 141.825 21.1472 140.526Q19.8863 139.226 18.692 137.865Q17.4977 136.505 16.3729 135.086Q15.2481 133.667 14.1957 132.193Q13.1433 130.72 12.1659 129.195Q11.1885 127.671 10.2886 126.1Q9.38863 124.529 8.56838 122.915Q7.74813 121.3 7.00964 119.647Q6.27114 117.994 5.61625 116.306Q4.96136 114.618 4.39171 112.899Q3.82206 111.18 3.33907 109.435Q2.85609 107.69 2.46098 105.923Q2.06586 104.156 1.75962 102.371Q1.45337 100.587 1.23675 98.789Q1.02014 96.9913 0.893691 95.1851Q0.767246 93.3788 0.731289 91.5685Q0.695333 89.7582 0.749954 87.9483L0.935822 81.7895Q0.989586 80.0081 1.1207 78.2306Q1.25182 76.4532 1.46004 74.6832Q1.66826 72.9131 1.95319 71.1538Q2.23812 69.3945 2.59923 67.6492Q2.96033 65.9039 3.39693 64.176Q3.83352 62.448 4.34479 60.7407Q4.85605 59.0333 5.44101 57.3498Q6.02597 55.6663 6.68353 54.0098Q7.34109 52.3533 8.07 50.7269Q8.79891 49.1005 9.5978 47.5073Q10.3967 45.9142 11.264 44.3572Q12.1314 42.8002 13.0656 41.2824Q13.9998 39.7646 14.999 38.2889Q15.9983 36.8131 17.0607 35.3821Q18.1231 33.9512 19.2468 32.5677Q20.3704 31.1843 21.553 29.8509Q22.7357 28.5176 23.9751 27.2369Q25.2146 25.9562 26.5085 24.7306Q27.8025 23.505 29.1484 22.3368Q30.4944 21.1685 31.8899 20.0599Q33.2853 18.9512 34.7276 17.9043Q36.17 16.8573 37.6564 15.874Q39.1428 14.8907 40.6706 13.9728Q42.1984 13.055 43.7646 12.2045Q45.3308 11.3539 46.9324 10.5722Q48.5341 9.79053 50.1682 9.07916Q51.8024 8.36779 53.4659 7.72809Q55.1294 7.08839 56.8191 6.52157Q58.5088 5.95476 60.2215 5.4619Q61.9343 4.96903 63.6668 4.55105Q65.3994 4.13307 67.1484 3.79077Q68.8975 3.44846 70.6598 3.18247L80.5012 1.69709Q82.2942 1.42646 84.0992 1.25258Q85.9043 1.07871 87.716 1.00209Q89.5278 0.92547 91.341 0.946331Q93.1543 0.967192 94.9638 1.08547Q96.7733 1.20375 98.5739 1.41911Q100.374 1.63447 102.161 1.94628Q103.947 2.25809 105.714 2.66546Q107.481 3.07283 109.224 3.57457Q110.966 4.07631 112.679 4.67098Q114.393 5.26565 116.071 5.95152Q117.75 6.6374 119.389 7.4125Q121.029 8.1876 122.624 9.04968Q124.219 9.91177 125.766 10.8583Q127.313 11.8049 128.806 12.8333Q130.3 13.8616 131.736 14.9687Q133.172 16.0758 134.547 17.2585Q135.922 18.4412 137.231 19.6961Q138.54 20.951 139.779 22.2744Q141.019 23.5978 142.186 24.9859Q143.353 26.374 144.443 27.8229Q145.534 29.2717 146.545 30.777Q147.556 32.2824 148.485 33.8399Q149.413 35.3974 150.257 37.0025Q151.101 38.6077 151.857 40.2559Q152.613 41.904 153.28 43.5905Q153.946 45.2769 154.521 46.9968Q155.096 48.7166 155.578 50.4648Q156.059 52.213 156.446 53.9846Q156.833 55.7562 157.125 57.5461Q157.416 59.3359 157.61 61.1388Q157.805 62.9417 157.903 64.7525Q158 66.5632 158 68.3766L158 68.3766Z" id="Rectangle-74" fill="none" fill-rule="evenodd" stroke="none" />
        <g clip-path="url(#mask_3)">
          <g id="stroke">
            <g clip-path="url(#clip_3)">
              <use xlink:href="#path_6" fill="none" stroke="#3D3F58" stroke-width="8" />
            </g>
          </g>
        </g>
      </g>
      <g id="bot-left" transform="translate(0 149)">
        <path d="M23.5 0.113284L102.136 4.09484Q104.045 4.19151 105.948 4.37703Q107.85 4.56256 109.742 4.83654Q111.634 5.11052 113.511 5.47236Q115.388 5.8342 117.246 6.28312Q119.104 6.73204 120.939 7.26705Q122.774 7.80207 124.583 8.42202Q126.391 9.04198 128.168 9.74552Q129.946 10.4491 131.688 11.2347Q133.431 12.0203 135.135 12.8862Q136.84 13.7522 138.502 14.6966Q140.164 15.6411 141.78 16.6619Q143.396 17.6828 144.963 18.7778Q146.53 19.8729 148.044 21.0398Q149.558 22.2066 151.016 23.4428Q152.474 24.679 153.873 25.9818Q155.272 27.2845 156.608 28.6511Q157.945 30.0176 159.217 31.445Q160.488 32.8723 161.692 34.3574Q162.896 35.8424 164.029 37.382Q165.162 38.9215 166.222 40.5121Q167.282 42.1028 168.267 43.7411Q169.252 45.3795 170.159 47.0619Q171.067 48.7444 171.895 50.4673Q172.723 52.1902 173.47 53.9498Q174.217 55.7094 174.881 57.502Q175.545 59.2945 176.125 61.116Q176.705 62.9375 177.199 64.7841Q177.693 66.6306 178.101 68.4982Q178.509 70.3658 178.829 72.2504Q179.149 74.1349 179.382 76.0324Q179.614 77.9298 179.757 79.836Q179.901 81.7422 179.955 83.653L180.728 110.783Q180.783 112.72 180.742 114.657Q180.7 116.593 180.562 118.526Q180.423 120.458 180.189 122.381Q179.954 124.304 179.624 126.213Q179.293 128.122 178.868 130.012Q178.442 131.902 177.923 133.768Q177.404 135.634 176.792 137.473Q176.18 139.311 175.477 141.116Q174.774 142.921 173.982 144.689Q173.19 146.457 172.31 148.183Q171.43 149.909 170.466 151.589Q169.501 153.269 168.454 154.899Q167.406 156.528 166.279 158.103Q165.151 159.679 163.946 161.196Q162.741 162.713 161.462 164.168Q160.183 165.623 158.833 167.012Q157.483 168.401 156.065 169.721Q154.647 171.041 153.165 172.289Q151.683 173.536 150.14 174.708Q148.598 175.88 146.999 176.974Q145.399 178.067 143.748 179.079Q142.096 180.091 140.395 181.02Q138.695 181.948 136.951 182.791Q135.206 183.633 133.422 184.387Q131.637 185.141 129.817 185.805Q127.997 186.469 126.146 187.041Q124.296 187.613 122.419 188.093Q120.542 188.572 118.643 188.956Q116.744 189.341 114.829 189.63Q112.913 189.92 110.986 190.113Q109.058 190.306 107.123 190.403Q105.188 190.5 103.251 190.5L90.9505 190.5Q89.1863 190.5 87.4238 190.424Q85.6613 190.348 83.9036 190.197Q82.146 190.045 80.3965 189.818Q78.647 189.591 76.9089 189.289Q75.1708 188.987 73.4473 188.61Q71.7238 188.234 70.0181 187.783Q68.3124 187.333 66.6276 186.81Q64.9428 186.286 63.2821 185.691Q61.6214 185.096 59.9879 184.43Q58.3543 183.763 56.7509 183.028Q55.1475 182.292 53.5772 181.488Q52.0069 180.684 50.4727 179.813Q48.9385 178.942 47.4431 178.006Q45.9477 177.07 44.494 176.07Q43.0403 175.071 41.6309 174.01Q40.2215 172.949 38.8591 171.828Q37.4966 170.707 36.1836 169.529Q34.8707 168.351 33.6096 167.117Q32.3485 165.883 31.1416 164.597Q29.9347 163.31 28.7843 161.973Q27.6339 160.635 26.5421 159.249Q25.4503 157.864 24.419 156.432Q23.3878 155.001 22.4191 153.526Q21.4504 152.052 20.546 150.537Q19.6417 149.023 18.8032 147.47Q17.9648 145.918 17.194 144.331Q16.4231 142.744 15.7212 141.126Q15.0193 139.507 14.3876 137.86Q13.756 136.213 13.1958 134.54Q12.6356 132.867 12.1478 131.172Q11.66 129.477 11.2457 127.762Q10.8313 126.047 10.491 124.316L-10.3134 18.4717Q-10.3953 18.0552 -10.454 17.6348Q-10.5128 17.2143 -10.5484 16.7913Q-10.5839 16.3683 -10.596 15.944Q-10.6082 15.5196 -10.5969 15.0953Q-10.5857 14.6709 -10.551 14.2478Q-10.5164 13.8247 -10.4585 13.4042Q-10.4006 12.9836 -10.3196 12.5669Q-10.2386 12.1502 -10.1347 11.7386Q-10.0309 11.327 -9.90451 10.9217Q-9.77813 10.5164 -9.6296 10.1188Q-9.48107 9.72109 -9.31085 9.3322Q-9.14063 8.94331 -8.94923 8.5644Q-8.75782 8.18549 -8.54583 7.8177Q-8.33383 7.44992 -8.10188 7.09438Q-7.86993 6.73884 -7.61873 6.39662Q-7.36754 6.05441 -7.09786 5.72656Q-6.82818 5.39872 -6.54084 5.08624Q-6.2535 4.77375 -5.94937 4.47759Q-5.64524 4.18142 -5.32524 3.90247Q-5.00525 3.62352 -4.67037 3.36263Q-4.33549 3.10174 -3.98673 2.85971Q-3.63797 2.61768 -3.27641 2.39524Q-2.91484 2.1728 -2.54156 1.97063Q-2.16828 1.76846 -1.78443 1.58718Q-1.40057 1.4059 -1.0073 1.24605Q-0.614038 1.0862 -0.212558 0.948271Q0.188921 0.810344 0.597393 0.694758Q1.00587 0.579172 1.42009 0.486278Q1.83431 0.393384 2.25302 0.323466Q2.67174 0.253548 3.09367 0.206817Q3.5156 0.160086 3.93946 0.136685Q4.36333 0.113284 4.78784 0.113284L23.5 0.113284Z" id="Rectangle-74" fill="none" fill-rule="evenodd" stroke="none" />
        <g clip-path="url(#mask_4)">
          <g id="stroke">
            <g clip-path="url(#clip_4)">
              <use xlink:href="#path_8" fill="none" stroke="#3D3F58" stroke-width="8" />
            </g>
          </g>
        </g>
      </g>
      <g id="top-right" transform="translate(119 0)">
        <path d="M53.999 0L78.001 0Q79.3266 0 80.6506 0.0650441Q81.9746 0.130088 83.2938 0.26002Q84.613 0.389951 85.9243 0.584457Q87.2355 0.778964 88.5357 1.03758Q89.8358 1.29619 91.1217 1.61828Q92.4075 1.94038 93.6761 2.32518Q94.9446 2.70998 96.1927 3.15656Q97.4408 3.60314 98.6655 4.11043Q99.8902 4.61771 101.089 5.18448Q102.287 5.75125 103.456 6.37613Q104.625 7.00102 105.762 7.68251Q106.899 8.36401 108.001 9.10047Q109.103 9.83694 110.168 10.6266Q111.233 11.4163 112.258 12.2572Q113.282 13.0982 114.265 13.9884Q115.247 14.8786 116.184 15.8159Q117.121 16.7533 118.012 17.7355Q118.902 18.7177 119.743 19.7424Q120.584 20.7671 121.373 21.8318Q122.163 22.8966 122.9 23.9988Q123.636 25.101 124.317 26.238Q124.999 27.375 125.624 28.544Q126.249 29.7131 126.816 30.9114Q127.382 32.1098 127.89 33.3345Q128.397 34.5592 128.843 35.8073Q129.29 37.0554 129.675 38.3239Q130.06 39.5924 130.382 40.8783Q130.704 42.1642 130.962 43.4643Q131.221 44.7644 131.416 46.0757Q131.61 47.387 131.74 48.7062Q131.87 50.0254 131.935 51.3494Q132 52.6734 132 53.999L132 54.001Q132 55.3266 131.935 56.6506Q131.87 57.9746 131.74 59.2938Q131.61 60.613 131.416 61.9243Q131.221 63.2355 130.962 64.5357Q130.704 65.8358 130.382 67.1217Q130.06 68.4076 129.675 69.6761Q129.29 70.9446 128.843 72.1927Q128.397 73.4408 127.89 74.6655Q127.382 75.8902 126.816 77.0885Q126.249 78.2869 125.624 79.4559Q124.999 80.625 124.317 81.762Q123.636 82.899 122.9 84.0012Q122.163 85.1034 121.373 86.1682Q120.584 87.2329 119.743 88.2576Q118.902 89.2823 118.012 90.2645Q117.121 91.2467 116.184 92.1841Q115.247 93.1214 114.265 94.0116Q113.282 94.9018 112.258 95.7428Q111.233 96.5837 110.168 97.3734Q109.103 98.163 108.001 98.8995Q106.899 99.636 105.762 100.317Q104.625 100.999 103.456 101.624Q102.287 102.249 101.089 102.816Q99.8902 103.382 98.6655 103.89Q97.4408 104.397 96.1927 104.843Q94.9446 105.29 93.6761 105.675Q92.4075 106.06 91.1217 106.382Q89.8358 106.704 88.5357 106.962Q87.2355 107.221 85.9243 107.416Q84.613 107.61 83.2938 107.74Q81.9746 107.87 80.6506 107.935Q79.3266 108 78.001 108L53.999 108Q52.6734 108 51.3494 107.935Q50.0254 107.87 48.7062 107.74Q47.387 107.61 46.0757 107.416Q44.7644 107.221 43.4643 106.962Q42.1642 106.704 40.8783 106.382Q39.5924 106.06 38.3239 105.675Q37.0554 105.29 35.8073 104.843Q34.5592 104.397 33.3345 103.89Q32.1098 103.382 30.9114 102.816Q29.7131 102.249 28.544 101.624Q27.375 100.999 26.238 100.317Q25.101 99.636 23.9988 98.8995Q22.8966 98.163 21.8318 97.3734Q20.7671 96.5837 19.7424 95.7428Q18.7177 94.9018 17.7355 94.0116Q16.7533 93.1214 15.8159 92.1841Q14.8786 91.2467 13.9884 90.2645Q13.0982 89.2823 12.2572 88.2576Q11.4163 87.2329 10.6266 86.1682Q9.83694 85.1034 9.10047 84.0012Q8.36401 82.899 7.68251 81.762Q7.00102 80.625 6.37613 79.4559Q5.75125 78.2869 5.18448 77.0885Q4.61771 75.8902 4.11043 74.6655Q3.60314 73.4408 3.15656 72.1927Q2.70998 70.9446 2.32518 69.6761Q1.94038 68.4076 1.61828 67.1217Q1.29619 65.8358 1.03758 64.5357Q0.778964 63.2355 0.584457 61.9243Q0.389951 60.613 0.26002 59.2938Q0.130088 57.9746 0.0650441 56.6506Q0 55.3266 0 54.001L0 53.999Q0 52.6734 0.0650441 51.3494Q0.130088 50.0254 0.26002 48.7062Q0.389951 47.387 0.584457 46.0757Q0.778964 44.7644 1.03758 43.4643Q1.29619 42.1642 1.61828 40.8783Q1.94038 39.5924 2.32518 38.3239Q2.70998 37.0554 3.15656 35.8073Q3.60314 34.5592 4.11043 33.3345Q4.61771 32.1098 5.18448 30.9114Q5.75125 29.7131 6.37613 28.544Q7.00102 27.375 7.68251 26.238Q8.36401 25.101 9.10047 23.9988Q9.83694 22.8966 10.6266 21.8318Q11.4163 20.7671 12.2572 19.7424Q13.0982 18.7177 13.9884 17.7355Q14.8786 16.7533 15.8159 15.8159Q16.7533 14.8786 17.7355 13.9884Q18.7177 13.0982 19.7424 12.2572Q20.7671 11.4163 21.8318 10.6266Q22.8966 9.83694 23.9988 9.10047Q25.101 8.36401 26.238 7.68251Q27.375 7.00102 28.544 6.37613Q29.7131 5.75125 30.9114 5.18448Q32.1098 4.61771 33.3345 4.11043Q34.5592 3.60314 35.8073 3.15656Q37.0554 2.70998 38.3239 2.32518Q39.5924 1.94038 40.8783 1.61828Q42.1642 1.29619 43.4643 1.03758Q44.7644 0.778964 46.0757 0.584457Q47.387 0.389951 48.7062 0.26002Q50.0254 0.130088 51.3494 0.0650441Q52.6734 0 53.999 0Z" id="Rectangle-74" fill="none" fill-rule="evenodd" stroke="none" />
        <g clip-path="url(#mask_5)">
          <g id="stroke">
            <g clip-path="url(#clip_5)">
              <use xlink:href="#path_10" fill="none" stroke="#3D3F58" stroke-width="8" />
            </g>
          </g>
        </g>
      </g>
    </g>
    <g id="bottle-3" transform="translate(17 16)">
      <path d="M117 258C181.065 258 233 206.065 233 142C233 77.935 212 5 101.926 0.996093C-8.14844 -3.00781 1 77.935 1 142C1 206.065 52.935 258 117 258Z" id="Mask" fill="none" fill-rule="evenodd" stroke="none" />
      <g clip-path="url(#mask_6)">
        <g id="bottle-1" transform="matrix(-0.9781476 -0.2079117 -0.2079117 0.9781476 225.5952 137.0286)">
          <path d="M49.2638 60.179C49.2787 60.4066 49.2862 60.6363 49.2862 60.8679L49.7336 127.217C49.7336 129.312 48.1845 131.01 46.2843 131.01L4.12956 131.01C2.22455 131.01 0.680223 129.306 0.680223 127.217L0.232808 60.8679C0.232808 60.6352 0.240399 60.4045 0.255322 60.1759C0.670815 49.4036 6.79813 40.2622 15.3823 36.3416L16.3028 7.37603L32.7974 7.37603L34.1367 36.3416C42.7217 40.2625 48.8494 49.4054 49.2638 60.179Z" id="shape" fill="#F4F4F6" fill-rule="evenodd" stroke="#2B2E4A" stroke-opacity="0.9019608" stroke-width="3" />
          <path d="M48.4157 61.4007L49.2534 109.393L1.26072 110.231L0.423008 62.2384L48.4157 61.4007Z" id="label" fill="#BFC0C8" fill-rule="evenodd" stroke="#40425C" stroke-width="3" />
          <g id="bars" transform="matrix(-0.99254614 -0.121869355 -0.121869355 0.99254614 39.91442 72.27111)">
            <path d="M14.9365 23.7248L22.2607 17.5792L23.5776 19.1486L16.2535 25.2943L14.9365 23.7248Z" id="bot" fill="#2B2E4A" fill-opacity="0.70000005" fill-rule="evenodd" stroke="none" />
            <path d="M0.267343 23.5297L26.425 1.58082L27.7419 3.15027L1.58427 25.0991L0.267343 23.5297Z" id="center" fill="#2B2E4A" fill-opacity="0.70000005" fill-rule="evenodd" stroke="none" />
            <path d="M2.88686 6.6356L10.211 0.489923L11.5279 2.05938L4.20379 8.20506L2.88686 6.6356Z" id="top" fill="#2B2E4A" fill-opacity="0.70000005" fill-rule="evenodd" stroke="none" />
          </g>
          <path d="M29.7664 0.162294C34.9835 0.162294 35.3707 7.37603 35.3707 7.37603L13.7295 7.37603C13.7295 7.37603 14.7486 0.162294 18.1998 0.162294C21.651 0.162294 24.5493 0.162294 29.7664 0.162294Z" id="cap" fill="#2B2E4A" fill-opacity="0.29803923" fill-rule="evenodd" stroke="#40425C" stroke-width="3" />
          <g id="shadow" transform="matrix(-1 0 0 1 85.78192 0.737586)" opacity="0.1">
            <path d="M-9.9476e-14 5L60.7741 0.965704L59.687 128.947L-9.9476e-14 128L-9.9476e-14 5Z" id="Mask" fill="none" fill-rule="evenodd" stroke="none" />
            <g clip-path="url(#mask_7)">
              <path d="M52.9659 31.514L52.764 -11.2327L54.8781 -15.2786L73.194 -15.2786L74.5074 30.527C83.9173 34.3581 90.5506 43.5952 90.5506 54.3816C90.5506 57.5921 89.9629 60.6654 88.8893 63.4996L88.2899 155.634Q88.2887 155.83 88.2683 156.024Q88.2479 156.219 88.2087 156.411Q88.1694 156.602 88.1116 156.789Q88.0539 156.976 87.9781 157.156Q87.9024 157.337 87.8094 157.509Q87.7164 157.681 87.607 157.843Q87.4977 158.005 87.373 158.156Q87.2483 158.307 87.1095 158.445Q86.9708 158.583 86.8192 158.707Q86.6676 158.83 86.5046 158.938Q86.3417 159.047 86.169 159.139Q85.9962 159.231 85.8154 159.305Q85.6345 159.38 85.4472 159.436Q85.2599 159.493 85.068 159.531Q84.8761 159.569 84.6814 159.588Q84.4867 159.607 84.291 159.607L42.3368 159.607Q41.9413 159.607 41.5535 159.53Q41.1656 159.452 40.8005 159.3Q40.4353 159.148 40.107 158.928Q39.7787 158.707 39.4999 158.427Q39.2212 158.146 39.0028 157.816Q38.7844 157.486 38.6348 157.12Q38.4852 156.754 38.4103 156.366Q38.3353 155.978 38.3379 155.582L39.0275 49.5718Q39.0306 49.1003 39.1218 48.6377Q39.213 48.1751 39.389 47.7377Q39.5651 47.3003 39.8198 46.9035Q40.0746 46.5067 40.399 46.1646C42.538 39.8089 47.09 34.5623 52.9659 31.514Z" id="shape" fill="#202338" fill-rule="evenodd" stroke="none" />
            </g>
          </g>
        </g>
      </g>
    </g>
    <g id="bottle-2" transform="translate(25 14)">
      <path d="M121 257C185.125 257 225 206.065 225 142C225 77.935 212 5 101.926 0.996093C-8.14844 -3.00781 1 77.935 1 142C1 206.065 56.875 257 121 257Z" id="Mask" fill="none" fill-rule="evenodd" stroke="none" />
      <g clip-path="url(#mask_8)">
        <g id="bottle-1" transform="matrix(-0.99939084 -0.034899496 -0.034899496 0.99939084 200.55017 90.042145)">
          <path d="M99.6452 82.7039C99.6621 82.9637 99.6707 83.226 99.6707 83.4905L99.8628 177.521C99.8628 179.913 98.0939 181.852 95.924 181.852L47.7882 181.852C45.6129 181.852 43.8495 179.906 43.8495 177.521L43.6574 83.4905C43.6574 83.2248 43.6661 82.9613 43.6831 82.7003C44.1576 70.3996 51.1543 59.9611 60.9564 55.4843L62.2467 8.70843L81.0815 8.70843L82.3718 55.4843C92.1749 59.9615 99.1719 70.4016 99.6452 82.7039Z" id="shape" fill="#F4F4F6" fill-rule="evenodd" stroke="#2B2E4A" stroke-opacity="0.9019608" stroke-width="3" />
          <path d="M99.6708 84.4911L99.6708 140.504L43.6574 140.504L43.6574 84.4911L99.6708 84.4911Z" id="label" fill="#BFC0C8" fill-rule="evenodd" stroke="#40425C" stroke-width="3" />
          <g id="bars" transform="matrix(-0.98768836 -0.15643446 -0.15643446 0.98768836 91.09834 101.05735)">
            <path d="M18.1961 25.9401L27.1333 18.4409L28.7402 20.356L19.8031 27.8552L18.1961 25.9401Z" id="bot" fill="#2B2E4A" fill-opacity="0.70000005" fill-rule="evenodd" stroke="none" />
            <path d="M0.696083 26.8904L32.6146 0.107574L34.2216 2.02269L2.30305 28.8055L0.696083 26.8904Z" id="center" fill="#2B2E4A" fill-opacity="0.70000005" fill-rule="evenodd" stroke="none" />
            <path d="M5.69608 7.60676L14.6333 0.107574L16.2402 2.02269L7.30305 9.52187L5.69608 7.60676Z" id="top" fill="#2B2E4A" fill-opacity="0.70000005" fill-rule="evenodd" stroke="none" />
          </g>
          <path d="M77.6205 0.471176C83.5778 0.471176 84.02 8.70843 84.02 8.70843L59.3082 8.70843C59.3082 8.70843 60.4719 0.471176 64.4128 0.471176C68.3536 0.471176 71.6632 0.471176 77.6205 0.471176Z" id="cap" fill="#2B2E4A" fill-opacity="0.29803923" fill-rule="evenodd" stroke="#40425C" stroke-width="3" />
          <g id="shadow" transform="translate(0.63128453 0.0018604724)" opacity="0.1">
            <path d="M1.13687e-13 0L71.6007 0L71.6007 209.226L1.13687e-13 209.226L1.13687e-13 0Z" id="Mask" fill="none" fill-rule="evenodd" stroke="none" />
            <g clip-path="url(#mask_9)">
              <path d="M60.4809 54.2555L60.2504 5.44368L62.6644 0.823725L83.579 0.823725L85.0788 53.1285C95.8238 57.5031 103.398 68.0508 103.398 80.3676C103.398 84.0336 102.727 87.5429 101.501 90.7794L100.813 196.55Q100.812 196.746 100.792 196.94Q100.771 197.135 100.732 197.326Q100.693 197.518 100.635 197.705Q100.577 197.892 100.501 198.072Q100.426 198.253 100.333 198.425Q100.24 198.597 100.13 198.759Q100.021 198.921 99.8963 199.072Q99.7716 199.223 99.6328 199.361Q99.494 199.499 99.3424 199.622Q99.1909 199.746 99.0279 199.854Q98.865 199.963 98.6923 200.055Q98.5195 200.146 98.3386 200.221Q98.1578 200.296 97.9705 200.352Q97.7832 200.409 97.5913 200.447Q97.3994 200.485 97.2047 200.504Q97.01 200.523 96.8143 200.523L47.7727 200.523Q47.3771 200.523 46.9893 200.445Q46.6015 200.368 46.2363 200.216Q45.8711 200.064 45.5428 199.844Q45.2145 199.623 44.9358 199.342Q44.657 199.062 44.4386 198.732Q44.2202 198.402 44.0706 198.036Q43.9211 197.67 43.8461 197.282Q43.7712 196.893 43.7737 196.498L44.5695 74.1707Q44.5713 73.9011 44.602 73.6333Q44.6328 73.3654 44.6921 73.1024Q44.7515 72.8395 44.8388 72.5844Q44.9261 72.3293 45.0403 72.0851Q45.1545 71.8409 45.2944 71.6104Q45.4342 71.3799 45.598 71.1658Q45.7618 70.9517 45.9477 70.7564Q46.1336 70.5612 46.3394 70.387C48.8613 63.3987 53.9564 57.6403 60.4809 54.2555Z" id="shape" fill="#202338" fill-rule="evenodd" stroke="none" />
            </g>
          </g>
        </g>
      </g>
    </g>
    <g id="bottle-1" transform="translate(34 14)">
      <path d="M113 258C177.065 258 229 206.065 229 142C229 77.935 217.074 4.875 107 0.871094C-3.07422 -3.13281 0.984375 82.767 0.984375 146.832C0.984375 210.897 48.935 258 113 258Z" id="Mask" fill="none" fill-rule="evenodd" stroke="none" />
      <g clip-path="url(#mask_10)">
        <g id="bottle-1" transform="matrix(0.9848077 -0.17364818 0.17364818 0.9848077 -58.134186 62.435135)">
          <path d="M120.969 102.83C120.99 103.146 121 103.464 121 103.785L121.233 217.937C121.233 220.841 119.086 223.195 116.452 223.195L58.0148 223.195C55.3739 223.195 53.2331 220.833 53.2331 217.937L53 103.785C53 103.463 53.0105 103.143 53.0312 102.826C53.6072 87.8929 62.1011 75.2206 74.0009 69.7857L75.5673 13L98.4328 13L99.9991 69.7857C111.9 75.2211 120.394 87.8953 120.969 102.83Z" id="shape" fill="#F4F4F6" fill-rule="evenodd" stroke="#2B2E4A" stroke-opacity="0.9019608" stroke-width="3" />
          <g id="label" transform="translate(53 105)">
            <path d="M68 2.84217e-14L68 68L-1.06581e-13 68L-1.06581e-13 2.84217e-14L68 2.84217e-14Z" id="label" fill="#BFC0C8" fill-rule="evenodd" stroke="#40425C" stroke-width="3" />
            <path d="M35.7789 45.8048L46.5035 36.8058L48.4319 39.1039L37.7073 48.1029L35.7789 45.8048Z" id="bot" fill="#2B2E4A" fill-opacity="0.70000005" fill-rule="evenodd" stroke="none" />
            <path d="M14.7789 46.9452L53.0811 14.8058L55.0095 17.1039L16.7073 49.2433L14.7789 46.9452Z" id="center" fill="#2B2E4A" fill-opacity="0.70000005" fill-rule="evenodd" stroke="none" />
            <path d="M20.7789 23.8048L31.5035 14.8058L33.4319 17.1039L22.7073 26.1029L20.7789 23.8048Z" id="top" fill="#2B2E4A" fill-opacity="0.70000005" fill-rule="evenodd" stroke="none" />
          </g>
          <path d="M94.2311 3C101.463 3 102 13 102 13L72 13C72 13 73.4127 3 78.1969 3C82.9811 3 86.999 3 94.2311 3Z" id="cap" fill="#2B2E4A" fill-opacity="0.29803923" fill-rule="evenodd" stroke="#40425C" stroke-width="3" />
          <g id="shadow" transform="matrix(1 0 0 1 -4.2632564E-14 -8.526513E-14)" opacity="0.1">
            <path d="M1.42109e-14 -2.84217e-14L86.9231 -2.84217e-14L86.9231 254L1.42109e-14 254L1.42109e-14 -2.84217e-14Z" id="Mask" fill="none" fill-rule="evenodd" stroke="none" />
            <g clip-path="url(#mask_11)">
              <path d="M73.4236 65.866L73.1438 6.60861L76.0744 1L101.465 1L103.285 64.4978C116.33 69.8086 125.525 82.6135 125.525 97.5661C125.525 102.017 124.711 106.277 123.222 110.206L122.381 239.461Q122.38 239.657 122.36 239.851Q122.339 240.046 122.3 240.238Q122.261 240.429 122.203 240.616Q122.145 240.803 122.07 240.984Q121.994 241.164 121.901 241.336Q121.808 241.508 121.698 241.67Q121.589 241.833 121.464 241.983Q121.34 242.134 121.201 242.272Q121.062 242.41 120.911 242.534Q120.759 242.657 120.596 242.766Q120.433 242.874 120.26 242.966Q120.088 243.058 119.907 243.132Q119.726 243.207 119.539 243.263Q119.351 243.32 119.159 243.358Q118.968 243.396 118.773 243.415Q118.578 243.434 118.383 243.434L57.1345 243.434Q56.739 243.434 56.3511 243.357Q55.9633 243.279 55.5981 243.127Q55.233 242.975 54.9047 242.755Q54.5764 242.534 54.2976 242.254Q54.0188 241.973 53.8004 241.643Q53.5821 241.314 53.4325 240.947Q53.2829 240.581 53.208 240.193Q53.133 239.805 53.1356 239.409L54.1142 88.9802Q54.1163 88.6613 54.1588 88.3453Q54.2014 88.0293 54.2838 87.7212Q54.3662 87.4131 54.487 87.1181Q54.6079 86.823 54.7653 86.5456Q54.9226 86.2683 55.114 86.0132Q55.3053 85.7581 55.5275 85.5294Q55.7497 85.3006 55.9992 85.102Q56.2486 84.9034 56.5213 84.738C59.6665 76.5752 65.7255 69.8597 73.4236 65.866Z" id="shape" fill="#202338" fill-rule="evenodd" stroke="none" />
            </g>
          </g>
        </g>
      </g>
    </g>
    <g id="flare-bot-right" transform="matrix(0.9396926 -0.34202012 0.34202012 0.9396926 207.41833 267.68707)">
      <path d="M16.5 6C17.8807 6 19 4.88071 19 3.5C19 2.11929 17.8807 1 16.5 1C15.1193 1 14 2.11929 14 3.5C14 4.88071 15.1193 6 16.5 6Z" id="big-dot" fill="none" fill-rule="evenodd" stroke="#2B2E4A" stroke-width="2" />
      <path d="M5 10C6.10457 10 7 9.10457 7 8C7 6.89543 6.10457 6 5 6C3.89543 6 3 6.89543 3 8C3 9.10457 3.89543 10 5 10Z" id="sm-dot" fill="#2B2E4A" fill-rule="evenodd" stroke="none" />
      <g id="+" fill="#2B2E4A" transform="matrix(0.7880108 -0.6156615 0.6156615 0.7880108 0.87384415 6.208353)">
        <path d="M4.34659 13.7088L4.34659 10.7898L1.42756 10.7898L1.42756 9.59659L4.34659 9.59659L4.34659 6.67756L5.53977 6.67756L5.53977 9.59659L8.45881 9.59659L8.45881 10.7898L5.53977 10.7898L5.53977 13.7088L4.34659 13.7088Z" />
      </g>
    </g>
    <g id="flare-inner" transform="translate(100 67)">
      <g id="+" fill="#2B2E4A" transform="matrix(0.95105654 -0.309017 0.309017 0.95105654 71.0047 63.18605)">
        <path d="M4.34659 13.7088L4.34659 10.7898L1.42756 10.7898L1.42756 9.59659L4.34659 9.59659L4.34659 6.67756L5.53977 6.67756L5.53977 9.59659L8.45881 9.59659L8.45881 10.7898L5.53977 10.7898L5.53977 13.7088L4.34659 13.7088Z" />
      </g>
      <g id="+" fill="#2B2E4A" transform="matrix(0.9975641 -0.06975647 0.06975647 0.9975641 0.006877959 0.8916185)">
        <path d="M5.21591 16.6506L5.21591 13.1477L1.71307 13.1477L1.71307 11.7159L5.21591 11.7159L5.21591 8.21307L6.64773 8.21307L6.64773 11.7159L10.1506 11.7159L10.1506 13.1477L6.64773 13.1477L6.64773 16.6506L5.21591 16.6506Z" />
      </g>
      <path d="M16.416 56.1284C17.7967 56.1284 18.916 55.0091 18.916 53.6284C18.916 52.2477 17.7967 51.1284 16.416 51.1284C15.0353 51.1284 13.916 52.2477 13.916 53.6284C13.916 55.0091 15.0353 56.1284 16.416 56.1284Z" id="big-dot" fill="none" fill-rule="evenodd" stroke="#2B2E4A" stroke-width="2" />
      <path d="M84.416 29.1284C86.349 29.1284 87.916 27.5614 87.916 25.6284C87.916 23.6954 86.349 22.1284 84.416 22.1284C82.483 22.1284 80.916 23.6954 80.916 25.6284C80.916 27.5614 82.483 29.1284 84.416 29.1284Z" id="big-dot" fill="none" fill-rule="evenodd" stroke="#2B2E4A" stroke-width="2" />
      <path d="M111.289 56.9311C112.394 56.9311 113.289 56.0357 113.289 54.9311C113.289 53.8265 112.394 52.9311 111.289 52.9311C110.185 52.9311 109.289 53.8265 109.289 54.9311C109.289 56.0357 110.185 56.9311 111.289 56.9311Z" id="sm-dot" fill="#2B2E4A" fill-rule="evenodd" stroke="none" />
    </g>
    <g id="flare-top-left" transform="matrix(0.5877853 0.809017 -0.809017 0.5877853 35.26538 38.03997)">
      <path d="M8.35447 17.8339C6.75672 17.1225 3.74333 19.5908 0.749463 19.649C-0.377312 19.671 -0.871419 18.384 -0.00990811 17.6574C2.23241 15.7663 6.04698 15.7101 6.75187 14.1269C7.42203 12.6217 4.87521 9.53678 4.85491 6.57421C4.84791 5.55238 6.01311 5.10024 6.68984 5.86589C8.6318 8.06302 8.52123 11.948 10.1194 12.6595C11.6509 13.3414 14.9105 10.8138 17.9494 10.8566C18.9473 10.8706 19.3807 12.0049 18.6203 12.6514C16.4526 14.4947 12.5567 14.4757 11.9192 15.9075C11.1733 17.5828 13.6777 20.7051 13.6554 23.7913C13.6475 24.8856 12.3984 25.3576 11.7036 24.5122C9.88559 22.3002 9.82316 18.4878 8.35447 17.8339Z" id="Rectangle-123" fill="none" fill-rule="evenodd" stroke="#3D3F58" stroke-width="2" />
      <path d="M14 4C15.1046 4 16 3.10457 16 2C16 0.895431 15.1046 2.4869e-14 14 2.4869e-14C12.8954 2.4869e-14 12 0.895431 12 2C12 3.10457 12.8954 4 14 4Z" id="sm-dot" fill="#2B2E4A" fill-rule="evenodd" stroke="none" />
      <path d="M21.7426 24.1924C23.1234 24.1924 24.2426 23.0731 24.2426 21.6924C24.2426 20.3117 23.1234 19.1924 21.7426 19.1924C20.3619 19.1924 19.2426 20.3117 19.2426 21.6924C19.2426 23.0731 20.3619 24.1924 21.7426 24.1924Z" id="big-dot" fill="none" fill-rule="evenodd" stroke="#2B2E4A" stroke-width="2" />
    </g>
  </g>
</svg>