<?xml version="1.0" encoding="utf-8"?>
<svg width="228px" height="291px" viewBox="0 0 228 291" version="1.1" xmlns:xlink="http://www.w3.org/1999/xlink" xmlns="http://www.w3.org/2000/svg">
  <defs>
    <filter filterUnits="userSpaceOnUse" color-interpolation-filters="sRGB" id="filter_1">
      <feFlood flood-opacity="0" result="BackgroundImageFix" />
      <feColorMatrix in="SourceAlpha" type="matrix" values="0 0 0 0 0 0 0 0 0 0 0 0 0 0 0 0 0 0 127 0" />
      <feOffset dx="0" dy="3" />
      <feGaussianBlur stdDeviation="0" />
      <feColorMatrix type="matrix" values="0 0 0 0 0.16862746 0 0 0 0 0.18039216 0 0 0 0 0.2901961 0 0 0 1 0" />
      <feBlend mode="normal" in2="BackgroundImageFix" result="effect0_dropShadow" />
      <feBlend mode="normal" in="SourceGraphic" in2="effect0_dropShadow" result="shape" />
    </filter>
    <path d="M3.999 0L161.001 0Q161.197 0 161.393 0.0192563Q161.588 0.0385126 161.781 0.0768396Q161.974 0.115167 162.162 0.172196Q162.35 0.229224 162.531 0.304406Q162.713 0.379587 162.886 0.472197Q163.059 0.564807 163.223 0.673953Q163.386 0.783099 163.538 0.907731Q163.69 1.03236 163.829 1.17128Q163.968 1.3102 164.092 1.46206Q164.217 1.61393 164.326 1.77727Q164.435 1.94062 164.528 2.11388Q164.62 2.28715 164.696 2.46865Q164.771 2.65015 164.828 2.83815Q164.885 3.02615 164.923 3.21883Q164.961 3.41152 164.981 3.60703Q165 3.80254 165 3.999L165 264.001Q165 264.197 164.981 264.393Q164.961 264.589 164.923 264.781Q164.885 264.974 164.828 265.162Q164.771 265.35 164.696 265.531Q164.62 265.713 164.528 265.886Q164.435 266.059 164.326 266.223Q164.217 266.386 164.092 266.538Q163.968 266.69 163.829 266.829Q163.69 266.968 163.538 267.092Q163.386 267.217 163.223 267.326Q163.059 267.435 162.886 267.528Q162.713 267.62 162.531 267.696Q162.35 267.771 162.162 267.828Q161.974 267.885 161.781 267.923Q161.588 267.962 161.393 267.981Q161.197 268 161.001 268L3.999 268Q3.80254 268 3.60703 267.981Q3.41152 267.962 3.21883 267.923Q3.02615 267.885 2.83815 267.828Q2.65015 267.771 2.46865 267.696Q2.28715 267.62 2.11388 267.528Q1.94062 267.435 1.77727 267.326Q1.61393 267.217 1.46206 267.092Q1.3102 266.968 1.17128 266.829Q1.03236 266.69 0.907731 266.538Q0.783099 266.386 0.673953 266.223Q0.564807 266.059 0.472197 265.886Q0.379587 265.713 0.304406 265.531Q0.229224 265.35 0.172196 265.162Q0.115167 264.974 0.0768396 264.781Q0.0385126 264.589 0.0192563 264.393Q0 264.197 0 264.001L0 3.999Q0 3.80254 0.0192563 3.60703Q0.0385126 3.41152 0.0768396 3.21883Q0.115167 3.02615 0.172196 2.83815Q0.229224 2.65015 0.304406 2.46865Q0.379587 2.28715 0.472197 2.11388Q0.564807 1.94062 0.673953 1.77727Q0.783099 1.61393 0.907731 1.46206Q1.03236 1.3102 1.17128 1.17128Q1.3102 1.03236 1.46206 0.907731Q1.61393 0.783099 1.77727 0.673953Q1.94062 0.564807 2.11388 0.472197Q2.28715 0.379587 2.46865 0.304406Q2.65015 0.229224 2.83815 0.172196Q3.02615 0.115167 3.21883 0.0768396Q3.41152 0.0385126 3.60703 0.0192563Q3.80254 0 3.999 0Z" id="path_1" />
    <path d="M1.999 0L158.601 0Q158.699 0 158.797 0.00962573Q158.895 0.0192515 158.991 0.0384102Q159.087 0.057569 159.181 0.0860763Q159.275 0.114584 159.366 0.152165Q159.457 0.189746 159.543 0.236039Q159.63 0.282333 159.712 0.336892Q159.793 0.391452 159.869 0.453752Q159.945 0.516052 160.015 0.585494Q160.084 0.654935 160.146 0.730848Q160.209 0.806761 160.263 0.888415Q160.318 0.970069 160.364 1.05668Q160.41 1.14329 160.448 1.23402Q160.485 1.32474 160.514 1.41872Q160.542 1.5127 160.562 1.60901Q160.581 1.70533 160.59 1.80306Q160.6 1.9008 160.6 1.999L160.6 222L-1.04213e-14 222L-1.04213e-14 1.999Q-1.04213e-14 1.9008 0.00962573 1.80306Q0.0192515 1.70533 0.0384102 1.60901Q0.057569 1.5127 0.0860763 1.41872Q0.114584 1.32474 0.152165 1.23402Q0.189746 1.14329 0.236039 1.05668Q0.282333 0.970069 0.336892 0.888415Q0.391452 0.806761 0.453752 0.730848Q0.516052 0.654935 0.585494 0.585494Q0.654935 0.516052 0.730848 0.453752Q0.806761 0.391452 0.888415 0.336892Q0.970069 0.282333 1.05668 0.236039Q1.14329 0.189746 1.23402 0.152165Q1.32474 0.114584 1.41872 0.0860763Q1.5127 0.057569 1.60901 0.0384102Q1.70533 0.0192515 1.80306 0.00962573Q1.9008 0 1.999 0L1.999 0Z" id="path_2" />
    <path d="M0 -2.84217e-14L63.7436 -2.84217e-14L63.7436 254L0 254L0 -2.84217e-14Z" id="path_3" />
    <path d="M3.999 0L181.001 0Q181.197 0 181.393 0.0192563Q181.588 0.0385126 181.781 0.0768396Q181.974 0.115167 182.162 0.172196Q182.35 0.229224 182.531 0.304406Q182.713 0.379587 182.886 0.472197Q183.059 0.564807 183.223 0.673953Q183.386 0.783099 183.538 0.907731Q183.69 1.03236 183.829 1.17128Q183.968 1.3102 184.092 1.46206Q184.217 1.61393 184.326 1.77727Q184.435 1.94062 184.528 2.11388Q184.62 2.28715 184.696 2.46865Q184.771 2.65015 184.828 2.83815Q184.885 3.02615 184.923 3.21883Q184.961 3.41152 184.981 3.60703Q185 3.80254 185 3.999L185 264.001Q185 264.197 184.981 264.393Q184.961 264.589 184.923 264.781Q184.885 264.974 184.828 265.162Q184.771 265.35 184.696 265.531Q184.62 265.713 184.528 265.886Q184.435 266.059 184.326 266.223Q184.217 266.386 184.092 266.538Q183.968 266.69 183.829 266.829Q183.69 266.968 183.538 267.092Q183.386 267.217 183.223 267.326Q183.059 267.435 182.886 267.528Q182.713 267.62 182.531 267.696Q182.35 267.771 182.162 267.828Q181.974 267.885 181.781 267.923Q181.588 267.962 181.393 267.981Q181.197 268 181.001 268L3.999 268Q3.80254 268 3.60703 267.981Q3.41152 267.962 3.21883 267.923Q3.02615 267.885 2.83815 267.828Q2.65015 267.771 2.46865 267.696Q2.28715 267.62 2.11388 267.528Q1.94062 267.435 1.77727 267.326Q1.61393 267.217 1.46206 267.092Q1.3102 266.968 1.17128 266.829Q1.03236 266.69 0.907731 266.538Q0.783099 266.386 0.673953 266.223Q0.564807 266.059 0.472197 265.886Q0.379587 265.713 0.304406 265.531Q0.229224 265.35 0.172196 265.162Q0.115167 264.974 0.0768396 264.781Q0.0385126 264.589 0.0192563 264.393Q0 264.197 0 264.001L0 3.999Q0 3.80254 0.0192563 3.60703Q0.0385126 3.41152 0.0768396 3.21883Q0.115167 3.02615 0.172196 2.83815Q0.229224 2.65015 0.304406 2.46865Q0.379587 2.28715 0.472197 2.11388Q0.564807 1.94062 0.673953 1.77727Q0.783099 1.61393 0.907731 1.46206Q1.03236 1.3102 1.17128 1.17128Q1.3102 1.03236 1.46206 0.907731Q1.61393 0.783099 1.77727 0.673953Q1.94062 0.564807 2.11388 0.472197Q2.28715 0.379587 2.46865 0.304406Q2.65015 0.229224 2.83815 0.172196Q3.02615 0.115167 3.21883 0.0768396Q3.41152 0.0385126 3.60703 0.0192563Q3.80254 0 3.999 0Z" id="path_4" />
    <path d="M1.999 0L178.068 0Q178.166 0 178.264 0.00962573Q178.361 0.0192515 178.458 0.0384102Q178.554 0.057569 178.648 0.0860763Q178.742 0.114584 178.833 0.152165Q178.923 0.189746 179.01 0.236039Q179.097 0.282333 179.178 0.336892Q179.26 0.391452 179.336 0.453752Q179.412 0.516052 179.481 0.585494Q179.551 0.654935 179.613 0.730848Q179.675 0.806761 179.73 0.888415Q179.784 0.970069 179.831 1.05668Q179.877 1.14329 179.914 1.23402Q179.952 1.32474 179.981 1.41872Q180.009 1.5127 180.028 1.60901Q180.047 1.70533 180.057 1.80306Q180.067 1.9008 180.067 1.999L180.067 222L-1.16845e-14 222L-1.16845e-14 1.999Q-1.16845e-14 1.9008 0.00962573 1.80306Q0.0192515 1.70533 0.0384102 1.60901Q0.057569 1.5127 0.0860763 1.41872Q0.114584 1.32474 0.152165 1.23402Q0.189746 1.14329 0.236039 1.05668Q0.282333 0.970069 0.336892 0.888415Q0.391452 0.806761 0.453752 0.730848Q0.516052 0.654935 0.585494 0.585494Q0.654935 0.516052 0.730848 0.453752Q0.806761 0.391452 0.888415 0.336892Q0.970069 0.282333 1.05668 0.236039Q1.14329 0.189746 1.23402 0.152165Q1.32474 0.114584 1.41872 0.0860763Q1.5127 0.057569 1.60901 0.0384102Q1.70533 0.0192515 1.80306 0.00962573Q1.9008 0 1.999 0L1.999 0Z" id="path_5" />
    <path d="M0 -2.84217e-14L71.4701 -2.84217e-14L71.4701 254L0 254L0 -2.84217e-14Z" id="path_6" />
    <path d="M3.999 0L201.001 0Q201.197 0 201.393 0.0192563Q201.589 0.0385126 201.781 0.0768396Q201.974 0.115167 202.162 0.172196Q202.35 0.229224 202.531 0.304406Q202.713 0.379587 202.886 0.472197Q203.059 0.564807 203.223 0.673953Q203.386 0.783099 203.538 0.907731Q203.69 1.03236 203.829 1.17128Q203.968 1.3102 204.092 1.46206Q204.217 1.61393 204.326 1.77727Q204.435 1.94062 204.528 2.11388Q204.62 2.28715 204.696 2.46865Q204.771 2.65015 204.828 2.83815Q204.885 3.02615 204.923 3.21883Q204.961 3.41152 204.981 3.60703Q205 3.80254 205 3.999L205 264.001Q205 264.197 204.981 264.393Q204.961 264.589 204.923 264.781Q204.885 264.974 204.828 265.162Q204.771 265.35 204.696 265.531Q204.62 265.713 204.528 265.886Q204.435 266.059 204.326 266.223Q204.217 266.386 204.092 266.538Q203.968 266.69 203.829 266.829Q203.69 266.968 203.538 267.092Q203.386 267.217 203.223 267.326Q203.059 267.435 202.886 267.528Q202.713 267.62 202.531 267.696Q202.35 267.771 202.162 267.828Q201.974 267.885 201.781 267.923Q201.588 267.962 201.393 267.981Q201.197 268 201.001 268L3.999 268Q3.80254 268 3.60703 267.981Q3.41152 267.962 3.21883 267.923Q3.02615 267.885 2.83815 267.828Q2.65015 267.771 2.46865 267.696Q2.28715 267.62 2.11388 267.528Q1.94062 267.435 1.77727 267.326Q1.61393 267.217 1.46206 267.092Q1.3102 266.968 1.17128 266.829Q1.03236 266.69 0.907731 266.538Q0.783099 266.386 0.673953 266.223Q0.564807 266.059 0.472197 265.886Q0.379587 265.713 0.304406 265.531Q0.229224 265.35 0.172196 265.162Q0.115167 264.974 0.0768396 264.781Q0.0385126 264.589 0.0192563 264.393Q0 264.197 0 264.001L0 3.999Q0 3.80254 0.0192563 3.60703Q0.0385126 3.41152 0.0768396 3.21883Q0.115167 3.02615 0.172196 2.83815Q0.229224 2.65015 0.304406 2.46865Q0.379587 2.28715 0.472197 2.11388Q0.564807 1.94062 0.673953 1.77727Q0.783099 1.61393 0.907731 1.46206Q1.03236 1.3102 1.17128 1.17128Q1.3102 1.03236 1.46206 0.907731Q1.61393 0.783099 1.77727 0.673953Q1.94062 0.564807 2.11388 0.472197Q2.28715 0.379587 2.46865 0.304406Q2.65015 0.229224 2.83815 0.172196Q3.02615 0.115167 3.21883 0.0768396Q3.41152 0.0385126 3.60703 0.0192563Q3.80254 0 3.999 0L3.999 0Z" id="path_7" />
    <path d="M1.999 0L197.534 0Q197.633 0 197.73 0.00962573Q197.828 0.0192515 197.924 0.0384102Q198.021 0.057569 198.115 0.0860763Q198.209 0.114584 198.299 0.152165Q198.39 0.189746 198.477 0.236039Q198.563 0.282333 198.645 0.336892Q198.727 0.391452 198.802 0.453752Q198.878 0.516052 198.948 0.585494Q199.017 0.654935 199.08 0.730848Q199.142 0.806761 199.196 0.888415Q199.251 0.970069 199.297 1.05668Q199.344 1.14329 199.381 1.23402Q199.419 1.32474 199.447 1.41872Q199.476 1.5127 199.495 1.60901Q199.514 1.70533 199.524 1.80306Q199.533 1.9008 199.533 1.999L199.533 222L-1.29477e-14 222L-1.29477e-14 1.999Q-1.29477e-14 1.9008 0.00962573 1.80306Q0.0192515 1.70533 0.0384102 1.60901Q0.057569 1.5127 0.0860763 1.41872Q0.114584 1.32474 0.152165 1.23402Q0.189746 1.14329 0.236039 1.05668Q0.282333 0.970069 0.336892 0.888415Q0.391452 0.806761 0.453752 0.730848Q0.516052 0.654935 0.585494 0.585494Q0.654935 0.516052 0.730848 0.453752Q0.806761 0.391452 0.888415 0.336892Q0.970069 0.282333 1.05668 0.236039Q1.14329 0.189746 1.23402 0.152165Q1.32474 0.114584 1.41872 0.0860763Q1.5127 0.057569 1.60901 0.0384102Q1.70533 0.0192515 1.80306 0.00962573Q1.9008 0 1.999 0L1.999 0Z" id="path_8" />
    <path d="M0 -2.84217e-14L79.1966 -2.84217e-14L79.1966 254L0 254L0 -2.84217e-14Z" id="path_9" />
    <path d="M3.999 0L221.001 0Q221.197 0 221.393 0.0192563Q221.588 0.0385126 221.781 0.0768396Q221.974 0.115167 222.162 0.172196Q222.35 0.229224 222.531 0.304406Q222.713 0.379587 222.886 0.472197Q223.059 0.564807 223.223 0.673953Q223.386 0.783099 223.538 0.907731Q223.69 1.03236 223.829 1.17128Q223.968 1.3102 224.092 1.46206Q224.217 1.61393 224.326 1.77727Q224.435 1.94062 224.528 2.11388Q224.62 2.28715 224.696 2.46865Q224.771 2.65015 224.828 2.83815Q224.885 3.02615 224.923 3.21883Q224.962 3.41152 224.981 3.60703Q225 3.80254 225 3.999L225 264.001Q225 264.197 224.981 264.393Q224.962 264.589 224.923 264.781Q224.885 264.974 224.828 265.162Q224.771 265.35 224.696 265.531Q224.62 265.713 224.528 265.886Q224.435 266.059 224.326 266.223Q224.217 266.386 224.092 266.538Q223.968 266.69 223.829 266.829Q223.69 266.968 223.538 267.092Q223.386 267.217 223.223 267.326Q223.059 267.435 222.886 267.528Q222.713 267.62 222.531 267.696Q222.35 267.771 222.162 267.828Q221.974 267.885 221.781 267.923Q221.588 267.962 221.393 267.981Q221.197 268 221.001 268L3.999 268Q3.80254 268 3.60703 267.981Q3.41152 267.962 3.21883 267.923Q3.02615 267.885 2.83815 267.828Q2.65015 267.771 2.46865 267.696Q2.28715 267.62 2.11388 267.528Q1.94062 267.435 1.77727 267.326Q1.61393 267.217 1.46206 267.092Q1.3102 266.968 1.17128 266.829Q1.03236 266.69 0.907731 266.538Q0.783099 266.386 0.673953 266.223Q0.564807 266.059 0.472197 265.886Q0.379587 265.713 0.304406 265.531Q0.229224 265.35 0.172196 265.162Q0.115167 264.974 0.0768396 264.781Q0.0385126 264.589 0.0192563 264.393Q0 264.197 0 264.001L0 3.999Q0 3.80254 0.0192563 3.60703Q0.0385126 3.41152 0.0768396 3.21883Q0.115167 3.02615 0.172196 2.83815Q0.229224 2.65015 0.304406 2.46865Q0.379587 2.28715 0.472197 2.11388Q0.564807 1.94062 0.673953 1.77727Q0.783099 1.61393 0.907731 1.46206Q1.03236 1.3102 1.17128 1.17128Q1.3102 1.03236 1.46206 0.907731Q1.61393 0.783099 1.77727 0.673953Q1.94062 0.564807 2.11388 0.472197Q2.28715 0.379587 2.46865 0.304406Q2.65015 0.229224 2.83815 0.172196Q3.02615 0.115167 3.21883 0.0768396Q3.41152 0.0385126 3.60703 0.0192563Q3.80254 0 3.999 0Z" id="path_10" />
    <path d="M1.999 0L217.001 0Q217.099 0 217.197 0.00962573Q217.295 0.0192515 217.391 0.0384102Q217.487 0.057569 217.581 0.0860763Q217.675 0.114584 217.766 0.152165Q217.857 0.189746 217.943 0.236039Q218.03 0.282333 218.112 0.336892Q218.193 0.391452 218.269 0.453752Q218.345 0.516052 218.414 0.585494Q218.484 0.654935 218.546 0.730848Q218.609 0.806761 218.663 0.888415Q218.718 0.970069 218.764 1.05668Q218.81 1.14329 218.848 1.23402Q218.885 1.32474 218.914 1.41872Q218.942 1.5127 218.962 1.60901Q218.981 1.70533 218.99 1.80306Q219 1.9008 219 1.999L219 222L0 222L0 1.999Q0 1.9008 0.00962573 1.80306Q0.0192515 1.70533 0.0384102 1.60901Q0.057569 1.5127 0.0860763 1.41872Q0.114584 1.32474 0.152165 1.23402Q0.189746 1.14329 0.236039 1.05668Q0.282333 0.970069 0.336892 0.888415Q0.391452 0.806761 0.453752 0.730848Q0.516052 0.654935 0.585494 0.585494Q0.654935 0.516052 0.730848 0.453752Q0.806761 0.391452 0.888415 0.336892Q0.970069 0.282333 1.05668 0.236039Q1.14329 0.189746 1.23402 0.152165Q1.32474 0.114584 1.41872 0.0860763Q1.5127 0.057569 1.60901 0.0384102Q1.70533 0.0192515 1.80306 0.00962573Q1.9008 0 1.999 0Z" id="path_11" />
    <path d="M0 0L86.9231 0L86.9231 254L0 254L0 0Z" id="path_12" />
    <clipPath id="clip_1">
      <use xlink:href="#path_1" />
    </clipPath>
    <clipPath id="clip_2">
      <use xlink:href="#path_4" />
    </clipPath>
    <clipPath id="clip_3">
      <use xlink:href="#path_7" />
    </clipPath>
    <clipPath id="clip_4">
      <use xlink:href="#path_10" />
    </clipPath>
    <clipPath id="mask_1">
      <use xlink:href="#path_2" />
    </clipPath>
    <clipPath id="mask_2">
      <use xlink:href="#path_3" />
    </clipPath>
    <clipPath id="mask_3">
      <use xlink:href="#path_5" />
    </clipPath>
    <clipPath id="mask_4">
      <use xlink:href="#path_6" />
    </clipPath>
    <clipPath id="mask_5">
      <use xlink:href="#path_8" />
    </clipPath>
    <clipPath id="mask_6">
      <use xlink:href="#path_9" />
    </clipPath>
    <clipPath id="mask_7">
      <use xlink:href="#path_11" />
    </clipPath>
    <clipPath id="mask_8">
      <use xlink:href="#path_12" />
    </clipPath>
  </defs>
  <g id="Group" transform="translate(1.5 1.5)">
    <g id="card-3" transform="translate(36.115356 0)">
      <g id="bg">
        <g id="card">
          <use stroke="none" fill="#FFFFFF" xlink:href="#path_1" fill-rule="evenodd" />
          <g clip-path="url(#clip_1)">
            <use xlink:href="#path_1" fill="none" stroke="#2B2E4A" stroke-width="6" />
          </g>
        </g>
      </g>
      <g id="bottle" transform="translate(2.1999512 3)">
        <path d="M1.999 0L158.601 0Q158.699 0 158.797 0.00962573Q158.895 0.0192515 158.991 0.0384102Q159.087 0.057569 159.181 0.0860763Q159.275 0.114584 159.366 0.152165Q159.457 0.189746 159.543 0.236039Q159.63 0.282333 159.712 0.336892Q159.793 0.391452 159.869 0.453752Q159.945 0.516052 160.015 0.585494Q160.084 0.654935 160.146 0.730848Q160.209 0.806761 160.263 0.888415Q160.318 0.970069 160.364 1.05668Q160.41 1.14329 160.448 1.23402Q160.485 1.32474 160.514 1.41872Q160.542 1.5127 160.562 1.60901Q160.581 1.70533 160.59 1.80306Q160.6 1.9008 160.6 1.999L160.6 222L-1.04213e-14 222L-1.04213e-14 1.999Q-1.04213e-14 1.9008 0.00962573 1.80306Q0.0192515 1.70533 0.0384102 1.60901Q0.057569 1.5127 0.0860763 1.41872Q0.114584 1.32474 0.152165 1.23402Q0.189746 1.14329 0.236039 1.05668Q0.282333 0.970069 0.336892 0.888415Q0.391452 0.806761 0.453752 0.730848Q0.516052 0.654935 0.585494 0.585494Q0.654935 0.516052 0.730848 0.453752Q0.806761 0.391452 0.888415 0.336892Q0.970069 0.282333 1.05668 0.236039Q1.14329 0.189746 1.23402 0.152165Q1.32474 0.114584 1.41872 0.0860763Q1.5127 0.057569 1.60901 0.0384102Q1.70533 0.0192515 1.80306 0.00962573Q1.9008 0 1.999 0L1.999 0Z" id="mask" fill="#FAFAFA" fill-rule="evenodd" stroke="none" filter="url(#filter_1)" />
        <g clip-path="url(#mask_1)">
          <g id="bottle-1" transform="translate(16.127764 16.913176)">
            <path d="M88.7106 102.83C88.7257 103.146 88.7333 103.464 88.7333 103.785L88.9043 217.937C88.9043 220.841 87.3295 223.195 85.3978 223.195L42.5442 223.195C40.6076 223.195 39.0376 220.833 39.0376 217.937L38.8667 103.785C38.8667 103.463 38.8744 103.143 38.8896 102.826C39.3119 87.8929 45.5408 75.2206 54.2673 69.7857L55.416 13L72.184 13L73.3327 69.7857C82.06 75.2211 88.2893 87.8953 88.7106 102.83Z" id="shape" fill="#F4F4F6" fill-rule="evenodd" stroke="#2B2E4A" stroke-opacity="0.9019608" stroke-width="3" />
            <path d="M88.7333 105L88.7333 173L38.8667 173L38.8667 105L88.7333 105Z" id="label" fill="#BFC0C8" fill-rule="evenodd" stroke="#40425C" stroke-width="3" />
            <path d="M69.1028 3C74.4064 3 74.8 13 74.8 13L52.8 13C52.8 13 53.836 3 57.3444 3C60.8528 3 63.7992 3 69.1028 3Z" id="cap" fill="#2B2E4A" fill-opacity="0.29803923" fill-rule="evenodd" stroke="#40425C" stroke-width="3" />
            <g id="shadow" transform="matrix(1 0 0 1 0 -8.526513E-14)" opacity="0.1">
              <path d="M0 -2.84217e-14L63.7436 -2.84217e-14L63.7436 254L0 254L0 -2.84217e-14Z" id="Mask" fill="none" fill-rule="evenodd" stroke="none" />
              <g clip-path="url(#mask_2)">
                <path d="M53.844 65.866L53.6388 6.60861L55.7879 1L74.4074 1L75.7427 64.4978C85.3085 69.8086 92.0518 82.6135 92.0518 97.5661C92.0518 102.017 91.4544 106.277 90.363 110.206L89.7464 239.454Q89.7455 239.65 89.7254 239.845Q89.7053 240.04 89.6663 240.232Q89.6273 240.424 89.5697 240.611Q89.5121 240.798 89.4365 240.979Q89.3609 241.159 89.268 241.332Q89.1752 241.504 89.0659 241.667Q88.9566 241.829 88.8319 241.98Q88.7072 242.131 88.5684 242.27Q88.4296 242.408 88.2779 242.532Q88.1263 242.656 87.9632 242.764Q87.8002 242.873 87.6273 242.965Q87.4544 243.057 87.2734 243.132Q87.0923 243.206 86.9049 243.263Q86.7174 243.32 86.5253 243.358Q86.3332 243.396 86.1382 243.415Q85.9433 243.434 85.7475 243.434L42.965 243.434Q42.57 243.434 42.1825 243.357Q41.7951 243.28 41.4303 243.128Q41.0654 242.976 40.7374 242.756Q40.4093 242.536 40.1306 242.256Q39.8519 241.976 39.6334 241.647Q39.4149 241.318 39.265 240.952Q39.1151 240.587 39.0396 240.199Q38.9642 239.811 38.9661 239.416L39.6837 88.9889Q39.6849 88.7332 39.7122 88.479Q39.7395 88.2247 39.7926 87.9747Q39.8457 87.7245 39.924 87.4812Q40.0023 87.2378 40.1051 87.0037Q40.2078 86.7696 40.3339 86.5472Q40.46 86.3247 40.6082 86.1164Q40.7563 85.908 40.9249 85.7158Q41.0935 85.5236 41.2809 85.3496C43.5352 76.9109 48.0583 69.959 53.844 65.866Z" id="shape" fill="#202338" fill-rule="evenodd" stroke="none" />
              </g>
            </g>
          </g>
        </g>
      </g>
      <g id="copy" transform="translate(13.199951 243)">
        <path d="M0 0L114.4 0L114.4 8L0 8L0 0Z" id="line" fill="#BFC0C8" fill-rule="evenodd" stroke="none" />
      </g>
      <g id="flare-inner" transform="translate(20.533325 22)">
        <g id="+" fill="#2B2E4A" transform="matrix(0.95105654 -0.309017 0.309017 0.95105654 2.3324063 144.98259)">
          <path d="M3.96023 12.7921L3.96023 10.1326L1.30066 10.1326L1.30066 9.04545L3.96023 9.04545L3.96023 6.38589L5.04735 6.38589L5.04735 9.04545L7.70691 9.04545L7.70691 10.1326L5.04735 10.1326L5.04735 12.7921L3.96023 12.7921Z" />
        </g>
        <g id="+" fill="#2B2E4A" transform="matrix(0.95105654 -0.309017 0.309017 0.95105654 90.332405 41.982597)">
          <path d="M3.96023 12.7921L3.96023 10.1326L1.30066 10.1326L1.30066 9.04545L3.96023 9.04545L3.96023 6.38589L5.04735 6.38589L5.04735 9.04545L7.70691 9.04545L7.70691 10.1326L5.04735 10.1326L5.04735 12.7921L3.96023 12.7921Z" />
        </g>
        <g id="+" fill="#2B2E4A" transform="matrix(0.80901694 0.5877853 -0.5877853 0.80901694 31.30751 1.0177083)">
          <path d="M4.75227 15.1506L4.75227 11.9591L1.5608 11.9591L1.5608 10.6545L4.75227 10.6545L4.75227 7.46307L6.05682 7.46307L6.05682 10.6545L9.2483 10.6545L9.2483 11.9591L6.05682 11.9591L6.05682 15.1506L4.75227 15.1506Z" />
        </g>
        <path d="M2.50507 81.1284C3.51759 81.1284 4.3384 80.0091 4.3384 78.6284C4.3384 77.2477 3.51759 76.1284 2.50507 76.1284C1.49254 76.1284 0.671733 77.2477 0.671733 78.6284C0.671733 80.0091 1.49254 81.1284 2.50507 81.1284Z" id="big-dot" fill="none" fill-rule="evenodd" stroke="#2B2E4A" stroke-width="2" />
        <path d="M122.772 10.1284C124.189 10.1284 125.338 8.56138 125.338 6.62838C125.338 4.69539 124.189 3.12838 122.772 3.12838C121.354 3.12838 120.205 4.69539 120.205 6.62838C120.205 8.56138 121.354 10.1284 122.772 10.1284Z" id="big-dot" fill="none" fill-rule="evenodd" stroke="#2B2E4A" stroke-width="2" />
        <path d="M114.612 137.931C115.422 137.931 116.079 137.036 116.079 135.931C116.079 134.827 115.422 133.931 114.612 133.931C113.802 133.931 113.146 134.827 113.146 135.931C113.146 137.036 113.802 137.931 114.612 137.931Z" id="sm-dot" fill="#2B2E4A" fill-rule="evenodd" stroke="none" />
      </g>
      <path d="M2.999 0L162.001 0Q162.148 0 162.295 0.014441Q162.442 0.028882 162.586 0.0576249Q162.731 0.0863679 162.872 0.129136Q163.013 0.171904 163.149 0.228285Q163.285 0.284667 163.415 0.354118Q163.545 0.42357 163.667 0.505423Q163.79 0.587276 163.904 0.680742Q164.017 0.774208 164.122 0.878387Q164.226 0.982566 164.319 1.09645Q164.413 1.21034 164.495 1.33284Q164.576 1.45535 164.646 1.58528Q164.715 1.71522 164.772 1.85133Q164.828 1.98745 164.871 2.12844Q164.914 2.26942 164.942 2.41392Q164.971 2.55842 164.986 2.70505Q165 2.85167 165 2.999L165 265.001Q165 265.148 164.986 265.295Q164.971 265.442 164.942 265.586Q164.914 265.731 164.871 265.872Q164.828 266.013 164.772 266.149Q164.715 266.285 164.646 266.415Q164.576 266.545 164.495 266.667Q164.413 266.79 164.319 266.904Q164.226 267.017 164.122 267.122Q164.017 267.226 163.904 267.319Q163.79 267.413 163.667 267.495Q163.545 267.576 163.415 267.646Q163.285 267.715 163.149 267.772Q163.013 267.828 162.872 267.871Q162.731 267.914 162.586 267.942Q162.442 267.971 162.295 267.986Q162.148 268 162.001 268L2.999 268Q2.85167 268 2.70505 267.986Q2.55842 267.971 2.41392 267.942Q2.26942 267.914 2.12844 267.871Q1.98745 267.828 1.85133 267.772Q1.71522 267.715 1.58528 267.646Q1.45535 267.576 1.33284 267.495Q1.21034 267.413 1.09645 267.319Q0.982566 267.226 0.878387 267.122Q0.774208 267.017 0.680742 266.904Q0.587276 266.79 0.505423 266.667Q0.42357 266.545 0.354118 266.415Q0.284667 266.285 0.228285 266.149Q0.171904 266.013 0.129136 265.872Q0.0863679 265.731 0.0576249 265.586Q0.028882 265.442 0.014441 265.295Q0 265.148 0 265.001L0 2.999Q0 2.85167 0.014441 2.70505Q0.028882 2.55842 0.0576249 2.41392Q0.0863679 2.26942 0.129136 2.12844Q0.171904 1.98745 0.228285 1.85133Q0.284667 1.71522 0.354118 1.58528Q0.42357 1.45535 0.505423 1.33284Q0.587276 1.21034 0.680742 1.09645Q0.774208 0.982566 0.878387 0.878387Q0.982566 0.774208 1.09645 0.680742Q1.21034 0.587276 1.33284 0.505423Q1.45535 0.42357 1.58528 0.354118Q1.71522 0.284667 1.85133 0.228285Q1.98745 0.171904 2.12844 0.129136Q2.26942 0.0863679 2.41392 0.0576249Q2.55842 0.028882 2.70505 0.014441Q2.85167 0 2.999 0Z" id="cover" fill="#FFFFFF" fill-opacity="0.8" fill-rule="evenodd" stroke="none" />
    </g>
    <g id="card-3" transform="translate(26.115356 10)">
      <g id="bg">
        <g id="card">
          <use stroke="none" fill="#FFFFFF" xlink:href="#path_4" fill-rule="evenodd" />
          <g clip-path="url(#clip_2)">
            <use xlink:href="#path_4" fill="none" stroke="#2B2E4A" stroke-width="6" />
          </g>
        </g>
      </g>
      <g id="bottle" transform="translate(2.4666667 3)">
        <path d="M1.999 0L178.068 0Q178.166 0 178.264 0.00962573Q178.361 0.0192515 178.458 0.0384102Q178.554 0.057569 178.648 0.0860763Q178.742 0.114584 178.833 0.152165Q178.923 0.189746 179.01 0.236039Q179.097 0.282333 179.178 0.336892Q179.26 0.391452 179.336 0.453752Q179.412 0.516052 179.481 0.585494Q179.551 0.654935 179.613 0.730848Q179.675 0.806761 179.73 0.888415Q179.784 0.970069 179.831 1.05668Q179.877 1.14329 179.914 1.23402Q179.952 1.32474 179.981 1.41872Q180.009 1.5127 180.028 1.60901Q180.047 1.70533 180.057 1.80306Q180.067 1.9008 180.067 1.999L180.067 222L-1.16845e-14 222L-1.16845e-14 1.999Q-1.16845e-14 1.9008 0.00962573 1.80306Q0.0192515 1.70533 0.0384102 1.60901Q0.057569 1.5127 0.0860763 1.41872Q0.114584 1.32474 0.152165 1.23402Q0.189746 1.14329 0.236039 1.05668Q0.282333 0.970069 0.336892 0.888415Q0.391452 0.806761 0.453752 0.730848Q0.516052 0.654935 0.585494 0.585494Q0.654935 0.516052 0.730848 0.453752Q0.806761 0.391452 0.888415 0.336892Q0.970069 0.282333 1.05668 0.236039Q1.14329 0.189746 1.23402 0.152165Q1.32474 0.114584 1.41872 0.0860763Q1.5127 0.057569 1.60901 0.0384102Q1.70533 0.0192515 1.80306 0.00962573Q1.9008 0 1.999 0L1.999 0Z" id="mask" fill="#FAFAFA" fill-rule="evenodd" stroke="none" filter="url(#filter_1)" />
        <g clip-path="url(#mask_3)">
          <g id="bottle-1" transform="translate(18.082644 16.913176)">
            <path d="M99.4634 102.83C99.4803 103.146 99.4889 103.464 99.4889 103.785L99.6806 217.937C99.6806 220.841 97.9149 223.195 95.749 223.195L47.701 223.195C45.5297 223.195 43.7695 220.833 43.7695 217.937L43.5778 103.785C43.5778 103.463 43.5864 103.143 43.6034 102.826C44.077 87.8929 51.0609 75.2206 60.8452 69.7857L62.1331 13L80.9336 13L82.2215 69.7857C92.0067 75.2211 98.991 87.8953 99.4634 102.83Z" id="shape" fill="#F4F4F6" fill-rule="evenodd" stroke="#2B2E4A" stroke-opacity="0.9019608" stroke-width="3" />
            <path d="M99.4889 105L99.4889 173L43.5778 173L43.5778 105L99.4889 105Z" id="label" fill="#BFC0C8" fill-rule="evenodd" stroke="#40425C" stroke-width="3" />
            <path d="M77.4789 3C83.4253 3 83.8667 13 83.8667 13L59.2 13C59.2 13 60.3616 3 64.2952 3C68.2289 3 71.5325 3 77.4789 3Z" id="cap" fill="#2B2E4A" fill-opacity="0.29803923" fill-rule="evenodd" stroke="#40425C" stroke-width="3" />
            <g id="shadow" transform="matrix(1 0 0 1 0 -8.526513E-14)" opacity="0.1">
              <path d="M0 -2.84217e-14L71.4701 -2.84217e-14L71.4701 254L0 254L0 -2.84217e-14Z" id="Mask" fill="none" fill-rule="evenodd" stroke="none" />
              <g clip-path="url(#mask_4)">
                <path d="M60.3705 65.866L60.1404 6.60861L62.5501 1L83.4265 1L84.9236 64.4978C95.649 69.8086 103.21 82.6135 103.21 97.5661C103.21 102.017 102.54 106.277 101.316 110.206L100.625 239.457Q100.624 239.652 100.604 239.847Q100.583 240.042 100.544 240.234Q100.505 240.426 100.448 240.613Q100.39 240.8 100.314 240.98Q100.239 241.161 100.146 241.333Q100.053 241.506 99.9434 241.668Q99.8341 241.83 99.7094 241.981Q99.5848 242.132 99.446 242.27Q99.3071 242.409 99.1555 242.532Q99.0039 242.656 98.8409 242.765Q98.6778 242.873 98.505 242.965Q98.3322 243.057 98.1512 243.132Q97.9702 243.207 97.7828 243.263Q97.5954 243.32 97.4034 243.358Q97.2113 243.396 97.0164 243.415Q96.8216 243.434 96.6258 243.434L47.6882 243.434Q47.293 243.434 46.9054 243.357Q46.5178 243.279 46.1529 243.128Q45.788 242.976 45.4598 242.756Q45.1316 242.536 44.8529 242.255Q44.5742 241.975 44.3557 241.646Q44.1373 241.316 43.9875 240.951Q43.8377 240.585 43.7624 240.197Q43.6871 239.809 43.6892 239.414L44.4939 88.986Q44.4953 88.7087 44.5275 88.4333Q44.5596 88.158 44.622 87.8878Q44.6844 87.6177 44.7763 87.3561Q44.8681 87.0945 44.9884 86.8447Q45.1086 86.5949 45.2557 86.3599Q45.4029 86.1249 45.5751 85.9076Q45.7473 85.6903 45.9425 85.4934Q46.1377 85.2965 46.3534 85.1224C48.9035 76.7861 53.9418 69.9222 60.3705 65.866Z" id="shape" fill="#202338" fill-rule="evenodd" stroke="none" />
              </g>
            </g>
          </g>
        </g>
      </g>
      <g id="copy" transform="translate(14.8 243)">
        <path d="M0 0L128.267 0L128.267 8L0 8L0 0Z" id="line" fill="#BFC0C8" fill-rule="evenodd" stroke="none" />
      </g>
      <g id="flare-inner" transform="translate(23.022223 22)">
        <g id="+" fill="#2B2E4A" transform="matrix(0.95105654 -0.309017 0.309017 0.95105654 2.9846866 144.98259)">
          <path d="M3.96023 12.7921L3.96023 10.1326L1.30066 10.1326L1.30066 9.04545L3.96023 9.04545L3.96023 6.38589L5.04735 6.38589L5.04735 9.04545L7.70691 9.04545L7.70691 10.1326L5.04735 10.1326L5.04735 12.7921L3.96023 12.7921Z" />
        </g>
        <g id="+" fill="#2B2E4A" transform="matrix(0.95105654 -0.309017 0.309017 0.95105654 101.65135 41.982597)">
          <path d="M3.96023 12.7921L3.96023 10.1326L1.30066 10.1326L1.30066 9.04545L3.96023 9.04545L3.96023 6.38589L5.04735 6.38589L5.04735 9.04545L7.70691 9.04545L7.70691 10.1326L5.04735 10.1326L5.04735 12.7921L3.96023 12.7921Z" />
        </g>
        <g id="+" fill="#2B2E4A" transform="matrix(0.80901694 0.5877853 -0.5877853 0.80901694 34.060406 1.0177083)">
          <path d="M4.75227 15.1506L4.75227 11.9591L1.5608 11.9591L1.5608 10.6545L4.75227 10.6545L4.75227 7.46307L6.05682 7.46307L6.05682 10.6545L9.2483 10.6545L9.2483 11.9591L6.05682 11.9591L6.05682 15.1506L4.75227 15.1506Z" />
        </g>
        <path d="M2.80871 81.1284C3.94396 81.1284 4.86427 80.0091 4.86427 78.6284C4.86427 77.2477 3.94396 76.1284 2.80871 76.1284C1.67346 76.1284 0.753155 77.2477 0.753155 78.6284C0.753155 80.0091 1.67346 81.1284 2.80871 81.1284Z" id="big-dot" fill="none" fill-rule="evenodd" stroke="#2B2E4A" stroke-width="2" />
        <path d="M137.653 10.1284C139.243 10.1284 140.531 8.56138 140.531 6.62838C140.531 4.69539 139.243 3.12838 137.653 3.12838C136.064 3.12838 134.775 4.69539 134.775 6.62838C134.775 8.56138 136.064 10.1284 137.653 10.1284Z" id="big-dot" fill="none" fill-rule="evenodd" stroke="#2B2E4A" stroke-width="2" />
        <path d="M128.505 137.931C129.413 137.931 130.149 137.036 130.149 135.931C130.149 134.827 129.413 133.931 128.505 133.931C127.596 133.931 126.86 134.827 126.86 135.931C126.86 137.036 127.596 137.931 128.505 137.931Z" id="sm-dot" fill="#2B2E4A" fill-rule="evenodd" stroke="none" />
      </g>
      <path d="M2.999 0L182.001 0Q182.148 0 182.295 0.014441Q182.442 0.028882 182.586 0.0576249Q182.731 0.0863679 182.872 0.129136Q183.013 0.171904 183.149 0.228285Q183.285 0.284667 183.415 0.354118Q183.545 0.42357 183.667 0.505423Q183.79 0.587276 183.904 0.680742Q184.017 0.774208 184.122 0.878387Q184.226 0.982566 184.319 1.09645Q184.413 1.21034 184.495 1.33284Q184.576 1.45535 184.646 1.58528Q184.715 1.71522 184.772 1.85133Q184.828 1.98745 184.871 2.12844Q184.914 2.26942 184.942 2.41392Q184.971 2.55842 184.986 2.70505Q185 2.85167 185 2.999L185 265.001Q185 265.148 184.986 265.295Q184.971 265.442 184.942 265.586Q184.914 265.731 184.871 265.872Q184.828 266.013 184.772 266.149Q184.715 266.285 184.646 266.415Q184.576 266.545 184.495 266.667Q184.413 266.79 184.319 266.904Q184.226 267.017 184.122 267.122Q184.017 267.226 183.904 267.319Q183.79 267.413 183.667 267.495Q183.545 267.576 183.415 267.646Q183.285 267.715 183.149 267.772Q183.013 267.828 182.872 267.871Q182.731 267.914 182.586 267.942Q182.442 267.971 182.295 267.986Q182.148 268 182.001 268L2.999 268Q2.85167 268 2.70505 267.986Q2.55842 267.971 2.41392 267.942Q2.26942 267.914 2.12844 267.871Q1.98745 267.828 1.85133 267.772Q1.71522 267.715 1.58528 267.646Q1.45535 267.576 1.33284 267.495Q1.21034 267.413 1.09645 267.319Q0.982566 267.226 0.878387 267.122Q0.774208 267.017 0.680742 266.904Q0.587276 266.79 0.505423 266.667Q0.42357 266.545 0.354118 266.415Q0.284667 266.285 0.228285 266.149Q0.171904 266.013 0.129136 265.872Q0.0863679 265.731 0.0576249 265.586Q0.028882 265.442 0.014441 265.295Q0 265.148 0 265.001L0 2.999Q0 2.85167 0.014441 2.70505Q0.028882 2.55842 0.0576249 2.41392Q0.0863679 2.26942 0.129136 2.12844Q0.171904 1.98745 0.228285 1.85133Q0.284667 1.71522 0.354118 1.58528Q0.42357 1.45535 0.505423 1.33284Q0.587276 1.21034 0.680742 1.09645Q0.774208 0.982566 0.878387 0.878387Q0.982566 0.774208 1.09645 0.680742Q1.21034 0.587276 1.33284 0.505423Q1.45535 0.42357 1.58528 0.354118Q1.71522 0.284667 1.85133 0.228285Q1.98745 0.171904 2.12844 0.129136Q2.26942 0.0863679 2.41392 0.0576249Q2.55842 0.028882 2.70505 0.014441Q2.85167 0 2.999 0Z" id="cover" fill="#FFFFFF" fill-opacity="0.6" fill-rule="evenodd" stroke="none" />
    </g>
    <g id="card-2" transform="translate(16.115356 20)">
      <g id="bg">
        <g id="card">
          <use stroke="none" fill="#FFFFFF" xlink:href="#path_7" fill-rule="evenodd" />
          <g clip-path="url(#clip_3)">
            <use xlink:href="#path_7" fill="none" stroke="#2B2E4A" stroke-width="6" />
          </g>
        </g>
      </g>
      <g id="bottle" transform="translate(2.7333333 3)">
        <path d="M1.999 0L197.534 0Q197.633 0 197.73 0.00962573Q197.828 0.0192515 197.924 0.0384102Q198.021 0.057569 198.115 0.0860763Q198.209 0.114584 198.299 0.152165Q198.39 0.189746 198.477 0.236039Q198.563 0.282333 198.645 0.336892Q198.727 0.391452 198.802 0.453752Q198.878 0.516052 198.948 0.585494Q199.017 0.654935 199.08 0.730848Q199.142 0.806761 199.196 0.888415Q199.251 0.970069 199.297 1.05668Q199.344 1.14329 199.381 1.23402Q199.419 1.32474 199.447 1.41872Q199.476 1.5127 199.495 1.60901Q199.514 1.70533 199.524 1.80306Q199.533 1.9008 199.533 1.999L199.533 222L-1.29477e-14 222L-1.29477e-14 1.999Q-1.29477e-14 1.9008 0.00962573 1.80306Q0.0192515 1.70533 0.0384102 1.60901Q0.057569 1.5127 0.0860763 1.41872Q0.114584 1.32474 0.152165 1.23402Q0.189746 1.14329 0.236039 1.05668Q0.282333 0.970069 0.336892 0.888415Q0.391452 0.806761 0.453752 0.730848Q0.516052 0.654935 0.585494 0.585494Q0.654935 0.516052 0.730848 0.453752Q0.806761 0.391452 0.888415 0.336892Q0.970069 0.282333 1.05668 0.236039Q1.14329 0.189746 1.23402 0.152165Q1.32474 0.114584 1.41872 0.0860763Q1.5127 0.057569 1.60901 0.0384102Q1.70533 0.0192515 1.80306 0.00962573Q1.9008 0 1.999 0L1.999 0Z" id="mask" fill="#FAFAFA" fill-rule="evenodd" stroke="none" filter="url(#filter_1)" />
        <g clip-path="url(#mask_5)">
          <g id="bottle-1" transform="translate(20.037523 16.913176)">
            <path d="M110.216 102.83C110.235 103.146 110.244 103.464 110.244 103.785L110.457 217.937C110.457 220.841 108.5 223.195 106.1 223.195L52.8579 223.195C50.4518 223.195 48.5013 220.833 48.5013 217.937L48.2889 103.785C48.2889 103.463 48.2985 103.143 48.3173 102.826C48.8421 87.8929 56.581 75.2206 67.423 69.7857L68.8502 13L89.6832 13L91.1103 69.7857C101.953 75.2211 109.693 87.8953 110.216 102.83Z" id="shape" fill="#F4F4F6" fill-rule="evenodd" stroke="#2B2E4A" stroke-opacity="0.9019608" stroke-width="3" />
            <path d="M110.244 105L110.244 173L48.2889 173L48.2889 105L110.244 105Z" id="label" fill="#BFC0C8" fill-rule="evenodd" stroke="#40425C" stroke-width="3" />
            <path d="M85.855 3C92.4443 3 92.9333 13 92.9333 13L65.6 13C65.6 13 66.8871 3 71.2461 3C75.605 3 79.2657 3 85.855 3Z" id="cap" fill="#2B2E4A" fill-opacity="0.29803923" fill-rule="evenodd" stroke="#40425C" stroke-width="3" />
            <g id="shadow" transform="matrix(1 0 0 1 0 -8.526513E-14)" opacity="0.1">
              <path d="M0 -2.84217e-14L79.1966 -2.84217e-14L79.1966 254L0 254L0 -2.84217e-14Z" id="Mask" fill="none" fill-rule="evenodd" stroke="none" />
              <g clip-path="url(#mask_6)">
                <path d="M66.897 65.866L66.6421 6.60861L69.3123 1L92.4456 1L94.1045 64.4978C105.989 69.8086 114.367 82.6135 114.367 97.5661C114.367 102.017 113.625 106.277 112.269 110.206L111.503 239.459Q111.502 239.655 111.482 239.849Q111.461 240.044 111.422 240.236Q111.383 240.427 111.325 240.614Q111.268 240.801 111.192 240.982Q111.116 241.162 111.023 241.335Q110.93 241.507 110.821 241.669Q110.712 241.832 110.587 241.982Q110.462 242.133 110.323 242.271Q110.185 242.409 110.033 242.533Q109.881 242.657 109.718 242.765Q109.556 242.874 109.383 242.965Q109.21 243.057 109.029 243.132Q108.848 243.207 108.661 243.263Q108.473 243.32 108.281 243.358Q108.089 243.396 107.895 243.415Q107.7 243.434 107.504 243.434L52.4113 243.434Q52.016 243.434 51.6283 243.357Q51.2406 243.279 50.8755 243.128Q50.5105 242.976 50.1822 242.755Q49.854 242.535 49.5753 242.255Q49.2965 241.974 49.0781 241.645Q48.8597 241.315 48.71 240.949Q48.5603 240.583 48.4852 240.195Q48.4101 239.807 48.4124 239.411L49.304 88.9831Q49.3058 88.6848 49.343 88.3888Q49.3802 88.0928 49.4524 87.8033Q49.5246 87.5139 49.6307 87.235Q49.7368 86.9562 49.8752 86.692Q50.0137 86.4278 50.1827 86.1819Q50.3516 85.936 50.5486 85.712Q50.7455 85.4879 50.9678 85.2889Q51.19 85.0899 51.4343 84.9187C54.2816 76.6743 59.8315 69.8891 66.897 65.866Z" id="shape" fill="#202338" fill-rule="evenodd" stroke="none" />
              </g>
            </g>
          </g>
        </g>
      </g>
      <g id="copy" transform="translate(16.4 243)">
        <path d="M0 0L142.133 0L142.133 8L0 8L0 0Z" id="line" fill="#BFC0C8" fill-rule="evenodd" stroke="none" />
      </g>
      <g id="flare-inner" transform="translate(25.51111 22)">
        <g id="+" fill="#2B2E4A" transform="matrix(0.95105654 -0.309017 0.309017 0.95105654 3.3328443 145.06244)">
          <path d="M3.96023 12.7921L3.96023 10.1326L1.30066 10.1326L1.30066 9.04545L3.96023 9.04545L3.96023 6.38589L5.04735 6.38589L5.04735 9.04545L7.70691 9.04545L7.70691 10.1326L5.04735 10.1326L5.04735 12.7921L3.96023 12.7921Z" />
        </g>
        <g id="+" fill="#2B2E4A" transform="matrix(0.95105654 -0.309017 0.309017 0.95105654 112.666176 42.062443)">
          <path d="M3.96023 12.7921L3.96023 10.1326L1.30066 10.1326L1.30066 9.04545L3.96023 9.04545L3.96023 6.38589L5.04735 6.38589L5.04735 9.04545L7.70691 9.04545L7.70691 10.1326L5.04735 10.1326L5.04735 12.7921L3.96023 12.7921Z" />
        </g>
        <g id="+" fill="#2B2E4A" transform="matrix(0.80901694 0.5877853 -0.5877853 0.80901694 37.403206 1.2021604)">
          <path d="M4.75227 15.1506L4.75227 11.9591L1.5608 11.9591L1.5608 10.6545L4.75227 10.6545L4.75227 7.46307L6.05682 7.46307L6.05682 10.6545L9.2483 10.6545L9.2483 11.9591L6.05682 11.9591L6.05682 15.1506L4.75227 15.1506Z" />
        </g>
        <path d="M3.11236 81.1284C4.37034 81.1284 5.39013 80.0091 5.39013 78.6284C5.39013 77.2477 4.37034 76.1284 3.11236 76.1284C1.85437 76.1284 0.834578 77.2477 0.834578 78.6284C0.834578 80.0091 1.85437 81.1284 3.11236 81.1284Z" id="big-dot" fill="none" fill-rule="evenodd" stroke="#2B2E4A" stroke-width="2" />
        <path d="M152.535 10.1284C154.296 10.1284 155.723 8.56138 155.723 6.62838C155.723 4.69539 154.296 3.12838 152.535 3.12838C150.773 3.12838 149.346 4.69539 149.346 6.62838C149.346 8.56138 150.773 10.1284 152.535 10.1284Z" id="big-dot" fill="none" fill-rule="evenodd" stroke="#2B2E4A" stroke-width="2" />
        <path d="M142.397 137.931C143.403 137.931 144.219 137.036 144.219 135.931C144.219 134.827 143.403 133.931 142.397 133.931C141.391 133.931 140.575 134.827 140.575 135.931C140.575 137.036 141.391 137.931 142.397 137.931Z" id="sm-dot" fill="#2B2E4A" fill-rule="evenodd" stroke="none" />
      </g>
      <path d="M2.999 0L202.001 0Q202.148 0 202.295 0.014441Q202.442 0.028882 202.586 0.0576249Q202.731 0.0863679 202.872 0.129136Q203.013 0.171904 203.149 0.228285Q203.285 0.284667 203.415 0.354118Q203.545 0.42357 203.667 0.505423Q203.79 0.587276 203.904 0.680742Q204.017 0.774208 204.122 0.878387Q204.226 0.982566 204.319 1.09645Q204.413 1.21034 204.495 1.33284Q204.576 1.45535 204.646 1.58528Q204.715 1.71522 204.772 1.85133Q204.828 1.98745 204.871 2.12844Q204.914 2.26942 204.942 2.41392Q204.971 2.55842 204.986 2.70505Q205 2.85167 205 2.999L205 265.001Q205 265.148 204.986 265.295Q204.971 265.442 204.942 265.586Q204.914 265.731 204.871 265.872Q204.828 266.013 204.772 266.149Q204.715 266.285 204.646 266.415Q204.576 266.545 204.495 266.667Q204.413 266.79 204.319 266.904Q204.226 267.017 204.122 267.122Q204.017 267.226 203.904 267.319Q203.79 267.413 203.667 267.495Q203.545 267.576 203.415 267.646Q203.285 267.715 203.149 267.772Q203.013 267.828 202.872 267.871Q202.731 267.914 202.586 267.942Q202.442 267.971 202.295 267.986Q202.148 268 202.001 268L2.999 268Q2.85167 268 2.70505 267.986Q2.55842 267.971 2.41392 267.942Q2.26942 267.914 2.12844 267.871Q1.98745 267.828 1.85133 267.772Q1.71522 267.715 1.58528 267.646Q1.45535 267.576 1.33284 267.495Q1.21034 267.413 1.09645 267.319Q0.982566 267.226 0.878387 267.122Q0.774208 267.017 0.680742 266.904Q0.587276 266.79 0.505423 266.667Q0.42357 266.545 0.354118 266.415Q0.284667 266.285 0.228285 266.149Q0.171904 266.013 0.129136 265.872Q0.0863679 265.731 0.0576249 265.586Q0.028882 265.442 0.014441 265.295Q0 265.148 0 265.001L0 2.999Q0 2.85167 0.014441 2.70505Q0.028882 2.55842 0.0576249 2.41392Q0.0863679 2.26942 0.129136 2.12844Q0.171904 1.98745 0.228285 1.85133Q0.284667 1.71522 0.354118 1.58528Q0.42357 1.45535 0.505423 1.33284Q0.587276 1.21034 0.680742 1.09645Q0.774208 0.982566 0.878387 0.878387Q0.982566 0.774208 1.09645 0.680742Q1.21034 0.587276 1.33284 0.505423Q1.45535 0.42357 1.58528 0.354118Q1.71522 0.284667 1.85133 0.228285Q1.98745 0.171904 2.12844 0.129136Q2.26942 0.0863679 2.41392 0.0576249Q2.55842 0.028882 2.70505 0.014441Q2.85167 0 2.999 0Z" id="cover" fill="#FFFFFF" fill-opacity="0.4" fill-rule="evenodd" stroke="none" />
    </g>
    <g id="card-1" transform="translate(0 20)">
      <g id="top">
        <g id="card">
          <use stroke="none" fill="#FFFFFF" xlink:href="#path_10" fill-rule="evenodd" />
          <g clip-path="url(#clip_4)">
            <use xlink:href="#path_10" fill="none" stroke="#2B2E4A" stroke-width="6" />
          </g>
        </g>
      </g>
      <g id="bottle" transform="translate(3 3)">
        <path d="M1.999 0L217.001 0Q217.099 0 217.197 0.00962573Q217.295 0.0192515 217.391 0.0384102Q217.487 0.057569 217.581 0.0860763Q217.675 0.114584 217.766 0.152165Q217.857 0.189746 217.943 0.236039Q218.03 0.282333 218.112 0.336892Q218.193 0.391452 218.269 0.453752Q218.345 0.516052 218.414 0.585494Q218.484 0.654935 218.546 0.730848Q218.609 0.806761 218.663 0.888415Q218.718 0.970069 218.764 1.05668Q218.81 1.14329 218.848 1.23402Q218.885 1.32474 218.914 1.41872Q218.942 1.5127 218.962 1.60901Q218.981 1.70533 218.99 1.80306Q219 1.9008 219 1.999L219 222L0 222L0 1.999Q0 1.9008 0.00962573 1.80306Q0.0192515 1.70533 0.0384102 1.60901Q0.057569 1.5127 0.0860763 1.41872Q0.114584 1.32474 0.152165 1.23402Q0.189746 1.14329 0.236039 1.05668Q0.282333 0.970069 0.336892 0.888415Q0.391452 0.806761 0.453752 0.730848Q0.516052 0.654935 0.585494 0.585494Q0.654935 0.516052 0.730848 0.453752Q0.806761 0.391452 0.888415 0.336892Q0.970069 0.282333 1.05668 0.236039Q1.14329 0.189746 1.23402 0.152165Q1.32474 0.114584 1.41872 0.0860763Q1.5127 0.057569 1.60901 0.0384102Q1.70533 0.0192515 1.80306 0.00962573Q1.9008 0 1.999 0Z" id="mask" fill="#FAFAFA" fill-rule="evenodd" stroke="none" filter="url(#filter_1)" />
        <g clip-path="url(#mask_7)">
          <g id="bottle-1" transform="translate(21.992432 16.913177)">
            <path d="M120.969 102.83C120.99 103.146 121 103.464 121 103.785L121.233 217.937C121.233 220.841 119.086 223.195 116.452 223.195L58.0148 223.195C55.3739 223.195 53.2331 220.833 53.2331 217.937L53 103.785C53 103.463 53.0105 103.143 53.0312 102.826C53.6072 87.8929 62.1011 75.2206 74.0009 69.7857L75.5673 13L98.4328 13L99.9991 69.7857C111.9 75.2211 120.394 87.8953 120.969 102.83Z" id="shape" fill="#F4F4F6" fill-rule="evenodd" stroke="#2B2E4A" stroke-opacity="0.9019608" stroke-width="3" />
            <g id="label" transform="translate(53 105)">
              <path d="M68 0L68 68L0 68L0 0L68 0Z" id="label" fill="#BFC0C8" fill-rule="evenodd" stroke="#40425C" stroke-width="3" />
              <path d="M35.0076 48.0858L45.7322 39.0868L47.6606 41.3849L36.936 50.3839L35.0076 48.0858Z" id="bot" fill="#2B2E4A" fill-opacity="0.70000005" fill-rule="evenodd" stroke="none" />
              <path d="M14.0076 49.2262L52.3098 17.0868L54.2382 19.385L15.9359 51.5243L14.0076 49.2262Z" id="center" fill="#2B2E4A" fill-opacity="0.70000005" fill-rule="evenodd" stroke="none" />
              <path d="M20.0076 26.0859L30.7323 17.0869L32.6606 19.385L21.936 28.3841L20.0076 26.0859Z" id="top" fill="#2B2E4A" fill-opacity="0.70000005" fill-rule="evenodd" stroke="none" />
            </g>
            <path d="M94.2311 3C101.463 3 102 13 102 13L72 13C72 13 73.4127 3 78.1969 3C82.9811 3 86.999 3 94.2311 3Z" id="cap" fill="#2B2E4A" fill-opacity="0.29803923" fill-rule="evenodd" stroke="#40425C" stroke-width="3" />
            <g id="shadow" opacity="0.1">
              <path d="M0 0L86.9231 0L86.9231 254L0 254L0 0Z" id="Mask" fill="none" fill-rule="evenodd" stroke="none" />
              <g clip-path="url(#mask_8)">
                <path d="M73.4236 65.866L73.1438 6.60861L76.0745 1L101.465 1L103.285 64.4978C116.33 69.8086 125.525 82.6135 125.525 97.5661C125.525 102.017 124.711 106.277 123.222 110.206L122.381 239.461Q122.38 239.657 122.36 239.851Q122.339 240.046 122.3 240.238Q122.261 240.429 122.203 240.616Q122.145 240.803 122.07 240.984Q121.994 241.164 121.901 241.336Q121.808 241.508 121.699 241.67Q121.589 241.833 121.465 241.983Q121.34 242.134 121.201 242.272Q121.062 242.41 120.911 242.534Q120.759 242.657 120.596 242.766Q120.433 242.874 120.26 242.966Q120.088 243.058 119.907 243.132Q119.726 243.207 119.539 243.263Q119.351 243.32 119.16 243.358Q118.968 243.396 118.773 243.415Q118.578 243.434 118.383 243.434L57.1345 243.434Q56.739 243.434 56.3512 243.357Q55.9633 243.279 55.5982 243.127Q55.233 242.975 54.9047 242.755Q54.5764 242.534 54.2976 242.254Q54.0189 241.973 53.8005 241.643Q53.5821 241.314 53.4325 240.947Q53.283 240.581 53.208 240.193Q53.133 239.805 53.1356 239.409L54.1142 88.9802Q54.1163 88.6613 54.1589 88.3453Q54.2014 88.0293 54.2838 87.7212Q54.3662 87.4132 54.487 87.1181Q54.6079 86.823 54.7653 86.5456Q54.9226 86.2683 55.114 86.0132Q55.3053 85.7581 55.5275 85.5294Q55.7497 85.3007 55.9992 85.102Q56.2486 84.9034 56.5213 84.7381C59.6665 76.5752 65.7255 69.8597 73.4236 65.866Z" id="shape" fill="#202338" fill-rule="evenodd" stroke="none" />
              </g>
            </g>
          </g>
        </g>
      </g>
      <g id="copy" transform="translate(18 244)">
        <path d="M0 0L156 0L156 6L0 6L0 0Z" id="line" fill="#BFC0C8" fill-rule="evenodd" stroke="none" />
      </g>
      <g id="flare-inner" transform="translate(41.413696 70.00287)">
        <g id="lower-right" transform="matrix(0.8480481 -0.52991927 0.52991927 0.8480481 121.6416 108.26547)">
          <g id="+" fill="#2B2E4A" transform="matrix(0.27563742 0.9612617 -0.9612617 0.27563742 30.953491 10.109253)">
            <path d="M4.34659 13.7088L4.34659 10.7898L1.42756 10.7898L1.42756 9.59659L4.34659 9.59659L4.34659 6.67756L5.53977 6.67756L5.53977 9.59659L8.45881 9.59659L8.45881 10.7898L5.53977 10.7898L5.53977 13.7088L4.34659 13.7088Z" />
          </g>
          <path d="M0.551224 15.4936C0.855685 16.5553 1.96324 17.1693 3.02502 16.8648C4.0868 16.5604 4.70073 15.4528 4.39627 14.391C4.09181 13.3292 2.98425 12.7153 1.92247 13.0198C0.860692 13.3242 0.246763 14.4318 0.551224 15.4936Z" id="sm-dot" fill="#2B2E4A" fill-rule="evenodd" stroke="none" />
          <path d="M10.8506 5.29373C11.3834 7.15184 13.3216 8.22622 15.1798 7.69341C17.0379 7.16061 18.1122 5.22238 17.5794 3.36426C17.0466 1.50615 15.1084 0.431774 13.2503 0.96458C11.3922 1.49739 10.3178 3.43561 10.8506 5.29373Z" id="big-dot" fill="none" fill-rule="evenodd" stroke="#2B2E4A" stroke-width="2" />
        </g>
        <g id="top-left">
          <g id="+" fill="#2B2E4A" transform="matrix(0.80901694 0.5877853 -0.5877853 0.80901694 14.106812 0)">
            <path d="M5.79545 18.2784L5.79545 14.3864L1.90341 14.3864L1.90341 12.7955L5.79545 12.7955L5.79545 8.90341L7.38636 8.90341L7.38636 12.7955L11.2784 12.7955L11.2784 14.3864L7.38636 14.3864L7.38636 18.2784L5.79545 18.2784Z" />
          </g>
          <path d="M9.50232 36.1255C10.6069 36.1255 11.5023 35.2301 11.5023 34.1255C11.5023 33.021 10.6069 32.1255 9.50232 32.1255C8.39775 32.1255 7.50232 33.021 7.50232 34.1255C7.50232 35.2301 8.39775 36.1255 9.50232 36.1255Z" id="big-dot" fill="none" fill-rule="evenodd" stroke="#2B2E4A" stroke-width="2" />
          <path d="M19.8757 19.9282C20.9803 19.9282 21.8757 19.0328 21.8757 17.9282C21.8757 16.8237 20.9803 15.9282 19.8757 15.9282C18.7712 15.9282 17.8757 16.8237 17.8757 17.9282C17.8757 19.0328 18.7712 19.9282 19.8757 19.9282Z" id="sm-dot" fill="#2B2E4A" fill-rule="evenodd" stroke="none" />
        </g>
      </g>
      <g id="icons" transform="translate(12 9)">
        <path d="M15.329 10.4979L12.3713 13.2135L13.2433 17.1613Q13.2512 17.1971 13.2565 17.2334Q13.2617 17.2698 13.2643 17.3064Q13.2669 17.343 13.2668 17.3798Q13.2667 17.4165 13.2639 17.4531Q13.2611 17.4897 13.2556 17.526Q13.2501 17.5623 13.242 17.5981Q13.2338 17.6339 13.2231 17.669Q13.2123 17.7041 13.1991 17.7384Q13.1858 17.7726 13.17 17.8058Q13.1542 17.8389 13.1361 17.8708Q13.1179 17.9027 13.0974 17.9332Q13.077 17.9637 13.0544 17.9926Q13.0317 18.0216 13.007 18.0487Q12.9823 18.0759 12.9557 18.1012Q12.9291 18.1265 12.9007 18.1497Q12.8722 18.173 12.8422 18.1941Q12.8122 18.2152 12.7806 18.2341Q12.7491 18.2529 12.7163 18.2694Q12.6835 18.2859 12.6496 18.2999Q12.6157 18.3139 12.5808 18.3254Q12.5459 18.3369 12.5103 18.3459Q12.4747 18.3548 12.4385 18.361Q12.4023 18.3673 12.3658 18.3709Q12.3292 18.3745 12.2925 18.3754Q12.2558 18.3763 12.2191 18.3745Q12.1825 18.3728 12.146 18.3683Q12.1096 18.3638 12.0736 18.3567Q12.0375 18.3495 12.0021 18.3398Q11.9667 18.33 11.9322 18.3177Q11.8976 18.3053 11.864 18.2905Q11.8304 18.2756 11.798 18.2584Q11.7656 18.2411 11.7346 18.2215L8.5 16.1797L5.26545 18.2215Q5.2344 18.2411 5.20199 18.2584Q5.16959 18.2756 5.136 18.2905Q5.10242 18.3053 5.06784 18.3177Q5.03325 18.33 4.99786 18.3398Q4.96246 18.3495 4.92644 18.3567Q4.89042 18.3638 4.85398 18.3683Q4.81753 18.3728 4.78086 18.3745Q4.74418 18.3763 4.70748 18.3754Q4.67077 18.3745 4.63423 18.3709Q4.59769 18.3673 4.56151 18.361Q4.52533 18.3548 4.48971 18.3459Q4.45409 18.3369 4.41922 18.3254Q4.38435 18.3139 4.35042 18.2999Q4.31649 18.2859 4.28368 18.2694Q4.25087 18.2529 4.21936 18.2341Q4.18785 18.2152 4.1578 18.1941Q4.12776 18.173 4.09935 18.1497Q4.07094 18.1265 4.04431 18.1012Q4.01768 18.0759 3.99298 18.0487Q3.96828 18.0216 3.94565 17.9926Q3.92301 17.9637 3.90255 17.9332Q3.8821 17.9027 3.86394 17.8708Q3.84578 17.8389 3.83001 17.8058Q3.81424 17.7726 3.80095 17.7384Q3.78765 17.7041 3.77691 17.669Q3.76617 17.6339 3.75803 17.5981Q3.74989 17.5623 3.74441 17.526Q3.73892 17.4897 3.73611 17.4531Q3.7333 17.4165 3.73319 17.3798Q3.73308 17.343 3.73567 17.3064Q3.73825 17.2698 3.74352 17.2334Q3.74878 17.1971 3.7567 17.1613L4.62871 13.2135L1.67104 10.4979Q1.64444 10.4734 1.61968 10.4472Q1.59492 10.4209 1.57212 10.3929Q1.54932 10.3649 1.5286 10.3353Q1.50788 10.3058 1.48934 10.2748Q1.47081 10.2438 1.45456 10.2116Q1.43832 10.1793 1.42444 10.146Q1.41056 10.1127 1.39913 10.0784Q1.38769 10.0442 1.37876 10.0092Q1.36982 9.9742 1.36344 9.93867Q1.35705 9.90313 1.35325 9.86723Q1.34945 9.83133 1.34825 9.79524Q1.34704 9.75916 1.34845 9.72308Q1.34986 9.687 1.35386 9.65112Q1.35787 9.61524 1.36446 9.57974Q1.37104 9.54424 1.38018 9.50932Q1.38931 9.47438 1.40094 9.44021Q1.41257 9.40603 1.42663 9.37277Q1.4407 9.33952 1.45713 9.30737Q1.47356 9.27522 1.49227 9.24435Q1.51098 9.21347 1.53187 9.18402Q1.55275 9.15457 1.57571 9.12671Q1.59867 9.09884 1.62358 9.07271Q1.64849 9.04658 1.67523 9.02231Q1.70196 8.99804 1.73037 8.97577Q1.75879 8.9535 1.78874 8.93333Q1.81869 8.91317 1.85001 8.89522Q1.88134 8.87727 1.91388 8.86162Q1.94642 8.84598 1.98 8.83273Q2.01358 8.81948 2.04804 8.80868Q2.08249 8.79789 2.11763 8.78961Q2.15277 8.78133 2.18842 8.77561Q2.22407 8.76989 2.26004 8.76676L6.10149 8.43229L7.57384 4.7907Q7.58773 4.75634 7.60413 4.72311Q7.62053 4.68987 7.63934 4.65794Q7.65816 4.62601 7.67929 4.59557Q7.70042 4.56512 7.72375 4.53632Q7.74708 4.50753 7.77247 4.48054Q7.79787 4.45355 7.8252 4.42852Q7.85253 4.40348 7.88164 4.38054Q7.91074 4.3576 7.94147 4.33688Q7.9722 4.31616 8.00437 4.29778Q8.03655 4.27939 8.07 4.26344Q8.10346 4.24749 8.138 4.23406Q8.17254 4.22063 8.20798 4.20979Q8.24342 4.19896 8.27957 4.19078Q8.31572 4.18261 8.35237 4.17713Q8.38902 4.17165 8.42598 4.16891Q8.46294 4.16616 8.5 4.16616Q8.53706 4.16616 8.57402 4.16891Q8.61098 4.17165 8.64763 4.17713Q8.68429 4.18261 8.72043 4.19078Q8.75658 4.19896 8.79202 4.20979Q8.82746 4.22063 8.862 4.23406Q8.89655 4.24749 8.93 4.26344Q8.96345 4.27939 8.99563 4.29778Q9.0278 4.31616 9.05853 4.33688Q9.08926 4.3576 9.11837 4.38054Q9.14747 4.40348 9.1748 4.42852Q9.20213 4.45355 9.22753 4.48054Q9.25292 4.50753 9.27625 4.53632Q9.29958 4.56512 9.32071 4.59557Q9.34184 4.62601 9.36066 4.65794Q9.37947 4.68987 9.39587 4.7231Q9.41227 4.75634 9.42616 4.7907L10.8985 8.43229L14.74 8.76676Q14.7759 8.76989 14.8116 8.77561Q14.8472 8.78133 14.8824 8.78961Q14.9175 8.79789 14.952 8.80868Q14.9864 8.81948 15.02 8.83273Q15.0536 8.84598 15.0861 8.86162Q15.1187 8.87727 15.15 8.89522Q15.1813 8.91317 15.2113 8.93333Q15.2412 8.9535 15.2696 8.97577Q15.298 8.99804 15.3248 9.02231Q15.3515 9.04658 15.3764 9.07271Q15.4013 9.09884 15.4243 9.12671Q15.4472 9.15457 15.4681 9.18402Q15.489 9.21347 15.5077 9.24435Q15.5264 9.27523 15.5429 9.30738Q15.5593 9.33952 15.5734 9.37278Q15.5874 9.40603 15.5991 9.44021Q15.6107 9.47439 15.6198 9.50932Q15.629 9.54425 15.6355 9.57975Q15.6421 9.61524 15.6461 9.65112Q15.6501 9.68701 15.6515 9.72308Q15.653 9.75916 15.6518 9.79524Q15.6505 9.83133 15.6467 9.86723Q15.6429 9.90313 15.6366 9.93867Q15.6302 9.97421 15.6212 10.0092Q15.6123 10.0442 15.6009 10.0784Q15.5894 10.1127 15.5756 10.146Q15.5617 10.1793 15.5454 10.2116Q15.5292 10.2438 15.5107 10.2748Q15.4921 10.3058 15.4714 10.3353Q15.4507 10.3649 15.4279 10.3929Q15.4051 10.4209 15.3803 10.4472Q15.3556 10.4734 15.329 10.4979Z" id="star" fill="none" fill-rule="evenodd" stroke="#2B2E4A" stroke-width="2" />
        <g id="amount" transform="translate(192 0)">
          <path d="M6.9729 9.96116C6.97501 9.99352 6.97608 10.0262 6.97608 10.0591C6.97608 10.0591 7 19.7699 7 19.7699C7 20.0679 6.7797 20.3094 6.50946 20.3094C6.50946 20.3094 0.514462 20.3094 0.514462 20.3094C0.243541 20.3094 0.0239171 20.067 0.0239171 19.7699C0.0239171 19.7699 -3.41692e-17 10.0591 -3.41692e-17 10.0591C-3.41692e-17 10.026 0.00107949 9.99322 0.00320177 9.96072C0.0622906 8.42875 0.933681 7.12871 2 6L2.13717 0.986591C2.10374 0.435873 2.28812 0.380984 2.82814 0.494054L3.77941 0.277661Q3.83409 0.265221 3.88982 0.25898Q3.94555 0.252739 4.00163 0.252775Q4.05771 0.25281 4.11344 0.259122Q4.16916 0.265434 4.22383 0.277943Q4.2785 0.290451 4.33142 0.309Q4.38434 0.327548 4.43486 0.351903Q4.48537 0.376258 4.53285 0.406114Q4.58032 0.43597 4.62415 0.470951Q4.66798 0.505932 4.70762 0.545599Q4.74727 0.585266 4.78222 0.629121Q4.81717 0.672975 4.847 0.720466Q4.87682 0.767957 4.90115 0.818488Q4.92547 0.869019 4.94398 0.921954Q4.9625 0.97489 4.97497 1.02956Q4.98745 1.08424 4.99372 1.13997Q5 1.19569 5 1.25177C4.72682 2.84514 4.85779 6.45533 5 6C6.04252 7.12876 6.91396 8.429 6.9729 9.96116Z" id="bottle" fill="none" fill-rule="evenodd" stroke="#2B2E4A" stroke-opacity="0.9019608" stroke-width="2" />
        </g>
      </g>
    </g>
  </g>
</svg>