<?xml version="1.0" encoding="utf-8"?>
<svg width="168px" height="298px" viewBox="0 0 168 298" version="1.1" xmlns:xlink="http://www.w3.org/1999/xlink" xmlns="http://www.w3.org/2000/svg">
  <defs>
    <path d="M19.999 0L145.001 0Q145.492 0 145.982 0.0240897Q146.473 0.0481793 146.961 0.0963006Q147.45 0.144422 147.935 0.216459Q148.421 0.288496 148.903 0.384275Q149.384 0.480054 149.86 0.599345Q150.337 0.718635 150.806 0.86115Q151.276 1.00366 151.738 1.16906Q152.201 1.33446 152.654 1.52233Q153.108 1.71021 153.552 1.92012Q153.995 2.13003 154.428 2.36146Q154.861 2.59289 155.283 2.84529Q155.704 3.09768 156.112 3.37044Q156.52 3.64319 156.914 3.93565Q157.309 4.22811 157.688 4.53956Q158.068 4.85102 158.432 5.18072Q158.795 5.51042 159.142 5.85757Q159.49 6.20472 159.819 6.56849Q160.149 6.93226 160.46 7.31177Q160.772 7.69128 161.064 8.08561Q161.357 8.47994 161.63 8.88815Q161.902 9.29636 162.155 9.71746Q162.407 10.1386 162.639 10.5715Q162.87 11.0045 163.08 11.4483Q163.29 11.8921 163.478 12.3457Q163.666 12.7993 163.831 13.2615Q163.996 13.7238 164.139 14.1936Q164.281 14.6634 164.401 15.1396Q164.52 15.6159 164.616 16.0974Q164.711 16.5789 164.784 17.0645Q164.856 17.5502 164.904 18.0388Q164.952 18.5273 164.976 19.0177Q165 19.5081 165 19.999L165 275.001Q165 275.492 164.976 275.982Q164.952 276.473 164.904 276.961Q164.856 277.45 164.784 277.935Q164.711 278.421 164.616 278.903Q164.52 279.384 164.401 279.86Q164.281 280.337 164.139 280.806Q163.996 281.276 163.831 281.738Q163.666 282.201 163.478 282.654Q163.29 283.108 163.08 283.552Q162.87 283.995 162.639 284.428Q162.407 284.861 162.155 285.283Q161.902 285.704 161.63 286.112Q161.357 286.52 161.064 286.914Q160.772 287.309 160.46 287.688Q160.149 288.068 159.819 288.431Q159.49 288.795 159.142 289.142Q158.795 289.49 158.431 289.819Q158.068 290.149 157.688 290.46Q157.309 290.772 156.914 291.064Q156.52 291.357 156.112 291.629Q155.704 291.902 155.283 292.155Q154.861 292.407 154.428 292.638Q153.995 292.87 153.552 293.08Q153.108 293.29 152.654 293.478Q152.201 293.665 151.738 293.831Q151.276 293.996 150.806 294.139Q150.337 294.281 149.86 294.401Q149.384 294.52 148.903 294.616Q148.421 294.711 147.935 294.784Q147.45 294.856 146.961 294.904Q146.473 294.952 145.982 294.976Q145.492 295 145.001 295L19.999 295Q19.5081 295 19.0177 294.976Q18.5273 294.952 18.0388 294.904Q17.5502 294.856 17.0645 294.784Q16.5789 294.711 16.0974 294.616Q15.6159 294.52 15.1396 294.401Q14.6634 294.281 14.1936 294.139Q13.7238 293.996 13.2615 293.831Q12.7993 293.665 12.3457 293.478Q11.8921 293.29 11.4483 293.08Q11.0045 292.87 10.5715 292.638Q10.1386 292.407 9.71746 292.155Q9.29636 291.902 8.88815 291.629Q8.47994 291.357 8.08561 291.064Q7.69128 290.772 7.31177 290.46Q6.93226 290.149 6.56849 289.819Q6.20472 289.49 5.85757 289.142Q5.51042 288.795 5.18072 288.431Q4.85102 288.068 4.53956 287.688Q4.22811 287.309 3.93565 286.914Q3.64319 286.52 3.37044 286.112Q3.09768 285.704 2.84529 285.283Q2.59289 284.861 2.36146 284.428Q2.13003 283.995 1.92012 283.552Q1.71021 283.108 1.52233 282.654Q1.33446 282.201 1.16906 281.738Q1.00366 281.276 0.86115 280.806Q0.718635 280.337 0.599345 279.86Q0.480054 279.384 0.384275 278.903Q0.288496 278.421 0.216459 277.935Q0.144422 277.45 0.0963006 276.961Q0.0481793 276.473 0.0240897 275.982Q0 275.492 0 275.001L0 19.999Q0 19.5081 0.0240897 19.0177Q0.0481793 18.5273 0.0963006 18.0388Q0.144422 17.5502 0.216459 17.0645Q0.288496 16.5789 0.384275 16.0974Q0.480054 15.6159 0.599345 15.1396Q0.718635 14.6634 0.86115 14.1936Q1.00366 13.7238 1.16906 13.2615Q1.33446 12.7993 1.52233 12.3457Q1.71021 11.8921 1.92012 11.4483Q2.13003 11.0045 2.36146 10.5715Q2.59289 10.1386 2.84529 9.71746Q3.09768 9.29636 3.37044 8.88815Q3.64319 8.47994 3.93565 8.08561Q4.22811 7.69128 4.53956 7.31177Q4.85102 6.93226 5.18072 6.56849Q5.51042 6.20472 5.85757 5.85757Q6.20472 5.51042 6.56849 5.18072Q6.93226 4.85102 7.31177 4.53956Q7.69128 4.22811 8.08561 3.93565Q8.47994 3.64319 8.88815 3.37044Q9.29636 3.09768 9.71746 2.84529Q10.1386 2.59289 10.5715 2.36146Q11.0045 2.13003 11.4483 1.92012Q11.8921 1.71021 12.3457 1.52233Q12.7993 1.33446 13.2615 1.16906Q13.7238 1.00366 14.1936 0.86115Q14.6634 0.718635 15.1396 0.599345Q15.6159 0.480054 16.0974 0.384275Q16.5789 0.288496 17.0645 0.216459Q17.5502 0.144422 18.0388 0.0963006Q18.5273 0.0481793 19.0177 0.0240897Q19.5081 0 19.999 0Z" id="path_1" />
    <path d="M68.499 270L95.501 270Q95.6851 270 95.869 270.009Q96.0528 270.018 96.236 270.036Q96.4192 270.054 96.6013 270.081Q96.7834 270.108 96.964 270.144Q97.1445 270.18 97.3231 270.225Q97.5017 270.269 97.6778 270.323Q97.854 270.376 98.0273 270.438Q98.2007 270.5 98.3707 270.571Q98.5408 270.641 98.7072 270.72Q98.8736 270.799 99.036 270.885Q99.1983 270.972 99.3563 271.067Q99.5142 271.161 99.6672 271.264Q99.8203 271.366 99.9681 271.476Q100.116 271.585 100.258 271.702Q100.401 271.819 100.537 271.943Q100.673 272.066 100.804 272.196Q100.934 272.327 101.057 272.463Q101.181 272.599 101.298 272.742Q101.415 272.884 101.524 273.032Q101.634 273.18 101.736 273.333Q101.838 273.486 101.933 273.644Q102.028 273.802 102.115 273.964Q102.201 274.126 102.28 274.293Q102.359 274.459 102.429 274.629Q102.5 274.799 102.562 274.973Q102.624 275.146 102.677 275.322Q102.731 275.498 102.775 275.677Q102.82 275.855 102.856 276.036Q102.892 276.217 102.919 276.399Q102.946 276.581 102.964 276.764Q102.982 276.947 102.991 277.131Q103 277.315 103 277.499L103 277.501Q103 277.685 102.991 277.869Q102.982 278.053 102.964 278.236Q102.946 278.419 102.919 278.601Q102.892 278.783 102.856 278.964Q102.82 279.145 102.775 279.323Q102.731 279.502 102.677 279.678Q102.624 279.854 102.562 280.027Q102.5 280.201 102.429 280.371Q102.359 280.541 102.28 280.707Q102.201 280.874 102.115 281.036Q102.028 281.198 101.933 281.356Q101.838 281.514 101.736 281.667Q101.634 281.82 101.524 281.968Q101.415 282.116 101.298 282.258Q101.181 282.401 101.057 282.537Q100.934 282.673 100.804 282.804Q100.673 282.934 100.537 283.057Q100.401 283.181 100.258 283.298Q100.116 283.415 99.9681 283.524Q99.8203 283.634 99.6672 283.736Q99.5141 283.838 99.3563 283.933Q99.1983 284.028 99.036 284.114Q98.8736 284.201 98.7072 284.28Q98.5408 284.359 98.3707 284.429Q98.2007 284.5 98.0273 284.562Q97.854 284.624 97.6778 284.677Q97.5017 284.73 97.3231 284.775Q97.1445 284.82 96.964 284.856Q96.7834 284.892 96.6013 284.919Q96.4192 284.946 96.236 284.964Q96.0528 284.982 95.869 284.991Q95.6851 285 95.501 285L68.499 285Q68.3149 285 68.131 284.991Q67.9472 284.982 67.764 284.964Q67.5808 284.946 67.3987 284.919Q67.2166 284.892 67.036 284.856Q66.8554 284.82 66.6769 284.775Q66.4983 284.73 66.3221 284.677Q66.146 284.624 65.9727 284.562Q65.7993 284.5 65.6292 284.429Q65.4592 284.359 65.2928 284.28Q65.1263 284.201 64.964 284.114Q64.8016 284.028 64.6437 283.933Q64.4858 283.838 64.3328 283.736Q64.1797 283.634 64.0318 283.524Q63.884 283.415 63.7417 283.298Q63.5994 283.181 63.463 283.057Q63.3266 282.934 63.1964 282.804Q63.0662 282.673 62.9426 282.537Q62.819 282.401 62.7022 282.258Q62.5854 282.116 62.4757 281.968Q62.3661 281.82 62.2638 281.667Q62.1615 281.514 62.0669 281.356Q61.9722 281.198 61.8855 281.036Q61.7987 280.874 61.72 280.707Q61.6413 280.541 61.5708 280.371Q61.5004 280.201 61.4384 280.027Q61.3763 279.854 61.3229 279.678Q61.2695 279.502 61.2247 279.323Q61.18 279.145 61.1441 278.964Q61.1082 278.783 61.0812 278.601Q61.0542 278.419 61.0361 278.236Q61.0181 278.053 61.009 277.869Q61 277.685 61 277.501L61 277.499Q61 277.315 61.009 277.131Q61.0181 276.947 61.0361 276.764Q61.0542 276.581 61.0812 276.399Q61.1082 276.217 61.1441 276.036Q61.18 275.855 61.2247 275.677Q61.2695 275.498 61.3229 275.322Q61.3763 275.146 61.4384 274.973Q61.5004 274.799 61.5708 274.629Q61.6413 274.459 61.72 274.293Q61.7987 274.126 61.8855 273.964Q61.9722 273.802 62.0669 273.644Q62.1615 273.486 62.2638 273.333Q62.3661 273.18 62.4757 273.032Q62.5854 272.884 62.7022 272.742Q62.819 272.599 62.9426 272.463Q63.0662 272.327 63.1964 272.196Q63.3266 272.066 63.463 271.943Q63.5994 271.819 63.7417 271.702Q63.884 271.585 64.0318 271.476Q64.1797 271.366 64.3328 271.264Q64.4858 271.161 64.6437 271.067Q64.8016 270.972 64.964 270.885Q65.1263 270.799 65.2928 270.72Q65.4592 270.641 65.6292 270.571Q65.7993 270.5 65.9727 270.438Q66.146 270.376 66.3221 270.323Q66.4983 270.269 66.6769 270.225Q66.8554 270.18 67.036 270.144Q67.2166 270.108 67.3987 270.081Q67.5808 270.054 67.764 270.036Q67.9472 270.018 68.131 270.009Q68.3149 270 68.499 270Z" id="path_2" />
    <path d="M14.999 29L150.001 29Q150.124 29 150.246 29.006Q150.369 29.012 150.491 29.0241Q150.613 29.0361 150.735 29.0541Q150.856 29.0721 150.976 29.0961Q151.097 29.12 151.216 29.1498Q151.335 29.1796 151.452 29.2153Q151.57 29.2509 151.685 29.2922Q151.801 29.3336 151.914 29.3805Q152.027 29.4275 152.138 29.48Q152.249 29.5324 152.357 29.5903Q152.466 29.6481 152.571 29.7112Q152.676 29.7743 152.778 29.8425Q152.88 29.9107 152.979 29.9838Q153.077 30.0569 153.172 30.1347Q153.267 30.2126 153.358 30.295Q153.449 30.3774 153.536 30.4642Q153.623 30.5509 153.705 30.6419Q153.787 30.7328 153.865 30.8277Q153.943 30.9225 154.016 31.0211Q154.089 31.1197 154.158 31.2217Q154.226 31.3237 154.289 31.429Q154.352 31.5343 154.41 31.6425Q154.468 31.7507 154.52 31.8616Q154.573 31.9726 154.619 32.086Q154.666 32.1993 154.708 32.3149Q154.749 32.4304 154.785 32.5479Q154.82 32.6653 154.85 32.7843Q154.88 32.9034 154.904 33.0237Q154.928 33.1441 154.946 33.2655Q154.964 33.3869 154.976 33.509Q154.988 33.6311 154.994 33.7537Q155 33.8763 155 33.999L155 255.001Q155 255.124 154.994 255.246Q154.988 255.369 154.976 255.491Q154.964 255.613 154.946 255.734Q154.928 255.856 154.904 255.976Q154.88 256.097 154.85 256.216Q154.82 256.335 154.785 256.452Q154.749 256.57 154.708 256.685Q154.666 256.801 154.619 256.914Q154.573 257.027 154.52 257.138Q154.468 257.249 154.41 257.357Q154.352 257.466 154.289 257.571Q154.226 257.676 154.158 257.778Q154.089 257.88 154.016 257.979Q153.943 258.077 153.865 258.172Q153.787 258.267 153.705 258.358Q153.623 258.449 153.536 258.536Q153.449 258.623 153.358 258.705Q153.267 258.787 153.172 258.865Q153.077 258.943 152.979 259.016Q152.88 259.089 152.778 259.157Q152.676 259.226 152.571 259.289Q152.466 259.352 152.357 259.41Q152.249 259.468 152.138 259.52Q152.027 259.572 151.914 259.619Q151.801 259.666 151.685 259.708Q151.57 259.749 151.452 259.785Q151.335 259.82 151.216 259.85Q151.097 259.88 150.976 259.904Q150.856 259.928 150.735 259.946Q150.613 259.964 150.491 259.976Q150.369 259.988 150.246 259.994Q150.124 260 150.001 260L14.999 260Q14.8763 260 14.7537 259.994Q14.6311 259.988 14.509 259.976Q14.3869 259.964 14.2655 259.946Q14.1441 259.928 14.0237 259.904Q13.9034 259.88 13.7843 259.85Q13.6653 259.82 13.5479 259.785Q13.4304 259.749 13.3149 259.708Q13.1993 259.666 13.086 259.619Q12.9726 259.572 12.8616 259.52Q12.7507 259.468 12.6425 259.41Q12.5343 259.352 12.429 259.289Q12.3237 259.226 12.2217 259.157Q12.1197 259.089 12.0211 259.016Q11.9225 258.943 11.8277 258.865Q11.7328 258.787 11.6419 258.705Q11.5509 258.623 11.4642 258.536Q11.3774 258.449 11.295 258.358Q11.2126 258.267 11.1347 258.172Q11.0569 258.077 10.9838 257.979Q10.9107 257.88 10.8425 257.778Q10.7743 257.676 10.7112 257.571Q10.6481 257.466 10.5903 257.357Q10.5324 257.249 10.48 257.138Q10.4275 257.027 10.3805 256.914Q10.3336 256.801 10.2922 256.685Q10.2509 256.57 10.2153 256.452Q10.1796 256.335 10.1498 256.216Q10.12 256.097 10.0961 255.976Q10.0721 255.856 10.0541 255.734Q10.0361 255.613 10.0241 255.491Q10.012 255.369 10.006 255.246Q10 255.124 10 255.001L10 33.999Q10 33.8763 10.006 33.7537Q10.012 33.6311 10.0241 33.509Q10.0361 33.3869 10.0541 33.2655Q10.0721 33.1441 10.0961 33.0237Q10.12 32.9034 10.1498 32.7843Q10.1796 32.6653 10.2153 32.5479Q10.2509 32.4304 10.2922 32.3149Q10.3336 32.1993 10.3805 32.086Q10.4275 31.9726 10.48 31.8616Q10.5324 31.7507 10.5903 31.6425Q10.6481 31.5343 10.7112 31.429Q10.7743 31.3237 10.8425 31.2217Q10.9107 31.1197 10.9838 31.0211Q11.0569 30.9225 11.1347 30.8277Q11.2126 30.7328 11.295 30.6419Q11.3774 30.5509 11.4642 30.4642Q11.5509 30.3774 11.6419 30.295Q11.7328 30.2126 11.8277 30.1347Q11.9225 30.0569 12.0211 29.9838Q12.1197 29.9107 12.2217 29.8425Q12.3237 29.7743 12.429 29.7112Q12.5343 29.6481 12.6425 29.5903Q12.7507 29.5324 12.8616 29.48Q12.9726 29.4275 13.086 29.3805Q13.1993 29.3336 13.3149 29.2922Q13.4304 29.2509 13.5479 29.2153Q13.6653 29.1796 13.7843 29.1498Q13.9034 29.12 14.0237 29.0961Q14.1441 29.0721 14.2655 29.0541Q14.3869 29.0361 14.509 29.0241Q14.6311 29.012 14.7537 29.006Q14.8763 29 14.999 29Z" id="path_3" />
    <path d="M0 0L119 0L119 110L0 110L0 0Z" id="path_4" />
    <path d="M0 -2.84217e-14L86.9231 -2.84217e-14L86.9231 254L0 254L0 -2.84217e-14Z" id="path_5" />
    <path d="M0 0L119 0L119 30L0 30L0 0Z" id="path_6" />
    <path d="M86.329 8.45619L85.5495 9.17188L85.7681 10.1613Q85.776 10.1971 85.7812 10.2334Q85.7865 10.2698 85.7891 10.3064Q85.7917 10.343 85.7916 10.3798Q85.7914 10.4165 85.7886 10.4531Q85.7858 10.4897 85.7803 10.526Q85.7749 10.5623 85.7667 10.5981Q85.7586 10.6339 85.7478 10.669Q85.7371 10.7041 85.7238 10.7384Q85.7105 10.7726 85.6947 10.8058Q85.679 10.8389 85.6608 10.8708Q85.6427 10.9027 85.6222 10.9332Q85.6017 10.9637 85.5791 10.9926Q85.5565 11.0216 85.5318 11.0487Q85.5071 11.0759 85.4804 11.1012Q85.4538 11.1265 85.4254 11.1497Q85.397 11.173 85.367 11.1941Q85.3369 11.2152 85.3054 11.2341Q85.2739 11.2529 85.2411 11.2694Q85.2083 11.2859 85.1743 11.2999Q85.1404 11.3139 85.1055 11.3254Q85.0707 11.3369 85.035 11.3459Q84.9994 11.3548 84.9632 11.361Q84.9271 11.3673 84.8905 11.3709Q84.854 11.3745 84.8173 11.3754Q84.7806 11.3763 84.7439 11.3745Q84.7072 11.3728 84.6708 11.3683Q84.6343 11.3638 84.5983 11.3567Q84.5623 11.3495 84.5269 11.3398Q84.4915 11.33 84.4569 11.3177Q84.4223 11.3053 84.3887 11.2905Q84.3552 11.2756 84.3228 11.2584Q84.2904 11.2411 84.2593 11.2215L83.5 10.7422L82.7407 11.2215Q82.7096 11.2411 82.6772 11.2584Q82.6448 11.2756 82.6113 11.2905Q82.5777 11.3053 82.5431 11.3177Q82.5085 11.33 82.4731 11.3398Q82.4377 11.3495 82.4017 11.3567Q82.3657 11.3638 82.3292 11.3683Q82.2928 11.3728 82.2561 11.3745Q82.2194 11.3763 82.1827 11.3754Q82.146 11.3745 82.1095 11.3709Q82.0729 11.3673 82.0368 11.361Q82.0006 11.3548 81.965 11.3459Q81.9293 11.3369 81.8945 11.3254Q81.8596 11.3139 81.8257 11.2999Q81.7917 11.2859 81.7589 11.2694Q81.7261 11.2529 81.6946 11.2341Q81.6631 11.2152 81.633 11.1941Q81.603 11.173 81.5746 11.1497Q81.5462 11.1265 81.5196 11.1012Q81.4929 11.0759 81.4682 11.0487Q81.4435 11.0216 81.4209 10.9926Q81.3982 10.9637 81.3778 10.9332Q81.3573 10.9027 81.3392 10.8708Q81.321 10.8389 81.3052 10.8058Q81.2895 10.7726 81.2762 10.7384Q81.2629 10.7041 81.2522 10.669Q81.2414 10.6339 81.2333 10.5981Q81.2252 10.5623 81.2197 10.526Q81.2142 10.4897 81.2114 10.4531Q81.2086 10.4165 81.2084 10.3798Q81.2083 10.343 81.2109 10.3064Q81.2135 10.2698 81.2188 10.2334Q81.224 10.1971 81.2319 10.1613L81.4505 9.17188L80.671 8.45619Q80.6444 8.43177 80.6197 8.4055Q80.5949 8.37922 80.5721 8.35123Q80.5493 8.32324 80.5286 8.29367Q80.5079 8.2641 80.4893 8.23312Q80.4708 8.20214 80.4546 8.16989Q80.4383 8.13765 80.4244 8.10432Q80.4105 8.07099 80.3991 8.03675Q80.3877 8.0025 80.3788 7.96752Q80.3698 7.93254 80.3634 7.897Q80.357 7.86147 80.3532 7.82556Q80.3494 7.78966 80.3482 7.75358Q80.347 7.71749 80.3484 7.68142Q80.3498 7.64534 80.3539 7.60946Q80.3579 7.57358 80.3645 7.53808Q80.371 7.50258 80.3802 7.46765Q80.3893 7.43272 80.4009 7.39854Q80.4126 7.36436 80.4266 7.33111Q80.4407 7.29786 80.4571 7.26571Q80.4735 7.23356 80.4923 7.20268Q80.511 7.1718 80.5319 7.14235Q80.5527 7.1129 80.5757 7.08504Q80.5987 7.05718 80.6236 7.03104Q80.6485 7.00491 80.6752 6.98064Q80.702 6.95638 80.7304 6.9341Q80.7588 6.91183 80.7887 6.89166Q80.8187 6.8715 80.85 6.85355Q80.8813 6.8356 80.9139 6.81996Q80.9464 6.80432 80.98 6.79106Q81.0136 6.77781 81.048 6.76702Q81.0825 6.75622 81.1176 6.74795Q81.1528 6.73967 81.1884 6.73395Q81.2241 6.72823 81.26 6.7251L82.2302 6.64063L82.5738 5.7907Q82.5877 5.75634 82.6041 5.72311Q82.6205 5.68987 82.6393 5.65794Q82.6582 5.62601 82.6793 5.59557Q82.7004 5.56512 82.7237 5.53632Q82.7471 5.50753 82.7725 5.48054Q82.7979 5.45355 82.8252 5.42852Q82.8525 5.40348 82.8816 5.38054Q82.9108 5.3576 82.9415 5.33688Q82.9722 5.31616 83.0044 5.29778Q83.0366 5.27939 83.07 5.26344Q83.1035 5.24749 83.138 5.23406Q83.1725 5.22063 83.208 5.20979Q83.2434 5.19896 83.2796 5.19078Q83.3157 5.18261 83.3524 5.17713Q83.389 5.17165 83.426 5.16891Q83.4629 5.16616 83.5 5.16616Q83.5371 5.16616 83.574 5.16891Q83.611 5.17165 83.6476 5.17713Q83.6843 5.18261 83.7204 5.19078Q83.7566 5.19896 83.792 5.20979Q83.8275 5.22063 83.862 5.23406Q83.8966 5.24749 83.93 5.26344Q83.9635 5.27939 83.9956 5.29778Q84.0278 5.31616 84.0585 5.33688Q84.0893 5.3576 84.1184 5.38054Q84.1475 5.40348 84.1748 5.42852Q84.2021 5.45355 84.2275 5.48054Q84.2529 5.50753 84.2763 5.53632Q84.2996 5.56512 84.3207 5.59557Q84.3419 5.62602 84.3607 5.65794Q84.3795 5.68987 84.3959 5.72311Q84.4123 5.75634 84.4262 5.7907L84.7698 6.64063L85.74 6.7251Q85.7759 6.72823 85.8116 6.73395Q85.8472 6.73967 85.8824 6.74795Q85.9175 6.75622 85.952 6.76702Q85.9864 6.77781 86.02 6.79106Q86.0536 6.80432 86.0861 6.81996Q86.1186 6.8356 86.15 6.85355Q86.1813 6.8715 86.2113 6.89166Q86.2412 6.91183 86.2696 6.9341Q86.298 6.95638 86.3248 6.98064Q86.3515 7.00491 86.3764 7.03104Q86.4013 7.05718 86.4243 7.08504Q86.4472 7.1129 86.4681 7.14235Q86.489 7.1718 86.5077 7.20268Q86.5264 7.23356 86.5429 7.26571Q86.5593 7.29786 86.5734 7.33111Q86.5874 7.36436 86.5991 7.39854Q86.6107 7.43272 86.6198 7.46765Q86.6289 7.50258 86.6355 7.53808Q86.6421 7.57358 86.6461 7.60946Q86.6501 7.64534 86.6515 7.68142Q86.6529 7.71749 86.6517 7.75358Q86.6505 7.78966 86.6467 7.82556Q86.6429 7.86147 86.6366 7.897Q86.6302 7.93254 86.6212 7.96752Q86.6123 8.0025 86.6009 8.03675Q86.5894 8.07099 86.5756 8.10432Q86.5617 8.13765 86.5454 8.16989Q86.5292 8.20214 86.5107 8.23312Q86.4921 8.2641 86.4714 8.29367Q86.4507 8.32324 86.4279 8.35123Q86.4051 8.37922 86.3803 8.4055Q86.3556 8.43177 86.329 8.45619Z" id="path_7" />
    <path d="M4.999 0L140.001 0Q140.124 0 140.246 0.00602151Q140.369 0.012043 140.491 0.0240715Q140.613 0.0361001 140.735 0.0541066Q140.856 0.0721132 140.976 0.0960544Q141.097 0.119996 141.216 0.149814Q141.335 0.179632 141.452 0.215255Q141.57 0.250879 141.685 0.292221Q141.801 0.333564 141.914 0.380526Q142.027 0.427489 142.138 0.479957Q142.249 0.532426 142.358 0.590276Q142.466 0.648125 142.571 0.711215Q142.676 0.774305 142.778 0.842483Q142.88 0.910662 142.979 0.983765Q143.077 1.05687 143.172 1.13472Q143.267 1.21257 143.358 1.29499Q143.449 1.3774 143.536 1.46417Q143.623 1.55095 143.705 1.64188Q143.787 1.73281 143.865 1.82767Q143.943 1.92253 144.016 2.0211Q144.089 2.11967 144.158 2.2217Q144.226 2.32374 144.289 2.429Q144.352 2.53426 144.41 2.64249Q144.468 2.75072 144.52 2.86165Q144.573 2.97259 144.619 3.08597Q144.666 3.19934 144.708 3.31489Q144.749 3.43043 144.785 3.54787Q144.82 3.6653 144.85 3.78434Q144.88 3.90338 144.904 4.02374Q144.928 4.1441 144.946 4.26549Q144.964 4.38688 144.976 4.50901Q144.988 4.63114 144.994 4.75371Q145 4.87628 145 4.999L145 223.001Q145 223.124 144.994 223.246Q144.988 223.369 144.976 223.491Q144.964 223.613 144.946 223.734Q144.928 223.856 144.904 223.976Q144.88 224.097 144.85 224.216Q144.82 224.335 144.785 224.452Q144.749 224.57 144.708 224.685Q144.666 224.801 144.619 224.914Q144.573 225.027 144.52 225.138Q144.468 225.249 144.41 225.357Q144.352 225.466 144.289 225.571Q144.226 225.676 144.158 225.778Q144.089 225.88 144.016 225.979Q143.943 226.077 143.865 226.172Q143.787 226.267 143.705 226.358Q143.623 226.449 143.536 226.536Q143.449 226.623 143.358 226.705Q143.267 226.787 143.172 226.865Q143.077 226.943 142.979 227.016Q142.88 227.089 142.778 227.157Q142.676 227.226 142.571 227.289Q142.466 227.352 142.357 227.41Q142.249 227.468 142.138 227.52Q142.027 227.572 141.914 227.619Q141.801 227.666 141.685 227.708Q141.57 227.749 141.452 227.785Q141.335 227.82 141.216 227.85Q141.097 227.88 140.976 227.904Q140.856 227.928 140.735 227.946Q140.613 227.964 140.491 227.976Q140.369 227.988 140.246 227.994Q140.124 228 140.001 228L4.999 228Q4.87628 228 4.75371 227.994Q4.63114 227.988 4.50901 227.976Q4.38688 227.964 4.26549 227.946Q4.1441 227.928 4.02374 227.904Q3.90338 227.88 3.78434 227.85Q3.6653 227.82 3.54787 227.785Q3.43043 227.749 3.31489 227.708Q3.19934 227.666 3.08597 227.619Q2.97259 227.572 2.86165 227.52Q2.75072 227.468 2.64249 227.41Q2.53426 227.352 2.429 227.289Q2.32374 227.226 2.2217 227.157Q2.11967 227.089 2.0211 227.016Q1.92253 226.943 1.82767 226.865Q1.73281 226.787 1.64188 226.705Q1.55095 226.623 1.46417 226.536Q1.3774 226.449 1.29499 226.358Q1.21257 226.267 1.13472 226.172Q1.05687 226.077 0.983765 225.979Q0.910662 225.88 0.842483 225.778Q0.774305 225.676 0.711215 225.571Q0.648125 225.466 0.590276 225.357Q0.532426 225.249 0.479957 225.138Q0.427489 225.027 0.380526 224.914Q0.333564 224.801 0.292221 224.685Q0.250879 224.57 0.215255 224.452Q0.179632 224.335 0.149814 224.216Q0.119996 224.097 0.0960544 223.976Q0.0721132 223.856 0.0541066 223.734Q0.0361001 223.613 0.0240715 223.491Q0.012043 223.369 0.00602151 223.246Q0 223.124 0 223.001L0 4.999Q0 4.87628 0.00602151 4.75371Q0.012043 4.63114 0.0240715 4.50901Q0.0361001 4.38688 0.0541066 4.26549Q0.0721132 4.1441 0.0960544 4.02374Q0.119996 3.90338 0.149814 3.78434Q0.179632 3.6653 0.215255 3.54787Q0.250879 3.43043 0.292221 3.31489Q0.333564 3.19934 0.380526 3.08597Q0.427489 2.97259 0.479957 2.86165Q0.532426 2.75072 0.590276 2.64249Q0.648125 2.53426 0.711215 2.429Q0.774305 2.32374 0.842483 2.2217Q0.910662 2.11967 0.983765 2.0211Q1.05687 1.92253 1.13472 1.82767Q1.21257 1.73281 1.29499 1.64188Q1.3774 1.55095 1.46417 1.46417Q1.55095 1.3774 1.64188 1.29499Q1.73281 1.21257 1.82767 1.13472Q1.92253 1.05687 2.0211 0.983765Q2.11967 0.910662 2.2217 0.842483Q2.32374 0.774305 2.429 0.711215Q2.53426 0.648125 2.64249 0.590276Q2.75072 0.532426 2.86165 0.479957Q2.97259 0.427489 3.08597 0.380526Q3.19934 0.333564 3.31489 0.292221Q3.43043 0.250879 3.54787 0.215255Q3.6653 0.179632 3.78434 0.149814Q3.90338 0.119996 4.02374 0.0960544Q4.1441 0.0721132 4.26549 0.0541066Q4.38688 0.0361001 4.50901 0.0240715Q4.63114 0.012043 4.75371 0.00602151Q4.87628 0 4.999 0Z" id="path_8" />
    <path d="M0 0L119 0L119 90L0 90L0 0Z" id="path_9" />
    <clipPath id="clip_1">
      <use xlink:href="#path_1" />
    </clipPath>
    <clipPath id="clip_2">
      <use xlink:href="#path_2" />
    </clipPath>
    <clipPath id="clip_3">
      <use xlink:href="#path_3" />
    </clipPath>
    <clipPath id="clip_4">
      <use xlink:href="#path_6" />
    </clipPath>
    <clipPath id="clip_5">
      <use xlink:href="#path_7" />
    </clipPath>
    <clipPath id="mask_1">
      <use xlink:href="#path_4" />
    </clipPath>
    <clipPath id="mask_2">
      <use xlink:href="#path_5" />
    </clipPath>
    <clipPath id="mask_3">
      <use xlink:href="#path_8" />
    </clipPath>
    <clipPath id="mask_4">
      <use xlink:href="#path_9" />
    </clipPath>
  </defs>
  <g id="Group" transform="translate(1.5 1.5)">
    <g id="phone">
      <g id="body">
        <g id="body">
          <g clip-path="url(#clip_1)">
            <use xlink:href="#path_1" fill="none" stroke="#2B2E4A" stroke-width="6" />
          </g>
        </g>
        <g id="home">
          <g clip-path="url(#clip_2)">
            <use xlink:href="#path_2" fill="none" stroke="#2B2E4A" stroke-width="6" />
          </g>
        </g>
        <g id="screen">
          <use stroke="none" fill="#FAFAFA" xlink:href="#path_3" fill-rule="evenodd" />
          <g clip-path="url(#clip_3)">
            <use xlink:href="#path_3" fill="none" stroke="#2B2E4A" stroke-width="6" />
          </g>
        </g>
        <path d="M64.499 13L99.501 13Q99.6238 13 99.7459 13.012Q99.8681 13.0241 99.9885 13.048Q100.109 13.072 100.226 13.1076Q100.344 13.1432 100.457 13.1902Q100.571 13.2372 100.679 13.2951Q100.787 13.353 100.889 13.4212Q100.991 13.4894 101.086 13.5672Q101.181 13.6451 101.268 13.7319Q101.355 13.8187 101.433 13.9136Q101.511 14.0086 101.579 14.1106Q101.647 14.2127 101.705 14.321Q101.763 14.4292 101.81 14.5427Q101.857 14.6561 101.892 14.7736Q101.928 14.8911 101.952 15.0115Q101.976 15.1319 101.988 15.2541Q102 15.3762 102 15.499L102 15.501Q102 15.6238 101.988 15.7459Q101.976 15.8681 101.952 15.9885Q101.928 16.1089 101.892 16.2264Q101.857 16.3439 101.81 16.4573Q101.763 16.5707 101.705 16.679Q101.647 16.7873 101.579 16.8894Q101.511 16.9914 101.433 17.0863Q101.355 17.1812 101.268 17.2681Q101.181 17.3549 101.086 17.4328Q100.991 17.5106 100.889 17.5788Q100.787 17.647 100.679 17.7049Q100.571 17.7628 100.457 17.8098Q100.344 17.8568 100.226 17.8924Q100.109 17.928 99.9885 17.952Q99.8681 17.9759 99.7459 17.988Q99.6238 18 99.501 18L64.499 18Q64.3762 18 64.2541 17.988Q64.1319 17.9759 64.0115 17.952Q63.8911 17.928 63.7736 17.8924Q63.6561 17.8568 63.5427 17.8098Q63.4292 17.7628 63.321 17.7049Q63.2127 17.647 63.1106 17.5788Q63.0085 17.5106 62.9136 17.4328Q62.8187 17.3549 62.7319 17.2681Q62.6451 17.1812 62.5672 17.0863Q62.4894 16.9914 62.4212 16.8894Q62.3529 16.7873 62.2951 16.679Q62.2372 16.5707 62.1902 16.4573Q62.1432 16.3439 62.1076 16.2264Q62.072 16.1089 62.048 15.9885Q62.0241 15.8681 62.012 15.7459Q62 15.6238 62 15.501L62 15.499Q62 15.3762 62.012 15.2541Q62.0241 15.1319 62.048 15.0115Q62.072 14.8911 62.1076 14.7736Q62.1432 14.6561 62.1902 14.5427Q62.2372 14.4292 62.2951 14.321Q62.3529 14.2127 62.4212 14.1106Q62.4894 14.0086 62.5672 13.9136Q62.6451 13.8187 62.7319 13.7319Q62.8187 13.6451 62.9136 13.5672Q63.0085 13.4894 63.1106 13.4212Q63.2127 13.353 63.321 13.2951Q63.4292 13.2372 63.5427 13.1902Q63.6561 13.1432 63.7736 13.1076Q63.8911 13.072 64.0115 13.048Q64.1319 13.0241 64.2541 13.012Q64.3762 13 64.499 13Z" id="speaker" fill="#2B2E4A" fill-rule="evenodd" stroke="none" />
        <path d="M121.5 19C123.985 19 126 16.9853 126 14.5C126 12.0147 123.985 10 121.5 10C119.015 10 117 12.0147 117 14.5C117 16.9853 119.015 19 121.5 19Z" id="camera" fill="#2B2E4A" fill-rule="evenodd" stroke="none" />
        <path d="M44.5 17C45.8807 17 47 15.8807 47 14.5C47 13.1193 45.8807 12 44.5 12C43.1193 12 42 13.1193 42 14.5C42 15.8807 43.1193 17 44.5 17Z" id="sensor-left" fill="#2B2E4A" fill-rule="evenodd" stroke="none" />
        <path d="M36.5 17C37.8807 17 39 15.8807 39 14.5C39 13.1193 37.8807 12 36.5 12C35.1193 12 34 13.1193 34 14.5C34 15.8807 35.1193 17 36.5 17Z" id="sensor-right" fill="#2B2E4A" fill-rule="evenodd" stroke="none" />
      </g>
    </g>
    <g id="post-1" transform="translate(23 42)">
      <g id="post-image">
        <path d="M0 0L119 0L119 110L0 110L0 0Z" id="mask" fill="#DFDFE2" fill-rule="evenodd" stroke="none" />
        <g clip-path="url(#mask_1)">
          <g id="bottle" transform="matrix(0.8660253 0.5000002 -0.5000002 0.8660253 47.500027 -94.00001)">
            <g id="bottle-1" transform="translate(0.99240386 0.91317594)">
              <path d="M120.969 102.83C120.99 103.146 121 103.464 121 103.785L121.233 217.937C121.233 220.841 119.086 223.195 116.452 223.195L58.0148 223.195C55.3739 223.195 53.2331 220.833 53.2331 217.937L53 103.785C53 103.463 53.0105 103.143 53.0312 102.826C53.6072 87.8929 62.1011 75.2206 74.0009 69.7857L75.5673 13L98.4328 13L99.9991 69.7857C111.9 75.2211 120.394 87.8953 120.969 102.83Z" id="shape" fill="#F4F4F6" fill-rule="evenodd" stroke="#2B2E4A" stroke-opacity="0.9019608" stroke-width="3" />
              <g id="label" transform="translate(53 105)">
                <path d="M68 0L68 68L0 68L0 0L68 0Z" id="label" fill="#BFC0C8" fill-rule="evenodd" stroke="#40425C" stroke-width="3" />
                <path d="M35.0076 48.0859L45.7322 39.0868L47.6606 41.385L36.936 50.384L35.0076 48.0859Z" id="bot" fill="#2B2E4A" fill-opacity="0.70000005" fill-rule="evenodd" stroke="none" />
                <path d="M14.0076 49.2262L52.3098 17.0868L54.2382 19.385L15.936 51.5243L14.0076 49.2262Z" id="center" fill="#2B2E4A" fill-opacity="0.70000005" fill-rule="evenodd" stroke="none" />
                <path d="M20.0076 26.0859L30.7322 17.0868L32.6606 19.385L21.936 28.384L20.0076 26.0859Z" id="top" fill="#2B2E4A" fill-opacity="0.70000005" fill-rule="evenodd" stroke="none" />
              </g>
              <g id="shadow" transform="matrix(1 0 0 1 0 -8.526513E-14)" opacity="0.1">
                <path d="M0 -2.84217e-14L86.9231 -2.84217e-14L86.9231 254L0 254L0 -2.84217e-14Z" id="Mask" fill="none" fill-rule="evenodd" stroke="none" />
                <g clip-path="url(#mask_2)">
                  <path d="M73.4236 65.866L73.1438 6.60861L76.0744 1L101.465 1L103.285 64.4978C116.33 69.8086 125.525 82.6135 125.525 97.5661C125.525 102.017 124.711 106.277 123.222 110.206L122.381 239.461Q122.38 239.657 122.36 239.851Q122.339 240.046 122.3 240.238Q122.261 240.429 122.203 240.616Q122.145 240.803 122.07 240.984Q121.994 241.164 121.901 241.336Q121.808 241.508 121.698 241.67Q121.589 241.833 121.464 241.983Q121.34 242.134 121.201 242.272Q121.062 242.41 120.911 242.534Q120.759 242.657 120.596 242.766Q120.433 242.874 120.26 242.966Q120.088 243.058 119.907 243.132Q119.726 243.207 119.539 243.263Q119.351 243.32 119.159 243.358Q118.968 243.396 118.773 243.415Q118.578 243.434 118.383 243.434L57.1345 243.434Q56.739 243.434 56.3511 243.357Q55.9633 243.279 55.5981 243.127Q55.233 242.975 54.9047 242.755Q54.5764 242.534 54.2976 242.254Q54.0188 241.973 53.8004 241.643Q53.5821 241.314 53.4325 240.947Q53.2829 240.581 53.208 240.193Q53.133 239.805 53.1356 239.409L54.1142 88.9802Q54.1163 88.6613 54.1588 88.3453Q54.2014 88.0293 54.2838 87.7212Q54.3662 87.4131 54.487 87.1181Q54.6079 86.823 54.7653 86.5456Q54.9226 86.2683 55.114 86.0132Q55.3053 85.7581 55.5275 85.5294Q55.7497 85.3006 55.9992 85.102Q56.2486 84.9034 56.5213 84.738C59.6665 76.5752 65.7255 69.8597 73.4236 65.866Z" id="shape" fill="#202338" fill-rule="evenodd" stroke="none" />
                </g>
              </g>
            </g>
          </g>
        </g>
        <path d="M12.5 18C16.0899 18 19 15.0899 19 11.5C19 7.91015 16.0899 5 12.5 5C8.91015 5 6 7.91015 6 11.5C6 15.0899 8.91015 18 12.5 18Z" id="pic" fill="#525469" fill-rule="evenodd" stroke="none" />
        <path d="M23 10L63 10L63 14L23 14L23 10Z" id="name" fill="#525469" fill-rule="evenodd" stroke="none" />
        <path d="M102 10L114 10L114 14L102 14L102 10Z" id="time" fill="#525469" fill-rule="evenodd" stroke="none" />
      </g>
      <g id="beer-name" transform="translate(0 110)">
        <g id="bg">
          <use stroke="none" fill="#FFFFFF" fill-opacity="0.101960786" xlink:href="#path_6" fill-rule="evenodd" />
          <g clip-path="url(#clip_4)">
            <use xlink:href="#path_6" fill="none" stroke="#2B2E4A" stroke-width="6" />
          </g>
        </g>
        <path d="M31 12L87 12L87 18L31 18L31 12Z" id="name" fill="#BFC0C8" fill-rule="evenodd" stroke="none" />
        <path d="M8 9L20 9L20 21L8 21L8 9Z" id="pic" fill="#525469" fill-rule="evenodd" stroke="none" />
      </g>
      <g id="rating" transform="translate(0 140)">
        <path d="M0 0L119 0L119 16L0 16L0 0Z" id="bg" fill="#2B2E4A" fill-rule="evenodd" stroke="none" />
        <path d="M38.329 8.45619L37.5495 9.17188L37.768 10.1613Q37.776 10.1971 37.7812 10.2334Q37.7865 10.2698 37.7891 10.3064Q37.7917 10.343 37.7916 10.3798Q37.7914 10.4165 37.7886 10.4531Q37.7858 10.4897 37.7803 10.526Q37.7749 10.5623 37.7667 10.5981Q37.7586 10.6339 37.7478 10.669Q37.7371 10.7041 37.7238 10.7384Q37.7105 10.7726 37.6947 10.8058Q37.679 10.8389 37.6608 10.8708Q37.6427 10.9027 37.6222 10.9332Q37.6017 10.9637 37.5791 10.9926Q37.5565 11.0216 37.5318 11.0487Q37.5071 11.0759 37.4804 11.1012Q37.4538 11.1265 37.4254 11.1497Q37.397 11.173 37.367 11.1941Q37.3369 11.2152 37.3054 11.2341Q37.2739 11.2529 37.2411 11.2694Q37.2083 11.2859 37.1743 11.2999Q37.1404 11.3139 37.1055 11.3254Q37.0707 11.3369 37.035 11.3459Q36.9994 11.3548 36.9632 11.361Q36.9271 11.3673 36.8905 11.3709Q36.854 11.3745 36.8173 11.3754Q36.7806 11.3763 36.7439 11.3745Q36.7072 11.3728 36.6708 11.3683Q36.6343 11.3638 36.5983 11.3567Q36.5623 11.3495 36.5269 11.3398Q36.4915 11.33 36.4569 11.3177Q36.4223 11.3053 36.3887 11.2905Q36.3552 11.2756 36.3228 11.2584Q36.2904 11.2411 36.2593 11.2215L35.5 10.7422L34.7407 11.2215Q34.7096 11.2411 34.6772 11.2584Q34.6448 11.2756 34.6112 11.2905Q34.5777 11.3053 34.5431 11.3177Q34.5085 11.33 34.4731 11.3398Q34.4377 11.3495 34.4017 11.3567Q34.3657 11.3638 34.3292 11.3683Q34.2928 11.3728 34.2561 11.3745Q34.2194 11.3763 34.1827 11.3754Q34.146 11.3745 34.1095 11.3709Q34.0729 11.3673 34.0368 11.361Q34.0006 11.3548 33.965 11.3459Q33.9293 11.3369 33.8945 11.3254Q33.8596 11.3139 33.8257 11.2999Q33.7917 11.2859 33.7589 11.2694Q33.7261 11.2529 33.6946 11.2341Q33.6631 11.2152 33.6331 11.1941Q33.603 11.173 33.5746 11.1497Q33.5462 11.1265 33.5196 11.1012Q33.4929 11.0759 33.4682 11.0487Q33.4435 11.0216 33.4209 10.9926Q33.3983 10.9637 33.3778 10.9332Q33.3573 10.9027 33.3392 10.8708Q33.321 10.8389 33.3053 10.8058Q33.2895 10.7726 33.2762 10.7384Q33.2629 10.7041 33.2522 10.669Q33.2414 10.6339 33.2333 10.5981Q33.2251 10.5623 33.2197 10.526Q33.2142 10.4897 33.2114 10.4531Q33.2085 10.4165 33.2084 10.3798Q33.2083 10.343 33.2109 10.3064Q33.2135 10.2698 33.2188 10.2334Q33.224 10.1971 33.232 10.1613L33.4505 9.17188L32.671 8.45619Q32.6444 8.43177 32.6197 8.4055Q32.5949 8.37922 32.5721 8.35123Q32.5493 8.32324 32.5286 8.29367Q32.5079 8.2641 32.4893 8.23312Q32.4708 8.20214 32.4546 8.16989Q32.4383 8.13765 32.4244 8.10432Q32.4106 8.07099 32.3991 8.03675Q32.3877 8.0025 32.3788 7.96752Q32.3698 7.93254 32.3634 7.897Q32.3571 7.86147 32.3533 7.82556Q32.3494 7.78966 32.3482 7.75358Q32.347 7.71749 32.3484 7.68142Q32.3499 7.64534 32.3539 7.60946Q32.3579 7.57358 32.3645 7.53808Q32.371 7.50258 32.3802 7.46765Q32.3893 7.43272 32.4009 7.39854Q32.4126 7.36436 32.4266 7.33111Q32.4407 7.29786 32.4571 7.26571Q32.4736 7.23356 32.4923 7.20268Q32.511 7.1718 32.5319 7.14235Q32.5528 7.1129 32.5757 7.08504Q32.5987 7.05718 32.6236 7.03104Q32.6485 7.00491 32.6752 6.98064Q32.702 6.95638 32.7304 6.9341Q32.7588 6.91183 32.7887 6.89166Q32.8187 6.8715 32.85 6.85355Q32.8813 6.8356 32.9139 6.81996Q32.9464 6.80432 32.98 6.79106Q33.0136 6.77781 33.048 6.76702Q33.0825 6.75622 33.1176 6.74795Q33.1528 6.73967 33.1884 6.73395Q33.2241 6.72823 33.26 6.7251L34.2302 6.64063L34.5738 5.7907Q34.5877 5.75634 34.6041 5.72311Q34.6205 5.68987 34.6393 5.65794Q34.6582 5.62601 34.6793 5.59557Q34.7004 5.56512 34.7237 5.53632Q34.7471 5.50753 34.7725 5.48054Q34.7979 5.45355 34.8252 5.42852Q34.8525 5.40348 34.8816 5.38054Q34.9107 5.3576 34.9415 5.33688Q34.9722 5.31616 35.0044 5.29778Q35.0366 5.27939 35.07 5.26344Q35.1035 5.24749 35.138 5.23406Q35.1725 5.22063 35.208 5.20979Q35.2434 5.19896 35.2796 5.19078Q35.3157 5.18261 35.3524 5.17713Q35.389 5.17165 35.426 5.16891Q35.4629 5.16616 35.5 5.16616Q35.5371 5.16616 35.574 5.16891Q35.611 5.17165 35.6476 5.17713Q35.6843 5.18261 35.7204 5.19078Q35.7566 5.19896 35.792 5.20979Q35.8275 5.22063 35.862 5.23406Q35.8966 5.24749 35.93 5.26344Q35.9635 5.27939 35.9956 5.29778Q36.0278 5.31616 36.0585 5.33688Q36.0893 5.3576 36.1184 5.38054Q36.1475 5.40348 36.1748 5.42852Q36.2021 5.45355 36.2275 5.48054Q36.2529 5.50753 36.2763 5.53632Q36.2996 5.56512 36.3207 5.59557Q36.3418 5.62602 36.3607 5.65794Q36.3795 5.68987 36.3959 5.72311Q36.4123 5.75634 36.4262 5.7907L36.7698 6.64063L37.74 6.7251Q37.7759 6.72823 37.8116 6.73395Q37.8472 6.73967 37.8824 6.74795Q37.9175 6.75622 37.952 6.76702Q37.9864 6.77781 38.02 6.79106Q38.0536 6.80432 38.0861 6.81996Q38.1187 6.8356 38.15 6.85355Q38.1813 6.8715 38.2113 6.89166Q38.2412 6.91183 38.2696 6.9341Q38.298 6.95638 38.3248 6.98064Q38.3515 7.00491 38.3764 7.03104Q38.4013 7.05718 38.4243 7.08504Q38.4472 7.1129 38.4681 7.14235Q38.489 7.1718 38.5077 7.20268Q38.5264 7.23356 38.5429 7.26571Q38.5593 7.29786 38.5734 7.33111Q38.5874 7.36436 38.5991 7.39854Q38.6107 7.43272 38.6198 7.46765Q38.6289 7.50258 38.6355 7.53808Q38.6421 7.57358 38.6461 7.60946Q38.6501 7.64534 38.6515 7.68142Q38.653 7.71749 38.6517 7.75358Q38.6506 7.78966 38.6467 7.82556Q38.6429 7.86147 38.6366 7.897Q38.6302 7.93254 38.6212 7.96752Q38.6123 8.0025 38.6009 8.03675Q38.5894 8.07099 38.5756 8.10432Q38.5617 8.13765 38.5454 8.16989Q38.5292 8.20214 38.5107 8.23312Q38.4921 8.2641 38.4714 8.29367Q38.4507 8.32324 38.4279 8.35123Q38.4051 8.37922 38.3803 8.4055Q38.3556 8.43177 38.329 8.45619Z" id="star" fill="#FFFFFF" fill-rule="evenodd" stroke="none" />
        <path d="M50.329 8.45619L49.5495 9.17188L49.768 10.1613Q49.776 10.1971 49.7812 10.2334Q49.7865 10.2698 49.7891 10.3064Q49.7917 10.343 49.7916 10.3798Q49.7914 10.4165 49.7886 10.4531Q49.7858 10.4897 49.7803 10.526Q49.7749 10.5623 49.7667 10.5981Q49.7586 10.6339 49.7478 10.669Q49.7371 10.7041 49.7238 10.7384Q49.7105 10.7726 49.6947 10.8058Q49.679 10.8389 49.6608 10.8708Q49.6426 10.9027 49.6222 10.9332Q49.6017 10.9637 49.5791 10.9926Q49.5565 11.0216 49.5318 11.0487Q49.5071 11.0759 49.4804 11.1012Q49.4538 11.1265 49.4254 11.1497Q49.397 11.173 49.367 11.1941Q49.3369 11.2152 49.3054 11.2341Q49.2739 11.2529 49.2411 11.2694Q49.2083 11.2859 49.1743 11.2999Q49.1404 11.3139 49.1055 11.3254Q49.0707 11.3369 49.035 11.3459Q48.9994 11.3548 48.9632 11.361Q48.9271 11.3673 48.8905 11.3709Q48.854 11.3745 48.8173 11.3754Q48.7806 11.3763 48.7439 11.3745Q48.7072 11.3728 48.6708 11.3683Q48.6343 11.3638 48.5983 11.3567Q48.5623 11.3495 48.5269 11.3398Q48.4915 11.33 48.4569 11.3177Q48.4223 11.3053 48.3887 11.2905Q48.3552 11.2756 48.3228 11.2584Q48.2904 11.2411 48.2593 11.2215L47.5 10.7422L46.7407 11.2215Q46.7096 11.2411 46.6772 11.2584Q46.6448 11.2756 46.6112 11.2905Q46.5777 11.3053 46.5431 11.3177Q46.5085 11.33 46.4731 11.3398Q46.4377 11.3495 46.4017 11.3567Q46.3657 11.3638 46.3292 11.3683Q46.2928 11.3728 46.2561 11.3745Q46.2194 11.3763 46.1827 11.3754Q46.146 11.3745 46.1095 11.3709Q46.0729 11.3673 46.0368 11.361Q46.0006 11.3548 45.965 11.3459Q45.9293 11.3369 45.8945 11.3254Q45.8596 11.3139 45.8257 11.2999Q45.7917 11.2859 45.7589 11.2694Q45.7261 11.2529 45.6946 11.2341Q45.6631 11.2152 45.633 11.1941Q45.603 11.173 45.5746 11.1497Q45.5462 11.1265 45.5196 11.1012Q45.4929 11.0759 45.4682 11.0487Q45.4435 11.0216 45.4209 10.9926Q45.3983 10.9637 45.3778 10.9332Q45.3573 10.9027 45.3392 10.8708Q45.321 10.8389 45.3053 10.8058Q45.2895 10.7726 45.2762 10.7384Q45.2629 10.7041 45.2522 10.669Q45.2414 10.6339 45.2333 10.5981Q45.2251 10.5623 45.2197 10.526Q45.2142 10.4897 45.2114 10.4531Q45.2085 10.4165 45.2084 10.3798Q45.2083 10.343 45.2109 10.3064Q45.2135 10.2698 45.2188 10.2334Q45.224 10.1971 45.232 10.1613L45.4505 9.17188L44.671 8.45619Q44.6444 8.43177 44.6197 8.4055Q44.5949 8.37922 44.5721 8.35123Q44.5493 8.32324 44.5286 8.29367Q44.5079 8.2641 44.4893 8.23312Q44.4708 8.20214 44.4546 8.16989Q44.4383 8.13765 44.4244 8.10432Q44.4106 8.07099 44.3991 8.03675Q44.3877 8.0025 44.3788 7.96752Q44.3698 7.93254 44.3634 7.897Q44.3571 7.86147 44.3533 7.82556Q44.3494 7.78966 44.3482 7.75358Q44.347 7.71749 44.3484 7.68142Q44.3499 7.64534 44.3539 7.60946Q44.3579 7.57358 44.3645 7.53808Q44.371 7.50258 44.3802 7.46765Q44.3893 7.43272 44.4009 7.39854Q44.4126 7.36436 44.4266 7.33111Q44.4407 7.29786 44.4571 7.26571Q44.4736 7.23356 44.4923 7.20268Q44.511 7.1718 44.5319 7.14235Q44.5527 7.1129 44.5757 7.08504Q44.5987 7.05718 44.6236 7.03104Q44.6485 7.00491 44.6752 6.98064Q44.702 6.95638 44.7304 6.9341Q44.7588 6.91183 44.7887 6.89166Q44.8187 6.8715 44.85 6.85355Q44.8813 6.8356 44.9139 6.81996Q44.9464 6.80432 44.98 6.79106Q45.0136 6.77781 45.048 6.76702Q45.0825 6.75622 45.1176 6.74795Q45.1528 6.73967 45.1884 6.73395Q45.2241 6.72823 45.26 6.7251L46.2302 6.64063L46.5738 5.7907Q46.5877 5.75634 46.6041 5.72311Q46.6205 5.68987 46.6394 5.65794Q46.6582 5.62601 46.6793 5.59557Q46.7004 5.56512 46.7237 5.53632Q46.7471 5.50753 46.7725 5.48054Q46.7979 5.45355 46.8252 5.42852Q46.8525 5.40348 46.8816 5.38054Q46.9107 5.3576 46.9415 5.33688Q46.9722 5.31616 47.0044 5.29778Q47.0366 5.27939 47.07 5.26344Q47.1035 5.24749 47.138 5.23406Q47.1725 5.22063 47.208 5.20979Q47.2434 5.19896 47.2796 5.19078Q47.3157 5.18261 47.3524 5.17713Q47.389 5.17165 47.426 5.16891Q47.4629 5.16616 47.5 5.16616Q47.5371 5.16616 47.574 5.16891Q47.611 5.17165 47.6476 5.17713Q47.6843 5.18261 47.7204 5.19078Q47.7566 5.19896 47.792 5.20979Q47.8275 5.22063 47.862 5.23406Q47.8966 5.24749 47.93 5.26344Q47.9635 5.27939 47.9956 5.29778Q48.0278 5.31616 48.0585 5.33688Q48.0893 5.3576 48.1184 5.38054Q48.1475 5.40348 48.1748 5.42852Q48.2021 5.45355 48.2275 5.48054Q48.2529 5.50753 48.2763 5.53632Q48.2996 5.56512 48.3207 5.59557Q48.3418 5.62602 48.3607 5.65794Q48.3795 5.68987 48.3959 5.72311Q48.4123 5.75634 48.4262 5.7907L48.7698 6.64063L49.74 6.7251Q49.7759 6.72823 49.8116 6.73395Q49.8472 6.73967 49.8824 6.74795Q49.9175 6.75622 49.952 6.76702Q49.9864 6.77781 50.02 6.79106Q50.0536 6.80432 50.0861 6.81996Q50.1187 6.8356 50.15 6.85355Q50.1813 6.8715 50.2113 6.89166Q50.2412 6.91183 50.2696 6.9341Q50.298 6.95638 50.3248 6.98064Q50.3515 7.00491 50.3764 7.03104Q50.4013 7.05718 50.4243 7.08504Q50.4472 7.1129 50.4681 7.14235Q50.489 7.1718 50.5077 7.20268Q50.5264 7.23356 50.5429 7.26571Q50.5593 7.29786 50.5734 7.33111Q50.5874 7.36436 50.5991 7.39854Q50.6107 7.43272 50.6198 7.46765Q50.6289 7.50258 50.6355 7.53808Q50.6421 7.57358 50.6461 7.60946Q50.6501 7.64534 50.6516 7.68142Q50.653 7.71749 50.6518 7.75358Q50.6506 7.78966 50.6468 7.82556Q50.6429 7.86147 50.6366 7.897Q50.6302 7.93254 50.6212 7.96752Q50.6123 8.0025 50.6009 8.03675Q50.5894 8.07099 50.5756 8.10432Q50.5617 8.13765 50.5454 8.16989Q50.5292 8.20214 50.5107 8.23312Q50.4921 8.2641 50.4714 8.29367Q50.4507 8.32324 50.4279 8.35123Q50.4051 8.37922 50.3803 8.4055Q50.3556 8.43177 50.329 8.45619Z" id="star" fill="#FFFFFF" fill-rule="evenodd" stroke="none" />
        <path d="M62.329 8.45619L61.5495 9.17188L61.768 10.1613Q61.776 10.1971 61.7812 10.2334Q61.7865 10.2698 61.7891 10.3064Q61.7917 10.343 61.7915 10.3798Q61.7914 10.4165 61.7886 10.4531Q61.7858 10.4897 61.7803 10.526Q61.7749 10.5623 61.7667 10.5981Q61.7586 10.6339 61.7478 10.669Q61.7371 10.7041 61.7238 10.7384Q61.7105 10.7726 61.6947 10.8058Q61.679 10.8389 61.6608 10.8708Q61.6427 10.9027 61.6222 10.9332Q61.6017 10.9637 61.5791 10.9926Q61.5565 11.0216 61.5318 11.0487Q61.5071 11.0759 61.4804 11.1012Q61.4538 11.1265 61.4254 11.1497Q61.397 11.173 61.367 11.1941Q61.3369 11.2152 61.3054 11.2341Q61.2739 11.2529 61.2411 11.2694Q61.2083 11.2859 61.1743 11.2999Q61.1404 11.3139 61.1055 11.3254Q61.0707 11.3369 61.035 11.3459Q60.9994 11.3548 60.9632 11.361Q60.9271 11.3673 60.8905 11.3709Q60.854 11.3745 60.8173 11.3754Q60.7806 11.3763 60.7439 11.3745Q60.7072 11.3728 60.6708 11.3683Q60.6343 11.3638 60.5983 11.3567Q60.5623 11.3495 60.5269 11.3398Q60.4915 11.33 60.4569 11.3177Q60.4223 11.3053 60.3887 11.2905Q60.3552 11.2756 60.3228 11.2584Q60.2904 11.2411 60.2593 11.2215L59.5 10.7422L58.7407 11.2215Q58.7096 11.2411 58.6772 11.2584Q58.6448 11.2756 58.6113 11.2905Q58.5777 11.3053 58.5431 11.3177Q58.5085 11.33 58.4731 11.3398Q58.4377 11.3495 58.4017 11.3567Q58.3657 11.3638 58.3292 11.3683Q58.2928 11.3728 58.2561 11.3745Q58.2194 11.3763 58.1827 11.3754Q58.146 11.3745 58.1095 11.3709Q58.0729 11.3673 58.0368 11.361Q58.0006 11.3548 57.965 11.3459Q57.9293 11.3369 57.8945 11.3254Q57.8596 11.3139 57.8257 11.2999Q57.7917 11.2859 57.7589 11.2694Q57.7261 11.2529 57.6946 11.2341Q57.6631 11.2152 57.6331 11.1941Q57.603 11.173 57.5746 11.1497Q57.5462 11.1265 57.5196 11.1012Q57.4929 11.0759 57.4682 11.0487Q57.4435 11.0216 57.4209 10.9926Q57.3983 10.9637 57.3778 10.9332Q57.3573 10.9027 57.3392 10.8708Q57.321 10.8389 57.3053 10.8058Q57.2895 10.7726 57.2762 10.7384Q57.2629 10.7041 57.2522 10.669Q57.2414 10.6339 57.2333 10.5981Q57.2251 10.5623 57.2197 10.526Q57.2142 10.4897 57.2114 10.4531Q57.2085 10.4165 57.2084 10.3798Q57.2083 10.343 57.2109 10.3064Q57.2135 10.2698 57.2188 10.2334Q57.224 10.1971 57.232 10.1613L57.4505 9.17188L56.671 8.45619Q56.6444 8.43177 56.6197 8.4055Q56.5949 8.37922 56.5721 8.35123Q56.5493 8.32324 56.5286 8.29367Q56.5079 8.2641 56.4893 8.23312Q56.4708 8.20214 56.4546 8.16989Q56.4383 8.13765 56.4244 8.10432Q56.4106 8.07099 56.3991 8.03675Q56.3877 8.0025 56.3788 7.96752Q56.3698 7.93254 56.3634 7.897Q56.3571 7.86147 56.3533 7.82556Q56.3494 7.78966 56.3482 7.75358Q56.347 7.71749 56.3484 7.68142Q56.3499 7.64534 56.3539 7.60946Q56.3579 7.57358 56.3645 7.53808Q56.371 7.50258 56.3802 7.46765Q56.3893 7.43272 56.4009 7.39854Q56.4126 7.36436 56.4266 7.33111Q56.4407 7.29786 56.4571 7.26571Q56.4736 7.23356 56.4923 7.20268Q56.511 7.1718 56.5319 7.14235Q56.5528 7.1129 56.5757 7.08504Q56.5987 7.05718 56.6236 7.03104Q56.6485 7.00491 56.6752 6.98064Q56.702 6.95638 56.7304 6.9341Q56.7588 6.91183 56.7887 6.89166Q56.8187 6.8715 56.85 6.85355Q56.8813 6.8356 56.9139 6.81996Q56.9464 6.80432 56.98 6.79106Q57.0136 6.77781 57.048 6.76702Q57.0825 6.75622 57.1176 6.74795Q57.1528 6.73967 57.1884 6.73395Q57.2241 6.72823 57.26 6.7251L58.2302 6.64063L58.5738 5.7907Q58.5877 5.75634 58.6041 5.72311Q58.6205 5.68987 58.6393 5.65794Q58.6582 5.62601 58.6793 5.59557Q58.7004 5.56512 58.7237 5.53632Q58.7471 5.50753 58.7725 5.48054Q58.7979 5.45355 58.8252 5.42852Q58.8525 5.40348 58.8816 5.38054Q58.9108 5.3576 58.9415 5.33688Q58.9722 5.31616 59.0044 5.29778Q59.0366 5.27939 59.07 5.26344Q59.1035 5.24749 59.138 5.23406Q59.1725 5.22063 59.208 5.20979Q59.2434 5.19896 59.2796 5.19078Q59.3157 5.18261 59.3524 5.17713Q59.389 5.17165 59.426 5.16891Q59.463 5.16616 59.5 5.16616Q59.5371 5.16616 59.574 5.16891Q59.611 5.17165 59.6476 5.17713Q59.6843 5.18261 59.7204 5.19078Q59.7566 5.19896 59.792 5.20979Q59.8275 5.22063 59.862 5.23406Q59.8966 5.24749 59.93 5.26344Q59.9635 5.27939 59.9956 5.29778Q60.0278 5.31616 60.0585 5.33688Q60.0893 5.3576 60.1184 5.38054Q60.1475 5.40348 60.1748 5.42852Q60.2021 5.45355 60.2275 5.48054Q60.2529 5.50753 60.2763 5.53632Q60.2996 5.56512 60.3207 5.59557Q60.3418 5.62602 60.3607 5.65794Q60.3795 5.68987 60.3959 5.72311Q60.4123 5.75634 60.4262 5.7907L60.7698 6.64063L61.74 6.7251Q61.7759 6.72823 61.8116 6.73395Q61.8472 6.73967 61.8824 6.74795Q61.9175 6.75622 61.952 6.76702Q61.9864 6.77781 62.02 6.79106Q62.0536 6.80432 62.0861 6.81996Q62.1187 6.8356 62.15 6.85355Q62.1813 6.8715 62.2113 6.89166Q62.2412 6.91183 62.2696 6.9341Q62.298 6.95638 62.3248 6.98064Q62.3515 7.00491 62.3764 7.03104Q62.4013 7.05718 62.4243 7.08504Q62.4472 7.1129 62.4681 7.14235Q62.489 7.1718 62.5077 7.20268Q62.5264 7.23356 62.5429 7.26571Q62.5593 7.29786 62.5734 7.33111Q62.5874 7.36436 62.5991 7.39854Q62.6107 7.43272 62.6198 7.46765Q62.6289 7.50258 62.6355 7.53808Q62.6421 7.57358 62.6461 7.60946Q62.6501 7.64534 62.6515 7.68142Q62.653 7.71749 62.6517 7.75358Q62.6506 7.78966 62.6468 7.82556Q62.6429 7.86147 62.6366 7.897Q62.6302 7.93254 62.6212 7.96752Q62.6123 8.0025 62.6009 8.03675Q62.5894 8.07099 62.5756 8.10432Q62.5617 8.13765 62.5454 8.16989Q62.5292 8.20214 62.5107 8.23312Q62.4921 8.2641 62.4714 8.29367Q62.4507 8.32324 62.4279 8.35123Q62.4051 8.37922 62.3803 8.4055Q62.3555 8.43177 62.329 8.45619Z" id="star" fill="#FFFFFF" fill-rule="evenodd" stroke="none" />
        <path d="M74.329 8.45619L73.5495 9.17188L73.7681 10.1613Q73.776 10.1971 73.7812 10.2334Q73.7865 10.2698 73.7891 10.3064Q73.7917 10.343 73.7915 10.3798Q73.7914 10.4165 73.7886 10.4531Q73.7858 10.4897 73.7803 10.526Q73.7749 10.5623 73.7667 10.5981Q73.7586 10.6339 73.7478 10.669Q73.7371 10.7041 73.7238 10.7384Q73.7105 10.7726 73.6947 10.8058Q73.679 10.8389 73.6608 10.8708Q73.6427 10.9027 73.6222 10.9332Q73.6017 10.9637 73.5791 10.9926Q73.5565 11.0216 73.5318 11.0487Q73.5071 11.0759 73.4804 11.1012Q73.4538 11.1265 73.4254 11.1497Q73.397 11.173 73.367 11.1941Q73.3369 11.2152 73.3054 11.2341Q73.2739 11.2529 73.2411 11.2694Q73.2083 11.2859 73.1743 11.2999Q73.1404 11.3139 73.1055 11.3254Q73.0707 11.3369 73.035 11.3459Q72.9994 11.3548 72.9632 11.361Q72.9271 11.3673 72.8905 11.3709Q72.854 11.3745 72.8173 11.3754Q72.7806 11.3763 72.7439 11.3745Q72.7072 11.3728 72.6708 11.3683Q72.6343 11.3638 72.5983 11.3567Q72.5623 11.3495 72.5269 11.3398Q72.4915 11.33 72.4569 11.3177Q72.4223 11.3053 72.3887 11.2905Q72.3552 11.2756 72.3227 11.2584Q72.2904 11.2411 72.2593 11.2215L71.5 10.7422L70.7407 11.2215Q70.7096 11.2411 70.6772 11.2584Q70.6448 11.2756 70.6113 11.2905Q70.5777 11.3053 70.5431 11.3177Q70.5085 11.33 70.4731 11.3398Q70.4377 11.3495 70.4017 11.3567Q70.3657 11.3638 70.3292 11.3683Q70.2928 11.3728 70.2561 11.3745Q70.2194 11.3763 70.1827 11.3754Q70.146 11.3745 70.1095 11.3709Q70.0729 11.3673 70.0368 11.361Q70.0006 11.3548 69.965 11.3459Q69.9293 11.3369 69.8945 11.3254Q69.8596 11.3139 69.8257 11.2999Q69.7917 11.2859 69.7589 11.2694Q69.7261 11.2529 69.6946 11.2341Q69.6631 11.2152 69.633 11.1941Q69.603 11.173 69.5746 11.1497Q69.5462 11.1265 69.5196 11.1012Q69.4929 11.0759 69.4682 11.0487Q69.4435 11.0216 69.4209 10.9926Q69.3982 10.9637 69.3778 10.9332Q69.3573 10.9027 69.3392 10.8708Q69.321 10.8389 69.3052 10.8058Q69.2895 10.7726 69.2762 10.7384Q69.2629 10.7041 69.2522 10.669Q69.2414 10.6339 69.2333 10.5981Q69.2251 10.5623 69.2196 10.526Q69.2142 10.4897 69.2114 10.4531Q69.2085 10.4165 69.2084 10.3798Q69.2083 10.343 69.2109 10.3064Q69.2135 10.2698 69.2188 10.2334Q69.224 10.1971 69.2319 10.1613L69.4505 9.17188L68.671 8.45619Q68.6444 8.43177 68.6197 8.4055Q68.5949 8.37922 68.5721 8.35123Q68.5493 8.32324 68.5286 8.29367Q68.5079 8.2641 68.4893 8.23312Q68.4708 8.20214 68.4546 8.16989Q68.4383 8.13765 68.4244 8.10432Q68.4106 8.07099 68.3991 8.03675Q68.3877 8.0025 68.3788 7.96752Q68.3698 7.93254 68.3634 7.897Q68.357 7.86147 68.3532 7.82556Q68.3494 7.78966 68.3482 7.75358Q68.347 7.71749 68.3484 7.68142Q68.3498 7.64534 68.3539 7.60946Q68.3579 7.57358 68.3644 7.53808Q68.371 7.50258 68.3802 7.46765Q68.3893 7.43272 68.4009 7.39854Q68.4126 7.36436 68.4266 7.33111Q68.4407 7.29786 68.4571 7.26571Q68.4735 7.23356 68.4923 7.20268Q68.511 7.1718 68.5319 7.14235Q68.5527 7.1129 68.5757 7.08504Q68.5987 7.05718 68.6236 7.03104Q68.6485 7.00491 68.6752 6.98064Q68.702 6.95638 68.7304 6.9341Q68.7588 6.91183 68.7887 6.89166Q68.8187 6.8715 68.85 6.85355Q68.8813 6.8356 68.9139 6.81996Q68.9464 6.80432 68.98 6.79106Q69.0136 6.77781 69.048 6.76702Q69.0825 6.75622 69.1176 6.74795Q69.1528 6.73967 69.1884 6.73395Q69.2241 6.72823 69.26 6.7251L70.2302 6.64063L70.5738 5.7907Q70.5877 5.75634 70.6041 5.72311Q70.6205 5.68987 70.6393 5.65794Q70.6582 5.62601 70.6793 5.59557Q70.7004 5.56512 70.7237 5.53632Q70.7471 5.50753 70.7725 5.48054Q70.7979 5.45355 70.8252 5.42852Q70.8525 5.40348 70.8816 5.38054Q70.9108 5.3576 70.9415 5.33688Q70.9722 5.31616 71.0044 5.29778Q71.0366 5.27939 71.07 5.26344Q71.1035 5.24749 71.138 5.23406Q71.1725 5.22063 71.208 5.20979Q71.2434 5.19896 71.2796 5.19078Q71.3157 5.18261 71.3524 5.17713Q71.389 5.17165 71.426 5.16891Q71.4629 5.16616 71.5 5.16616Q71.5371 5.16616 71.574 5.16891Q71.611 5.17165 71.6476 5.17713Q71.6843 5.18261 71.7204 5.19078Q71.7566 5.19896 71.792 5.20979Q71.8275 5.22063 71.862 5.23406Q71.8966 5.24749 71.93 5.26344Q71.9635 5.27939 71.9956 5.29778Q72.0278 5.31616 72.0585 5.33688Q72.0893 5.3576 72.1184 5.38054Q72.1475 5.40348 72.1748 5.42852Q72.2021 5.45355 72.2275 5.48054Q72.2529 5.50753 72.2763 5.53632Q72.2996 5.56512 72.3207 5.59557Q72.3418 5.62602 72.3607 5.65794Q72.3795 5.68987 72.3959 5.72311Q72.4123 5.75634 72.4262 5.7907L72.7698 6.64063L73.74 6.7251Q73.7759 6.72823 73.8116 6.73395Q73.8472 6.73967 73.8824 6.74795Q73.9175 6.75622 73.952 6.76702Q73.9864 6.77781 74.02 6.79106Q74.0536 6.80432 74.0861 6.81996Q74.1187 6.8356 74.15 6.85355Q74.1813 6.8715 74.2113 6.89166Q74.2412 6.91183 74.2696 6.9341Q74.298 6.95638 74.3248 6.98064Q74.3515 7.00491 74.3764 7.03104Q74.4013 7.05718 74.4243 7.08504Q74.4472 7.1129 74.4681 7.14235Q74.489 7.1718 74.5077 7.20268Q74.5264 7.23356 74.5429 7.26571Q74.5593 7.29786 74.5734 7.33111Q74.5874 7.36436 74.5991 7.39854Q74.6107 7.43272 74.6198 7.46765Q74.6289 7.50258 74.6355 7.53808Q74.6421 7.57358 74.6461 7.60946Q74.6501 7.64534 74.6515 7.68142Q74.6529 7.71749 74.6517 7.75358Q74.6506 7.78966 74.6468 7.82556Q74.6429 7.86147 74.6366 7.897Q74.6302 7.93254 74.6212 7.96752Q74.6123 8.0025 74.6009 8.03675Q74.5894 8.07099 74.5756 8.10432Q74.5617 8.13765 74.5454 8.16989Q74.5292 8.20214 74.5107 8.23312Q74.4921 8.2641 74.4714 8.29367Q74.4507 8.32324 74.4279 8.35123Q74.4051 8.37922 74.3803 8.4055Q74.3556 8.43177 74.329 8.45619Z" id="star" fill="#FFFFFF" fill-rule="evenodd" stroke="none" />
        <g id="star">
          <g clip-path="url(#clip_5)">
            <use xlink:href="#path_7" fill="none" stroke="#FFFFFF" stroke-width="2" />
          </g>
        </g>
      </g>
      <g id="timeline" transform="translate(9 156)">
        <path d="M4 0L6 0L6 40L4 40L4 0Z" id="vr" fill="#2B2E4A" fill-rule="evenodd" stroke="none" />
        <path d="M5 20C7.76142 20 10 17.7614 10 15C10 12.2386 7.76142 10 5 10C2.23858 10 0 12.2386 0 15C0 17.7614 2.23858 20 5 20Z" id="pic" fill="#2B2E4A" fill-rule="evenodd" stroke="none" />
        <path d="M14 13L54 13L54 17L14 17L14 13Z" id="name" fill="#525469" fill-rule="evenodd" stroke="none" />
      </g>
    </g>
    <g id="post-2" transform="translate(10 29)">
      <path d="M4.999 0L140.001 0Q140.124 0 140.246 0.00602151Q140.369 0.012043 140.491 0.0240715Q140.613 0.0361001 140.735 0.0541066Q140.856 0.0721132 140.976 0.0960544Q141.097 0.119996 141.216 0.149814Q141.335 0.179632 141.452 0.215255Q141.57 0.250879 141.685 0.292221Q141.801 0.333564 141.914 0.380526Q142.027 0.427489 142.138 0.479957Q142.249 0.532426 142.358 0.590276Q142.466 0.648125 142.571 0.711215Q142.676 0.774305 142.778 0.842483Q142.88 0.910662 142.979 0.983765Q143.077 1.05687 143.172 1.13472Q143.267 1.21257 143.358 1.29499Q143.449 1.3774 143.536 1.46417Q143.623 1.55095 143.705 1.64188Q143.787 1.73281 143.865 1.82767Q143.943 1.92253 144.016 2.0211Q144.089 2.11967 144.158 2.2217Q144.226 2.32374 144.289 2.429Q144.352 2.53426 144.41 2.64249Q144.468 2.75072 144.52 2.86165Q144.573 2.97259 144.619 3.08597Q144.666 3.19934 144.708 3.31489Q144.749 3.43043 144.785 3.54787Q144.82 3.6653 144.85 3.78434Q144.88 3.90338 144.904 4.02374Q144.928 4.1441 144.946 4.26549Q144.964 4.38688 144.976 4.50901Q144.988 4.63114 144.994 4.75371Q145 4.87628 145 4.999L145 223.001Q145 223.124 144.994 223.246Q144.988 223.369 144.976 223.491Q144.964 223.613 144.946 223.734Q144.928 223.856 144.904 223.976Q144.88 224.097 144.85 224.216Q144.82 224.335 144.785 224.452Q144.749 224.57 144.708 224.685Q144.666 224.801 144.619 224.914Q144.573 225.027 144.52 225.138Q144.468 225.249 144.41 225.357Q144.352 225.466 144.289 225.571Q144.226 225.676 144.158 225.778Q144.089 225.88 144.016 225.979Q143.943 226.077 143.865 226.172Q143.787 226.267 143.705 226.358Q143.623 226.449 143.536 226.536Q143.449 226.623 143.358 226.705Q143.267 226.787 143.172 226.865Q143.077 226.943 142.979 227.016Q142.88 227.089 142.778 227.157Q142.676 227.226 142.571 227.289Q142.466 227.352 142.357 227.41Q142.249 227.468 142.138 227.52Q142.027 227.572 141.914 227.619Q141.801 227.666 141.685 227.708Q141.57 227.749 141.452 227.785Q141.335 227.82 141.216 227.85Q141.097 227.88 140.976 227.904Q140.856 227.928 140.735 227.946Q140.613 227.964 140.491 227.976Q140.369 227.988 140.246 227.994Q140.124 228 140.001 228L4.999 228Q4.87628 228 4.75371 227.994Q4.63114 227.988 4.50901 227.976Q4.38688 227.964 4.26549 227.946Q4.1441 227.928 4.02374 227.904Q3.90338 227.88 3.78434 227.85Q3.6653 227.82 3.54787 227.785Q3.43043 227.749 3.31489 227.708Q3.19934 227.666 3.08597 227.619Q2.97259 227.572 2.86165 227.52Q2.75072 227.468 2.64249 227.41Q2.53426 227.352 2.429 227.289Q2.32374 227.226 2.2217 227.157Q2.11967 227.089 2.0211 227.016Q1.92253 226.943 1.82767 226.865Q1.73281 226.787 1.64188 226.705Q1.55095 226.623 1.46417 226.536Q1.3774 226.449 1.29499 226.358Q1.21257 226.267 1.13472 226.172Q1.05687 226.077 0.983765 225.979Q0.910662 225.88 0.842483 225.778Q0.774305 225.676 0.711215 225.571Q0.648125 225.466 0.590276 225.357Q0.532426 225.249 0.479957 225.138Q0.427489 225.027 0.380526 224.914Q0.333564 224.801 0.292221 224.685Q0.250879 224.57 0.215255 224.452Q0.179632 224.335 0.149814 224.216Q0.119996 224.097 0.0960544 223.976Q0.0721132 223.856 0.0541066 223.734Q0.0361001 223.613 0.0240715 223.491Q0.012043 223.369 0.00602151 223.246Q0 223.124 0 223.001L0 4.999Q0 4.87628 0.00602151 4.75371Q0.012043 4.63114 0.0240715 4.50901Q0.0361001 4.38688 0.0541066 4.26549Q0.0721132 4.1441 0.0960544 4.02374Q0.119996 3.90338 0.149814 3.78434Q0.179632 3.6653 0.215255 3.54787Q0.250879 3.43043 0.292221 3.31489Q0.333564 3.19934 0.380526 3.08597Q0.427489 2.97259 0.479957 2.86165Q0.532426 2.75072 0.590276 2.64249Q0.648125 2.53426 0.711215 2.429Q0.774305 2.32374 0.842483 2.2217Q0.910662 2.11967 0.983765 2.0211Q1.05687 1.92253 1.13472 1.82767Q1.21257 1.73281 1.29499 1.64188Q1.3774 1.55095 1.46417 1.46417Q1.55095 1.3774 1.64188 1.29499Q1.73281 1.21257 1.82767 1.13472Q1.92253 1.05687 2.0211 0.983765Q2.11967 0.910662 2.2217 0.842483Q2.32374 0.774305 2.429 0.711215Q2.53426 0.648125 2.64249 0.590276Q2.75072 0.532426 2.86165 0.479957Q2.97259 0.427489 3.08597 0.380526Q3.19934 0.333564 3.31489 0.292221Q3.43043 0.250879 3.54787 0.215255Q3.6653 0.179632 3.78434 0.149814Q3.90338 0.119996 4.02374 0.0960544Q4.1441 0.0721132 4.26549 0.0541066Q4.38688 0.0361001 4.50901 0.0240715Q4.63114 0.012043 4.75371 0.00602151Q4.87628 0 4.999 0Z" id="screen" fill="none" fill-rule="evenodd" stroke="none" />
      <g clip-path="url(#mask_3)">
        <g id="post-image" transform="translate(13 209)">
          <path d="M0 0L119 0L119 90L0 90L0 0Z" id="mask" fill="#DFDFE2" fill-rule="evenodd" stroke="none" />
          <g clip-path="url(#mask_4)">
            <g id="bottle" transform="matrix(0.8660253 0.5000002 -0.5000002 0.8660253 47.500027 -104.00001)">
              <g id="bottle-1" transform="translate(0.99240386 0.91317594)">
                <path d="M120.969 102.83C120.99 103.146 121 103.464 121 103.785L121.233 217.937C121.233 220.841 119.086 223.195 116.452 223.195L58.0148 223.195C55.3739 223.195 53.2331 220.833 53.2331 217.937L53 103.785C53 103.463 53.0105 103.143 53.0312 102.826C53.6072 87.8929 62.1011 75.2206 74.0009 69.7857L75.5673 13L98.4328 13L99.9991 69.7857C111.9 75.2211 120.394 87.8953 120.969 102.83Z" id="shape" fill="#F4F4F6" fill-rule="evenodd" stroke="#2B2E4A" stroke-opacity="0.9019608" stroke-width="3" />
                <g id="label" transform="translate(53 105)">
                  <path d="M68 0L68 68L0 68L0 0L68 0Z" id="label" fill="#BFC0C8" fill-rule="evenodd" stroke="#40425C" stroke-width="3" />
                </g>
                <g id="shadow" transform="matrix(1 0 0 1 0 -8.526513E-14)" opacity="0.1">
                  <path d="M0 -2.84217e-14L86.9231 -2.84217e-14L86.9231 254L0 254L0 -2.84217e-14Z" id="Mask" fill="none" fill-rule="evenodd" stroke="none" />
                  <g clip-path="url(#mask_2)">
                    <path d="M73.4236 65.866L73.1438 6.60861L76.0744 1L101.465 1L103.285 64.4978C116.33 69.8086 125.525 82.6135 125.525 97.5661C125.525 102.017 124.711 106.277 123.222 110.206L122.381 239.461Q122.38 239.657 122.36 239.851Q122.339 240.046 122.3 240.238Q122.261 240.429 122.203 240.616Q122.145 240.803 122.07 240.984Q121.994 241.164 121.901 241.336Q121.808 241.508 121.698 241.67Q121.589 241.833 121.464 241.983Q121.34 242.134 121.201 242.272Q121.062 242.41 120.911 242.534Q120.759 242.657 120.596 242.766Q120.433 242.874 120.26 242.966Q120.088 243.058 119.907 243.132Q119.726 243.207 119.539 243.263Q119.351 243.32 119.159 243.358Q118.968 243.396 118.773 243.415Q118.578 243.434 118.383 243.434L57.1345 243.434Q56.739 243.434 56.3511 243.357Q55.9633 243.279 55.5981 243.127Q55.233 242.975 54.9047 242.755Q54.5764 242.534 54.2976 242.254Q54.0188 241.973 53.8004 241.643Q53.5821 241.314 53.4325 240.947Q53.2829 240.581 53.208 240.193Q53.133 239.805 53.1356 239.409L54.1142 88.9802Q54.1163 88.6613 54.1588 88.3453Q54.2014 88.0293 54.2838 87.7212Q54.3662 87.4131 54.487 87.1181Q54.6079 86.823 54.7653 86.5456Q54.9226 86.2683 55.114 86.0132Q55.3053 85.7581 55.5275 85.5294Q55.7497 85.3006 55.9992 85.102Q56.2486 84.9034 56.5213 84.738C59.6665 76.5752 65.7255 69.8597 73.4236 65.866Z" id="shape" fill="#202338" fill-rule="evenodd" stroke="none" />
                  </g>
                </g>
              </g>
            </g>
          </g>
          <path d="M12.5 18C16.0899 18 19 15.0899 19 11.5C19 7.91015 16.0899 5 12.5 5C8.91015 5 6 7.91015 6 11.5C6 15.0899 8.91015 18 12.5 18Z" id="pic" fill="#525469" fill-rule="evenodd" stroke="none" />
          <path d="M23 10L63 10L63 14L23 14L23 10Z" id="name" fill="#525469" fill-rule="evenodd" stroke="none" />
          <path d="M102 10L114 10L114 14L102 14L102 10Z" id="time" fill="#525469" fill-rule="evenodd" stroke="none" />
        </g>
      </g>
    </g>
  </g>
</svg>